<?xml version="1.0" encoding="UTF-8" standalone="no"?>
<!DOCTYPE svg PUBLIC "-//W3C//DTD SVG 1.1//EN"
 "http://www.w3.org/Graphics/SVG/1.1/DTD/svg11.dtd">
<!-- Generated by graphviz version 2.26.3 (20100126.1600)
 -->
<!-- Title: src/dev/CharacterDevice.h Pages: 1 -->
<svg width="309pt" height="146pt"
 viewBox="0.00 0.00 309.00 146.00" xmlns="http://www.w3.org/2000/svg" xmlns:xlink="http://www.w3.org/1999/xlink">
<g id="graph1" class="graph" transform="scale(1 1) rotate(0) translate(4 142)">
<title>src/dev/CharacterDevice.h</title>
<!-- Node1 -->
<g id="node1" class="node"><title>Node1</title>
<polygon fill="#bfbfbf" stroke="black" points="74,-116.5 74,-137.5 208,-137.5 208,-116.5 74,-116.5"/>
<text text-anchor="middle" x="141" y="-124.5" font-family="Helvetica,sans-Serif" font-size="10.00">src/dev/CharacterDevice.h</text>
</g>
<!-- Node2 -->
<g id="node3" class="node"><title>Node2</title>
<a xlink:href="CharacterDevice_8cpp.html" target="_top" xlink:title="src/dev/CharacterDevice.cpp">
<polygon fill="none" stroke="black" points="0,-58.5 0,-79.5 144,-79.5 144,-58.5 0,-58.5"/>
<text text-anchor="middle" x="72" y="-66.5" font-family="Helvetica,sans-Serif" font-size="10.00">src/dev/CharacterDevice.cpp</text>
</a>
</g>
<!-- Node1&#45;&gt;Node2 -->
<g id="edge2" class="edge"><title>Node1&#45;&gt;Node2</title>
<path fill="none" stroke="midnightblue" d="M120.408,-109.691C108.76,-99.8996 94.5713,-87.973 84.5754,-79.5707"/>
<polygon fill="midnightblue" stroke="midnightblue" points="118.437,-112.607 128.344,-116.362 122.942,-107.248 118.437,-112.607"/>
</g>
<!-- Node3 -->
<g id="node5" class="node"><title>Node3</title>
<a xlink:href="XDevice_8h.html" target="_top" xlink:title="src/dev/XDevice.h">
<polygon fill="none" stroke="black" points="162,-58.5 162,-79.5 260,-79.5 260,-58.5 162,-58.5"/>
<text text-anchor="middle" x="211" y="-66.5" font-family="Helvetica,sans-Serif" font-size="10.00">src/dev/XDevice.h</text>
</a>
</g>
<!-- Node1&#45;&gt;Node3 -->
<g id="edge4" class="edge"><title>Node1&#45;&gt;Node3</title>
<path fill="none" stroke="midnightblue" d="M161.547,-109.975C173.427,-100.132 188.003,-88.0545 198.242,-79.5707"/>
<polygon fill="midnightblue" stroke="midnightblue" points="159.306,-107.287 153.839,-116.362 163.772,-112.677 159.306,-107.287"/>
</g>
<!-- Node4 -->
<g id="node7" class="node"><title>Node4</title>
<a xlink:href="XDevice_8cpp.html" target="_top" xlink:title="src/dev/XDevice.cpp">
<polygon fill="none" stroke="black" points="103,-0.5 103,-21.5 211,-21.5 211,-0.5 103,-0.5"/>
<text text-anchor="middle" x="157" y="-8.5" font-family="Helvetica,sans-Serif" font-size="10.00">src/dev/XDevice.cpp</text>
</a>
</g>
<!-- Node3&#45;&gt;Node4 -->
<g id="edge6" class="edge"><title>Node3&#45;&gt;Node4</title>
<path fill="none" stroke="midnightblue" d="M194.083,-50.8299C185.125,-41.2078 174.437,-29.7282 166.842,-21.5707"/>
<polygon fill="midnightblue" stroke="midnightblue" points="191.72,-53.4279 201.096,-58.3619 196.843,-48.658 191.72,-53.4279"/>
</g>
<!-- Node5 -->
<g id="node9" class="node"><title>Node5</title>
<a xlink:href="main_8cpp.html" target="_top" xlink:title="src/main.cpp">
<polygon fill="none" stroke="black" points="228.5,-0.5 228.5,-21.5 301.5,-21.5 301.5,-0.5 228.5,-0.5"/>
<text text-anchor="middle" x="265" y="-8.5" font-family="Helvetica,sans-Serif" font-size="10.00">src/main.cpp</text>
</a>
</g>
<!-- Node3&#45;&gt;Node5 -->
<g id="edge8" class="edge"><title>Node3&#45;&gt;Node5</title>
<path fill="none" stroke="midnightblue" d="M227.917,-50.8299C236.875,-41.2078 247.563,-29.7282 255.158,-21.5707"/>
<polygon fill="midnightblue" stroke="midnightblue" points="225.157,-48.658 220.904,-58.3619 230.28,-53.4279 225.157,-48.658"/>
</g>
</g>
</svg>
