<?xml version="1.0" encoding="UTF-8" standalone="no"?>
<!DOCTYPE svg PUBLIC "-//W3C//DTD SVG 1.1//EN"
 "http://www.w3.org/Graphics/SVG/1.1/DTD/svg11.dtd">
<!-- Generated by graphviz version 2.26.3 (20100126.1600)
 -->
<!-- Title: G Pages: 1 -->
<svg width="168pt" height="146pt"
 viewBox="0.00 0.00 168.00 146.00" xmlns="http://www.w3.org/2000/svg" xmlns:xlink="http://www.w3.org/1999/xlink">
<g id="graph1" class="graph" transform="scale(1 1) rotate(0) translate(4 142)">
<title>G</title>
<!-- Node1 -->
<g id="node1" class="node"><title>Node1</title>
<polygon fill="#bfbfbf" stroke="black" points="2,-116.5 2,-137.5 136,-137.5 136,-116.5 2,-116.5"/>
<text text-anchor="middle" x="69" y="-124.5" font-family="Helvetica,sans-Serif" font-size="10.00">src/dev/CharacterDevice.h</text>
</g>
<!-- Node2 -->
<g id="node3" class="node"><title>Node2</title>
<polygon fill="none" stroke="#bfbfbf" points="0,-58.5 0,-79.5 50,-79.5 50,-58.5 0,-58.5"/>
<text text-anchor="middle" x="25" y="-66.5" font-family="Helvetica,sans-Serif" font-size="10.00">fstream</text>
</g>
<!-- Node1&#45;&gt;Node2 -->
<g id="edge2" class="edge"><title>Node1&#45;&gt;Node2</title>
<path fill="none" stroke="midnightblue" d="M60.9297,-116.362C54.8514,-108.35 46.3631,-97.1605 39.1631,-87.6696"/>
<polygon fill="midnightblue" stroke="midnightblue" points="41.8514,-85.4222 33.0191,-79.5707 36.2746,-89.653 41.8514,-85.4222"/>
</g>
<!-- Node3 -->
<g id="node5" class="node"><title>Node3</title>
<a xlink:href="AbstractDevice_8h.html" target="_top" xlink:title="AbstractDevice.h">
<polygon fill="none" stroke="black" points="68,-58.5 68,-79.5 160,-79.5 160,-58.5 68,-58.5"/>
<text text-anchor="middle" x="114" y="-66.5" font-family="Helvetica,sans-Serif" font-size="10.00">AbstractDevice.h</text>
</a>
</g>
<!-- Node1&#45;&gt;Node3 -->
<g id="edge4" class="edge"><title>Node1&#45;&gt;Node3</title>
<path fill="none" stroke="midnightblue" d="M77.2537,-116.362C83.4701,-108.35 92.1513,-97.1605 99.515,-87.6696"/>
<polygon fill="midnightblue" stroke="midnightblue" points="102.434,-89.617 105.799,-79.5707 96.9033,-85.326 102.434,-89.617"/>
</g>
<!-- Node4 -->
<g id="node7" class="node"><title>Node4</title>
<polygon fill="none" stroke="#bfbfbf" points="93.5,-0.5 93.5,-21.5 134.5,-21.5 134.5,-0.5 93.5,-0.5"/>
<text text-anchor="middle" x="114" y="-8.5" font-family="Helvetica,sans-Serif" font-size="10.00">string</text>
</g>
<!-- Node3&#45;&gt;Node4 -->
<g id="edge6" class="edge"><title>Node3&#45;&gt;Node4</title>
<path fill="none" stroke="midnightblue" d="M114,-58.3619C114,-50.9219 114,-40.7427 114,-31.7276"/>
<polygon fill="midnightblue" stroke="midnightblue" points="117.5,-31.5706 114,-21.5707 110.5,-31.5707 117.5,-31.5706"/>
</g>
</g>
</svg>
