<?xml version="1.0" encoding="UTF-8" standalone="no"?>
<!DOCTYPE svg PUBLIC "-//W3C//DTD SVG 1.1//EN"
 "http://www.w3.org/Graphics/SVG/1.1/DTD/svg11.dtd">
<!-- Generated by graphviz version 2.26.3 (20100126.1600)
 -->
<!-- Title: NumericEncoder::operator= Pages: 1 -->
<svg width="292pt" height="198pt"
 viewBox="0.00 0.00 292.00 198.00" xmlns="http://www.w3.org/2000/svg" xmlns:xlink="http://www.w3.org/1999/xlink">
<g id="graph1" class="graph" transform="scale(1 1) rotate(0) translate(4 194)">
<title>NumericEncoder::operator=</title>
<!-- Node1 -->
<g id="node1" class="node"><title>Node1</title>
<polygon fill="#bfbfbf" stroke="black" points="0.5,-84.5 0.5,-105.5 137.5,-105.5 137.5,-84.5 0.5,-84.5"/>
<text text-anchor="middle" x="69" y="-92.5" font-family="Helvetica,sans-Serif" font-size="10.00">NumericEncoder::operator=</text>
</g>
<!-- Node2 -->
<g id="node3" class="node"><title>Node2</title>
<a xlink:href="classNumericEncoder.html#a81b4d01eeb3c24debb06f473eb0e71b3" target="_top" xlink:title="NumericEncoder::get\l_factor">
<polygon fill="none" stroke="black" points="174.5,-156 174.5,-190 283.5,-190 283.5,-156 174.5,-156"/>
<text text-anchor="start" x="182.5" y="-177" font-family="Helvetica,sans-Serif" font-size="10.00">NumericEncoder::get</text>
<text text-anchor="middle" x="229" y="-164" font-family="Helvetica,sans-Serif" font-size="10.00">_factor</text>
</a>
</g>
<!-- Node1&#45;&gt;Node2 -->
<g id="edge2" class="edge"><title>Node1&#45;&gt;Node2</title>
<path fill="none" stroke="midnightblue" d="M90.2609,-105.671C111.432,-116.264 144.886,-132.911 174,-147 177.088,-148.495 180.278,-150.028 183.495,-151.568"/>
<polygon fill="midnightblue" stroke="midnightblue" points="182.033,-154.748 192.566,-155.891 185.045,-148.429 182.033,-154.748"/>
</g>
<!-- Node3 -->
<g id="node5" class="node"><title>Node3</title>
<a xlink:href="classNumericEncoder.html#ae19d475a0d15cca23998640ee035b238" target="_top" xlink:title="NumericEncoder::get\l_offset">
<polygon fill="none" stroke="black" points="174.5,-104 174.5,-138 283.5,-138 283.5,-104 174.5,-104"/>
<text text-anchor="start" x="182.5" y="-125" font-family="Helvetica,sans-Serif" font-size="10.00">NumericEncoder::get</text>
<text text-anchor="middle" x="229" y="-112" font-family="Helvetica,sans-Serif" font-size="10.00">_offset</text>
</a>
</g>
<!-- Node1&#45;&gt;Node3 -->
<g id="edge4" class="edge"><title>Node1&#45;&gt;Node3</title>
<path fill="none" stroke="midnightblue" d="M133.617,-105.5C143.764,-107.149 154.255,-108.854 164.402,-110.503"/>
<polygon fill="midnightblue" stroke="midnightblue" points="163.977,-113.98 174.409,-112.129 165.1,-107.07 163.977,-113.98"/>
</g>
<!-- Node4 -->
<g id="node7" class="node"><title>Node4</title>
<a xlink:href="classNumericEncoder.html#a6e4d1c201c00438cfcb05a5e8432e754" target="_top" xlink:title="NumericEncoder::set\l_factor">
<polygon fill="none" stroke="black" points="174.5,-52 174.5,-86 283.5,-86 283.5,-52 174.5,-52"/>
<text text-anchor="start" x="182.5" y="-73" font-family="Helvetica,sans-Serif" font-size="10.00">NumericEncoder::set</text>
<text text-anchor="middle" x="229" y="-60" font-family="Helvetica,sans-Serif" font-size="10.00">_factor</text>
</a>
</g>
<!-- Node1&#45;&gt;Node4 -->
<g id="edge6" class="edge"><title>Node1&#45;&gt;Node4</title>
<path fill="none" stroke="midnightblue" d="M133.617,-84.4997C143.764,-82.8508 154.255,-81.1461 164.402,-79.4972"/>
<polygon fill="midnightblue" stroke="midnightblue" points="165.1,-82.9298 174.409,-77.871 163.977,-76.0204 165.1,-82.9298"/>
</g>
<!-- Node5 -->
<g id="node9" class="node"><title>Node5</title>
<a xlink:href="classNumericEncoder.html#aed047690123c969323158c0a41be6892" target="_top" xlink:title="NumericEncoder::set\l_offset">
<polygon fill="none" stroke="black" points="174.5,-0 174.5,-34 283.5,-34 283.5,-0 174.5,-0"/>
<text text-anchor="start" x="182.5" y="-21" font-family="Helvetica,sans-Serif" font-size="10.00">NumericEncoder::set</text>
<text text-anchor="middle" x="229" y="-8" font-family="Helvetica,sans-Serif" font-size="10.00">_offset</text>
</a>
</g>
<!-- Node1&#45;&gt;Node5 -->
<g id="edge8" class="edge"><title>Node1&#45;&gt;Node5</title>
<path fill="none" stroke="midnightblue" d="M90.2609,-84.329C111.432,-73.7364 144.886,-57.0893 174,-43 177.088,-41.5055 180.278,-39.9716 183.495,-38.4324"/>
<polygon fill="midnightblue" stroke="midnightblue" points="185.045,-41.5709 192.566,-34.1089 182.033,-35.2519 185.045,-41.5709"/>
</g>
</g>
</svg>
