<?xml version="1.0" encoding="UTF-8" standalone="no"?>
<!DOCTYPE svg PUBLIC "-//W3C//DTD SVG 1.1//EN"
 "http://www.w3.org/Graphics/SVG/1.1/DTD/svg11.dtd">
<!-- Generated by graphviz version 2.26.3 (20100126.1600)
 -->
<!-- Title: G Pages: 1 -->
<svg width="242pt" height="70pt"
 viewBox="0.00 0.00 242.00 70.00" xmlns="http://www.w3.org/2000/svg" xmlns:xlink="http://www.w3.org/1999/xlink">
<g id="graph1" class="graph" transform="scale(1 1) rotate(0) translate(4 66)">
<title>G</title>
<!-- Node1 -->
<g id="node1" class="node"><title>Node1</title>
<polygon fill="#bfbfbf" stroke="black" points="0.5,-20.5 0.5,-41.5 95.5,-41.5 95.5,-20.5 0.5,-20.5"/>
<text text-anchor="middle" x="48" y="-28.5" font-family="Helvetica,sans-Serif" font-size="10.00">XDevice::get_unit</text>
</g>
<!-- Node2 -->
<g id="node3" class="node"><title>Node2</title>
<a xlink:href="classXDevice.html#af7a43e5e156a72b59e7b7330eedbd1dc" target="_top" xlink:title="Assignment&#45;Operator.">
<polygon fill="none" stroke="black" points="132.5,-40.5 132.5,-61.5 233.5,-61.5 233.5,-40.5 132.5,-40.5"/>
<text text-anchor="middle" x="183" y="-48.5" font-family="Helvetica,sans-Serif" font-size="10.00">XDevice::operator=</text>
</a>
</g>
<!-- Node1&#45;&gt;Node2 -->
<g id="edge2" class="edge"><title>Node1&#45;&gt;Node2</title>
<path fill="none" stroke="midnightblue" d="M105.764,-39.5577C114.545,-40.8586 123.551,-42.1927 132.17,-43.4696"/>
<polygon fill="midnightblue" stroke="midnightblue" points="106.001,-36.0546 95.5959,-38.0513 104.975,-42.979 106.001,-36.0546"/>
</g>
<!-- Node3 -->
<g id="node5" class="node"><title>Node3</title>
<a xlink:href="classXDevice.html#a83c8b30f041a5f1ea6d00ea75b7a5de1" target="_top" xlink:title="Copy&#45;Constructor.">
<polygon fill="none" stroke="black" points="134,-0.5 134,-21.5 232,-21.5 232,-0.5 134,-0.5"/>
<text text-anchor="middle" x="183" y="-8.5" font-family="Helvetica,sans-Serif" font-size="10.00">XDevice::XDevice</text>
</a>
</g>
<!-- Node1&#45;&gt;Node3 -->
<g id="edge4" class="edge"><title>Node1&#45;&gt;Node3</title>
<path fill="none" stroke="midnightblue" d="M105.566,-22.4717C114.88,-21.0919 124.451,-19.6739 133.55,-18.3259"/>
<polygon fill="midnightblue" stroke="midnightblue" points="104.975,-19.021 95.5959,-23.9487 106.001,-25.9454 104.975,-19.021"/>
</g>
</g>
</svg>
