<?xml version="1.0" encoding="UTF-8" standalone="no"?>
<!DOCTYPE svg PUBLIC "-//W3C//DTD SVG 1.1//EN"
 "http://www.w3.org/Graphics/SVG/1.1/DTD/svg11.dtd">
<!-- Generated by graphviz version 2.26.3 (20100126.1600)
 -->
<!-- Title: G Pages: 1 -->
<svg width="515pt" height="1010pt"
 viewBox="0.00 0.00 515.00 1010.00" xmlns="http://www.w3.org/2000/svg" xmlns:xlink="http://www.w3.org/1999/xlink">
<g id="graph1" class="graph" transform="scale(1 1) rotate(0) translate(4 1006)">
<title>G</title>
<!-- Node1 -->
<g id="node1" class="node"><title>Node1</title>
<polygon fill="#bfbfbf" stroke="black" points="80.5,-0.5 80.5,-167.5 155.5,-167.5 155.5,-0.5 80.5,-0.5"/>
<text text-anchor="middle" x="118" y="-154.5" font-family="Helvetica,sans-Serif" font-size="10.00">XDevice</text>
<polyline fill="none" stroke="black" points="80.5,-146.5 155.5,-146.5 "/>
<text text-anchor="start" x="88.5" y="-133.5" font-family="Helvetica,sans-Serif" font-size="10.00">&#45; _unit</text>
<polyline fill="none" stroke="black" points="80.5,-125.5 155.5,-125.5 "/>
<text text-anchor="start" x="88.5" y="-112.5" font-family="Helvetica,sans-Serif" font-size="10.00">+ get_unit()</text>
<text text-anchor="start" x="88.5" y="-99.5" font-family="Helvetica,sans-Serif" font-size="10.00">+ get_value()</text>
<text text-anchor="start" x="88.5" y="-86.5" font-family="Helvetica,sans-Serif" font-size="10.00">+ operator=()</text>
<text text-anchor="start" x="88.5" y="-73.5" font-family="Helvetica,sans-Serif" font-size="10.00">+ set_unit()</text>
<text text-anchor="start" x="88.5" y="-60.5" font-family="Helvetica,sans-Serif" font-size="10.00">+ set_value()</text>
<text text-anchor="start" x="88.5" y="-47.5" font-family="Helvetica,sans-Serif" font-size="10.00">+ XDevice()</text>
<text text-anchor="start" x="88.5" y="-34.5" font-family="Helvetica,sans-Serif" font-size="10.00">+ XDevice()</text>
<text text-anchor="start" x="88.5" y="-21.5" font-family="Helvetica,sans-Serif" font-size="10.00">+ XDevice()</text>
<text text-anchor="start" x="88.5" y="-8.5" font-family="Helvetica,sans-Serif" font-size="10.00">+ ~XDevice()</text>
</g>
<!-- Node2 -->
<g id="node2" class="node"><title>Node2</title>
<a xlink:href="classCharacterDevice.html" target="_top" xlink:title="Class CharacterDevice is a specialization of template class AbstractDevice. This class reads files of...">
<polygon fill="none" stroke="black" points="62.5,-239.5 62.5,-380.5 173.5,-380.5 173.5,-239.5 62.5,-239.5"/>
<text text-anchor="middle" x="118" y="-367.5" font-family="Helvetica,sans-Serif" font-size="10.00">CharacterDevice</text>
<polyline fill="none" stroke="black" points="62.5,-359.5 173.5,-359.5 "/>
<text text-anchor="start" x="70.5" y="-346.5" font-family="Helvetica,sans-Serif" font-size="10.00">&#45; _location</text>
<polyline fill="none" stroke="black" points="62.5,-338.5 173.5,-338.5 "/>
<text text-anchor="start" x="70.5" y="-325.5" font-family="Helvetica,sans-Serif" font-size="10.00">+ CharacterDevice()</text>
<text text-anchor="start" x="70.5" y="-312.5" font-family="Helvetica,sans-Serif" font-size="10.00">+ get_location()</text>
<text text-anchor="start" x="70.5" y="-299.5" font-family="Helvetica,sans-Serif" font-size="10.00">+ receive()</text>
<text text-anchor="start" x="70.5" y="-286.5" font-family="Helvetica,sans-Serif" font-size="10.00">+ send()</text>
<text text-anchor="start" x="70.5" y="-273.5" font-family="Helvetica,sans-Serif" font-size="10.00">+ set_location()</text>
<text text-anchor="start" x="70.5" y="-260.5" font-family="Helvetica,sans-Serif" font-size="10.00">+ ~CharacterDevice()</text>
<text text-anchor="start" x="70.5" y="-247.5" font-family="Helvetica,sans-Serif" font-size="10.00"># CharacterDevice()</text>
</a>
</g>
<!-- Node2&#45;&gt;Node1 -->
<g id="edge2" class="edge"><title>Node2&#45;&gt;Node1</title>
<path fill="none" stroke="midnightblue" d="M118,-229.383C118,-209.298 118,-187.723 118,-167.502"/>
<polygon fill="none" stroke="midnightblue" points="114.5,-229.422 118,-239.422 121.5,-229.422 114.5,-229.422"/>
</g>
<!-- Node3 -->
<g id="node4" class="node"><title>Node3</title>
<a xlink:href="classAbstractDevice.html" target="_top" xlink:title="{AbstractDevice\&lt; std::string \&gt;\n|# _identifier\l|+ AbstractDevice()\l+ get_identifier()\l+ receive()\l+ send()\l+ set_identifier()\l+ ~AbstractDevice()\l}">
<polygon fill="none" stroke="black" points="81,-477 81,-605 227,-605 227,-477 81,-477"/>
<text text-anchor="middle" x="154" y="-592" font-family="Helvetica,sans-Serif" font-size="10.00">AbstractDevice&lt; std::string &gt;</text>
<polyline fill="none" stroke="black" points="81,-584 227,-584 "/>
<text text-anchor="start" x="89" y="-571" font-family="Helvetica,sans-Serif" font-size="10.00"># _identifier</text>
<polyline fill="none" stroke="black" points="81,-563 227,-563 "/>
<text text-anchor="start" x="89" y="-550" font-family="Helvetica,sans-Serif" font-size="10.00">+ AbstractDevice()</text>
<text text-anchor="start" x="89" y="-537" font-family="Helvetica,sans-Serif" font-size="10.00">+ get_identifier()</text>
<text text-anchor="start" x="89" y="-524" font-family="Helvetica,sans-Serif" font-size="10.00">+ receive()</text>
<text text-anchor="start" x="89" y="-511" font-family="Helvetica,sans-Serif" font-size="10.00">+ send()</text>
<text text-anchor="start" x="89" y="-498" font-family="Helvetica,sans-Serif" font-size="10.00">+ set_identifier()</text>
<text text-anchor="start" x="89" y="-485" font-family="Helvetica,sans-Serif" font-size="10.00">+ ~AbstractDevice()</text>
</a>
</g>
<!-- Node3&#45;&gt;Node2 -->
<g id="edge4" class="edge"><title>Node3&#45;&gt;Node2</title>
<path fill="none" stroke="midnightblue" d="M142.46,-466.953C138.151,-439.303 133.272,-407.998 129.012,-380.661"/>
<polygon fill="none" stroke="midnightblue" points="139.022,-467.619 144.02,-476.96 145.938,-466.541 139.022,-467.619"/>
</g>
<!-- Node4 -->
<g id="node6" class="node"><title>Node4</title>
<a xlink:title="STL class.">
<polygon fill="none" stroke="#bfbfbf" points="49,-836.5 49,-899.5 109,-899.5 109,-836.5 49,-836.5"/>
<text text-anchor="middle" x="79" y="-886.5" font-family="Helvetica,sans-Serif" font-size="10.00">std::string</text>
<polyline fill="none" stroke="#bfbfbf" points="49,-878.5 109,-878.5 "/>
<text text-anchor="middle" x="79" y="-865.5" font-family="Helvetica,sans-Serif" font-size="10.00"> </text>
<polyline fill="none" stroke="#bfbfbf" points="49,-857.5 109,-857.5 "/>
<text text-anchor="middle" x="79" y="-844.5" font-family="Helvetica,sans-Serif" font-size="10.00"> </text>
</a>
</g>
<!-- Node4&#45;&gt;Node1 -->
<g id="edge24" class="edge"><title>Node4&#45;&gt;Node1</title>
<path fill="none" stroke="#404040" d="M50.2557,-836.456C27.6677,-808.318 0,-764.894 0,-721 0,-721 0,-721 0,-310 0,-244.366 39.5911,-178.94 72.9079,-135.503"/>
<polygon fill="none" stroke="#404040" points="72.9306,-135.474 73.4886,-128.285 80.3396,-126.034 79.7817,-133.224 72.9306,-135.474"/>
<text text-anchor="middle" x="12.5" y="-538.5" font-family="Helvetica,sans-Serif" font-size="10.00"> _unit</text>
</g>
<!-- Node4&#45;&gt;Node2 -->
<g id="edge14" class="edge"><title>Node4&#45;&gt;Node2</title>
<path fill="none" stroke="#404040" d="M75.1767,-836.305C67.8166,-769.378 53.9311,-608.868 72,-476 75.7736,-448.251 82.9415,-418.592 90.5155,-392.132"/>
<polygon fill="none" stroke="#404040" points="90.5169,-392.127 88.3677,-385.243 93.8949,-380.612 96.0442,-387.495 90.5169,-392.127"/>
<text text-anchor="middle" x="85.5" y="-628.5" font-family="Helvetica,sans-Serif" font-size="10.00"> _location</text>
</g>
<!-- Node4&#45;&gt;Node3 -->
<g id="edge6" class="edge"><title>Node4&#45;&gt;Node3</title>
<path fill="none" stroke="#404040" d="M82.5024,-836.402C87.5166,-794.67 97.9471,-719.085 114,-656 117.253,-643.217 121.296,-629.834 125.552,-616.902"/>
<polygon fill="none" stroke="#404040" points="125.669,-616.553 123.796,-609.59 129.503,-605.182 131.376,-612.146 125.669,-616.553"/>
<text text-anchor="middle" x="137" y="-718.5" font-family="Helvetica,sans-Serif" font-size="10.00"> _identifier</text>
</g>
<!-- Node6 -->
<g id="node10" class="node"><title>Node6</title>
<a xlink:href="classAbstractDevice.html" target="_top" xlink:title="(semi)Polymorph Class representing connected devices. This class represents devices that are conneted...">
<polygon fill="none" stroke="black" points="169,-657 169,-785 277,-785 277,-657 169,-657"/>
<text text-anchor="middle" x="223" y="-772" font-family="Helvetica,sans-Serif" font-size="10.00">AbstractDevice&lt; T &gt;</text>
<polyline fill="none" stroke="black" points="169,-764 277,-764 "/>
<text text-anchor="start" x="177" y="-751" font-family="Helvetica,sans-Serif" font-size="10.00"># _identifier</text>
<polyline fill="none" stroke="black" points="169,-743 277,-743 "/>
<text text-anchor="start" x="177" y="-730" font-family="Helvetica,sans-Serif" font-size="10.00">+ AbstractDevice()</text>
<text text-anchor="start" x="177" y="-717" font-family="Helvetica,sans-Serif" font-size="10.00">+ get_identifier()</text>
<text text-anchor="start" x="177" y="-704" font-family="Helvetica,sans-Serif" font-size="10.00">+ receive()</text>
<text text-anchor="start" x="177" y="-691" font-family="Helvetica,sans-Serif" font-size="10.00">+ send()</text>
<text text-anchor="start" x="177" y="-678" font-family="Helvetica,sans-Serif" font-size="10.00">+ set_identifier()</text>
<text text-anchor="start" x="177" y="-665" font-family="Helvetica,sans-Serif" font-size="10.00">+ ~AbstractDevice()</text>
</a>
</g>
<!-- Node4&#45;&gt;Node6 -->
<g id="edge12" class="edge"><title>Node4&#45;&gt;Node6</title>
<path fill="none" stroke="#404040" d="M109.187,-837.184C124.071,-821.99 142.602,-803.073 160.361,-784.944"/>
<polygon fill="none" stroke="#404040" points="160.6,-784.7 161.941,-777.615 168.997,-776.128 167.656,-783.213 160.6,-784.7"/>
<text text-anchor="middle" x="162" y="-808.5" font-family="Helvetica,sans-Serif" font-size="10.00"> _identifier</text>
</g>
<!-- Node5 -->
<g id="node8" class="node"><title>Node5</title>
<a xlink:title="STL class.">
<polygon fill="none" stroke="#bfbfbf" points="16.5,-938.5 16.5,-1001.5 141.5,-1001.5 141.5,-938.5 16.5,-938.5"/>
<text text-anchor="middle" x="79" y="-988.5" font-family="Helvetica,sans-Serif" font-size="10.00">std::basic_string&lt; char &gt;</text>
<polyline fill="none" stroke="#bfbfbf" points="16.5,-980.5 141.5,-980.5 "/>
<text text-anchor="middle" x="79" y="-967.5" font-family="Helvetica,sans-Serif" font-size="10.00"> </text>
<polyline fill="none" stroke="#bfbfbf" points="16.5,-959.5 141.5,-959.5 "/>
<text text-anchor="middle" x="79" y="-946.5" font-family="Helvetica,sans-Serif" font-size="10.00"> </text>
</a>
</g>
<!-- Node5&#45;&gt;Node4 -->
<g id="edge8" class="edge"><title>Node5&#45;&gt;Node4</title>
<path fill="none" stroke="midnightblue" d="M79,-928.194C79,-918.674 79,-908.712 79,-899.695"/>
<polygon fill="none" stroke="midnightblue" points="75.5001,-928.286 79,-938.286 82.5001,-928.286 75.5001,-928.286"/>
</g>
<!-- Node6&#45;&gt;Node3 -->
<g id="edge10" class="edge"><title>Node6&#45;&gt;Node3</title>
<path fill="none" stroke="orange" d="M194.722,-647.231C189.378,-633.291 183.828,-618.813 178.609,-605.197"/>
<polygon fill="orange" stroke="orange" points="191.534,-648.694 198.382,-656.778 198.07,-646.188 191.534,-648.694"/>
<text text-anchor="middle" x="223.5" y="-628.5" font-family="Helvetica,sans-Serif" font-size="10.00"> &lt; std::string &gt;</text>
</g>
<!-- Node7 -->
<g id="node14" class="node"><title>Node7</title>
<a xlink:href="classNumericEncoder.html" target="_top" xlink:title="{NumericEncoder\n|&#45; _factor\l&#45; _offset\l|+ decode()\l+ encode()\l+ get_factor()\l+ get_offset()\l+ NumericEncoder()\l+ NumericEncoder()\l+ NumericEncoder()\l+ operator=()\l+ set_factor()\l+ set_offset()\l+ ~NumericEncoder()\l}">
<polygon fill="none" stroke="black" points="298,-207 298,-413 408,-413 408,-207 298,-207"/>
<text text-anchor="middle" x="353" y="-400" font-family="Helvetica,sans-Serif" font-size="10.00">NumericEncoder</text>
<polyline fill="none" stroke="black" points="298,-392 408,-392 "/>
<text text-anchor="start" x="306" y="-379" font-family="Helvetica,sans-Serif" font-size="10.00">&#45; _factor</text>
<text text-anchor="start" x="306" y="-366" font-family="Helvetica,sans-Serif" font-size="10.00">&#45; _offset</text>
<polyline fill="none" stroke="black" points="298,-358 408,-358 "/>
<text text-anchor="start" x="306" y="-345" font-family="Helvetica,sans-Serif" font-size="10.00">+ decode()</text>
<text text-anchor="start" x="306" y="-332" font-family="Helvetica,sans-Serif" font-size="10.00">+ encode()</text>
<text text-anchor="start" x="306" y="-319" font-family="Helvetica,sans-Serif" font-size="10.00">+ get_factor()</text>
<text text-anchor="start" x="306" y="-306" font-family="Helvetica,sans-Serif" font-size="10.00">+ get_offset()</text>
<text text-anchor="start" x="306" y="-293" font-family="Helvetica,sans-Serif" font-size="10.00">+ NumericEncoder()</text>
<text text-anchor="start" x="306" y="-280" font-family="Helvetica,sans-Serif" font-size="10.00">+ NumericEncoder()</text>
<text text-anchor="start" x="306" y="-267" font-family="Helvetica,sans-Serif" font-size="10.00">+ NumericEncoder()</text>
<text text-anchor="start" x="306" y="-254" font-family="Helvetica,sans-Serif" font-size="10.00">+ operator=()</text>
<text text-anchor="start" x="306" y="-241" font-family="Helvetica,sans-Serif" font-size="10.00">+ set_factor()</text>
<text text-anchor="start" x="306" y="-228" font-family="Helvetica,sans-Serif" font-size="10.00">+ set_offset()</text>
<text text-anchor="start" x="306" y="-215" font-family="Helvetica,sans-Serif" font-size="10.00">+ ~NumericEncoder()</text>
</a>
</g>
<!-- Node7&#45;&gt;Node1 -->
<g id="edge16" class="edge"><title>Node7&#45;&gt;Node1</title>
<path fill="none" stroke="midnightblue" d="M290.574,-249.965C247.572,-208.61 191.853,-155.024 155.532,-120.094"/>
<polygon fill="none" stroke="midnightblue" points="288.269,-252.604 297.903,-257.013 293.121,-247.559 288.269,-252.604"/>
</g>
<!-- Node8 -->
<g id="node16" class="node"><title>Node8</title>
<a xlink:href="classAbstractEncoder.html" target="_top" xlink:title="{AbstractEncoder\&lt; std::string, double \&gt;\n||+ decode()\l+ encode()\l}">
<polygon fill="none" stroke="black" points="260.5,-503 260.5,-579 445.5,-579 445.5,-503 260.5,-503"/>
<text text-anchor="middle" x="353" y="-566" font-family="Helvetica,sans-Serif" font-size="10.00">AbstractEncoder&lt; std::string, double &gt;</text>
<polyline fill="none" stroke="black" points="260.5,-558 445.5,-558 "/>
<text text-anchor="middle" x="353" y="-545" font-family="Helvetica,sans-Serif" font-size="10.00"> </text>
<polyline fill="none" stroke="black" points="260.5,-537 445.5,-537 "/>
<text text-anchor="start" x="268.5" y="-524" font-family="Helvetica,sans-Serif" font-size="10.00">+ decode()</text>
<text text-anchor="start" x="268.5" y="-511" font-family="Helvetica,sans-Serif" font-size="10.00">+ encode()</text>
</a>
</g>
<!-- Node8&#45;&gt;Node7 -->
<g id="edge18" class="edge"><title>Node8&#45;&gt;Node7</title>
<path fill="none" stroke="#8b1a1a" d="M353,-492.617C353,-469.436 353,-440.733 353,-413.002"/>
<polygon fill="none" stroke="#8b1a1a" points="349.5,-492.855 353,-502.855 356.5,-492.855 349.5,-492.855"/>
</g>
<!-- Node9 -->
<g id="node18" class="node"><title>Node9</title>
<a xlink:href="classAbstractEncoder.html" target="_top" xlink:title="{AbstractEncoder\&lt; T1, T2 \&gt;\n||+ decode()\l+ encode()\l}">
<polygon fill="none" stroke="black" points="295,-683 295,-759 431,-759 431,-683 295,-683"/>
<text text-anchor="middle" x="363" y="-746" font-family="Helvetica,sans-Serif" font-size="10.00">AbstractEncoder&lt; T1, T2 &gt;</text>
<polyline fill="none" stroke="black" points="295,-738 431,-738 "/>
<text text-anchor="middle" x="363" y="-725" font-family="Helvetica,sans-Serif" font-size="10.00"> </text>
<polyline fill="none" stroke="black" points="295,-717 431,-717 "/>
<text text-anchor="start" x="303" y="-704" font-family="Helvetica,sans-Serif" font-size="10.00">+ decode()</text>
<text text-anchor="start" x="303" y="-691" font-family="Helvetica,sans-Serif" font-size="10.00">+ encode()</text>
</a>
</g>
<!-- Node9&#45;&gt;Node8 -->
<g id="edge20" class="edge"><title>Node9&#45;&gt;Node8</title>
<path fill="none" stroke="orange" d="M360.321,-672.787C358.69,-643.422 356.635,-606.43 355.118,-579.118"/>
<polygon fill="orange" stroke="orange" points="356.83,-673.036 360.879,-682.827 363.819,-672.648 356.83,-673.036"/>
<text text-anchor="middle" x="409" y="-628.5" font-family="Helvetica,sans-Serif" font-size="10.00"> &lt; std::string, double &gt;</text>
</g>
<!-- Node10 -->
<g id="node20" class="node"><title>Node10</title>
<polygon fill="none" stroke="#bfbfbf" points="462.5,-509.5 462.5,-572.5 507.5,-572.5 507.5,-509.5 462.5,-509.5"/>
<text text-anchor="middle" x="485" y="-559.5" font-family="Helvetica,sans-Serif" font-size="10.00">double</text>
<polyline fill="none" stroke="#bfbfbf" points="462.5,-551.5 507.5,-551.5 "/>
<text text-anchor="middle" x="485" y="-538.5" font-family="Helvetica,sans-Serif" font-size="10.00"> </text>
<polyline fill="none" stroke="#bfbfbf" points="462.5,-530.5 507.5,-530.5 "/>
<text text-anchor="middle" x="485" y="-517.5" font-family="Helvetica,sans-Serif" font-size="10.00"> </text>
</g>
<!-- Node10&#45;&gt;Node7 -->
<g id="edge22" class="edge"><title>Node10&#45;&gt;Node7</title>
<path fill="none" stroke="#404040" d="M470.656,-509.269C465.617,-498.582 459.769,-486.667 454,-476 441.808,-453.458 427.957,-429.677 414.507,-407.376"/>
<polygon fill="none" stroke="#404040" points="414.378,-407.164 407.846,-404.108 408.154,-396.904 414.686,-399.959 414.378,-407.164"/>
<text text-anchor="middle" x="460" y="-449" font-family="Helvetica,sans-Serif" font-size="10.00"> _factor</text>
<text text-anchor="middle" x="460" y="-436" font-family="Helvetica,sans-Serif" font-size="10.00">_offset</text>
</g>
</g>
</svg>
