<?xml version="1.0" encoding="UTF-8" standalone="no"?>
<!DOCTYPE svg PUBLIC "-//W3C//DTD SVG 1.1//EN"
 "http://www.w3.org/Graphics/SVG/1.1/DTD/svg11.dtd">
<!-- Generated by graphviz version 2.26.3 (20100126.1600)
 -->
<!-- Title: G Pages: 1 -->
<svg width="348pt" height="50pt"
 viewBox="0.00 0.00 348.00 50.00" xmlns="http://www.w3.org/2000/svg" xmlns:xlink="http://www.w3.org/1999/xlink">
<g id="graph1" class="graph" transform="scale(1 1) rotate(0) translate(4 46)">
<title>G</title>
<!-- Node1 -->
<g id="node1" class="node"><title>Node1</title>
<polygon fill="#bfbfbf" stroke="black" points="0,-0.5 0,-21.5 128,-21.5 128,-0.5 0,-0.5"/>
<text text-anchor="middle" x="64" y="-8.5" font-family="Helvetica,sans-Serif" font-size="10.00">CharacterDevice::receive</text>
</g>
<!-- Node2 -->
<g id="node3" class="node"><title>Node2</title>
<a xlink:href="classXDevice.html#aaea5d2257cf085429c5055313c83ab4b" target="_top" xlink:title="XDevice::get_value">
<polygon fill="none" stroke="black" points="164,-20.5 164,-41.5 266,-41.5 266,-20.5 164,-20.5"/>
<text text-anchor="middle" x="215" y="-28.5" font-family="Helvetica,sans-Serif" font-size="10.00">XDevice::get_value</text>
</a>
</g>
<!-- Node1&#45;&gt;Node2 -->
<g id="edge2" class="edge"><title>Node1&#45;&gt;Node2</title>
<path fill="none" stroke="midnightblue" d="M138.14,-20.8199C146.779,-21.9641 155.441,-23.1114 163.674,-24.2019"/>
<polygon fill="midnightblue" stroke="midnightblue" points="138.411,-17.3252 128.038,-19.4818 137.491,-24.2646 138.411,-17.3252"/>
</g>
<!-- Node3 -->
<g id="node5" class="node"><title>Node3</title>
<a xlink:href="main_8h.html#a3c04138a5bfe5d72780bb7e82a18e627" target="_top" xlink:title="Main function / Program entry point. (For testing purposes)">
<polygon fill="none" stroke="black" points="302,-0.5 302,-21.5 340,-21.5 340,-0.5 302,-0.5"/>
<text text-anchor="middle" x="321" y="-8.5" font-family="Helvetica,sans-Serif" font-size="10.00">main</text>
</a>
</g>
<!-- Node1&#45;&gt;Node3 -->
<g id="edge6" class="edge"><title>Node1&#45;&gt;Node3</title>
<path fill="none" stroke="midnightblue" d="M138.474,-11C194.674,-11 267.731,-11 301.861,-11"/>
<polygon fill="midnightblue" stroke="midnightblue" points="138.189,-7.5001 128.189,-11 138.189,-14.5001 138.189,-7.5001"/>
</g>
<!-- Node2&#45;&gt;Node3 -->
<g id="edge4" class="edge"><title>Node2&#45;&gt;Node3</title>
<path fill="none" stroke="midnightblue" d="M276.238,-19.4457C285.473,-17.7033 294.366,-16.0253 301.758,-14.6305"/>
<polygon fill="midnightblue" stroke="midnightblue" points="275.315,-16.058 266.137,-21.3515 276.613,-22.9367 275.315,-16.058"/>
</g>
</g>
</svg>
