<?xml version="1.0" encoding="UTF-8" standalone="no"?>
<!DOCTYPE svg PUBLIC "-//W3C//DTD SVG 1.1//EN"
 "http://www.w3.org/Graphics/SVG/1.1/DTD/svg11.dtd">
<!-- Generated by graphviz version 2.26.3 (20100126.1600)
 -->
<!-- Title: CharacterDevice Pages: 1 -->
<svg width="267pt" height="740pt"
 viewBox="0.00 0.00 267.00 740.00" xmlns="http://www.w3.org/2000/svg" xmlns:xlink="http://www.w3.org/1999/xlink">
<g id="graph1" class="graph" transform="scale(1 1) rotate(0) translate(4 736)">
<title>CharacterDevice</title>
<!-- Node1 -->
<g id="node1" class="node"><title>Node1</title>
<polygon fill="#bfbfbf" stroke="black" points="-0.5,-0.5 -0.5,-141.5 110.5,-141.5 110.5,-0.5 -0.5,-0.5"/>
<text text-anchor="middle" x="55" y="-128.5" font-family="Helvetica,sans-Serif" font-size="10.00">CharacterDevice</text>
<polyline fill="none" stroke="black" points="-0.5,-120.5 110.5,-120.5 "/>
<text text-anchor="middle" x="55" y="-107.5" font-family="Helvetica,sans-Serif" font-size="10.00"> </text>
<polyline fill="none" stroke="black" points="-0.5,-99.5 110.5,-99.5 "/>
<text text-anchor="start" x="7.5" y="-86.5" font-family="Helvetica,sans-Serif" font-size="10.00">+ CharacterDevice()</text>
<text text-anchor="start" x="7.5" y="-73.5" font-family="Helvetica,sans-Serif" font-size="10.00">+ get_location()</text>
<text text-anchor="start" x="7.5" y="-60.5" font-family="Helvetica,sans-Serif" font-size="10.00">+ receive()</text>
<text text-anchor="start" x="7.5" y="-47.5" font-family="Helvetica,sans-Serif" font-size="10.00">+ send()</text>
<text text-anchor="start" x="7.5" y="-34.5" font-family="Helvetica,sans-Serif" font-size="10.00">+ set_location()</text>
<text text-anchor="start" x="7.5" y="-21.5" font-family="Helvetica,sans-Serif" font-size="10.00">+ ~CharacterDevice()</text>
<text text-anchor="start" x="7.5" y="-8.5" font-family="Helvetica,sans-Serif" font-size="10.00"># CharacterDevice()</text>
</g>
<!-- Node2 -->
<g id="node2" class="node"><title>Node2</title>
<a xlink:href="classAbstractDevice.html" target="_top" xlink:title="{AbstractDevice\&lt; std\l::string \&gt;\n||+ AbstractDevice()\l+ get_identifier()\l+ receive()\l+ send()\l+ set_identifier()\l+ ~AbstractDevice()\l}">
<polygon fill="none" stroke="black" points="56.5,-180.5 56.5,-321.5 163.5,-321.5 163.5,-180.5 56.5,-180.5"/>
<text text-anchor="start" x="64.5" y="-308.5" font-family="Helvetica,sans-Serif" font-size="10.00">AbstractDevice&lt; std</text>
<text text-anchor="middle" x="110" y="-295.5" font-family="Helvetica,sans-Serif" font-size="10.00">::string &gt;</text>
<polyline fill="none" stroke="black" points="56.5,-287.5 163.5,-287.5 "/>
<text text-anchor="middle" x="110" y="-274.5" font-family="Helvetica,sans-Serif" font-size="10.00"> </text>
<polyline fill="none" stroke="black" points="56.5,-266.5 163.5,-266.5 "/>
<text text-anchor="start" x="64.5" y="-253.5" font-family="Helvetica,sans-Serif" font-size="10.00">+ AbstractDevice()</text>
<text text-anchor="start" x="64.5" y="-240.5" font-family="Helvetica,sans-Serif" font-size="10.00">+ get_identifier()</text>
<text text-anchor="start" x="64.5" y="-227.5" font-family="Helvetica,sans-Serif" font-size="10.00">+ receive()</text>
<text text-anchor="start" x="64.5" y="-214.5" font-family="Helvetica,sans-Serif" font-size="10.00">+ send()</text>
<text text-anchor="start" x="64.5" y="-201.5" font-family="Helvetica,sans-Serif" font-size="10.00">+ set_identifier()</text>
<text text-anchor="start" x="64.5" y="-188.5" font-family="Helvetica,sans-Serif" font-size="10.00">+ ~AbstractDevice()</text>
</a>
</g>
<!-- Node2&#45;&gt;Node1 -->
<g id="edge2" class="edge"><title>Node2&#45;&gt;Node1</title>
<path fill="none" stroke="midnightblue" d="M85.4829,-170.762C82.5247,-161.081 79.5199,-151.247 76.6076,-141.716"/>
<polygon fill="none" stroke="midnightblue" points="82.1509,-171.835 88.4204,-180.376 88.8454,-169.79 82.1509,-171.835"/>
</g>
<!-- Node3 -->
<g id="node4" class="node"><title>Node3</title>
<a xlink:title="STL class.">
<polygon fill="none" stroke="#bfbfbf" points="57,-552.5 57,-615.5 117,-615.5 117,-552.5 57,-552.5"/>
<text text-anchor="middle" x="87" y="-602.5" font-family="Helvetica,sans-Serif" font-size="10.00">std::string</text>
<polyline fill="none" stroke="#bfbfbf" points="57,-594.5 117,-594.5 "/>
<text text-anchor="middle" x="87" y="-581.5" font-family="Helvetica,sans-Serif" font-size="10.00"> </text>
<polyline fill="none" stroke="#bfbfbf" points="57,-573.5 117,-573.5 "/>
<text text-anchor="middle" x="87" y="-560.5" font-family="Helvetica,sans-Serif" font-size="10.00"> </text>
</a>
</g>
<!-- Node3&#45;&gt;Node1 -->
<g id="edge12" class="edge"><title>Node3&#45;&gt;Node1</title>
<path fill="none" stroke="#404040" d="M79.8491,-552.355C69.3241,-503.321 50.6189,-405.886 48,-322 46.0307,-258.92 45.9766,-243.079 48,-180 48.2738,-171.465 48.6678,-162.56 49.1314,-153.68"/>
<polygon fill="none" stroke="#404040" points="49.1355,-153.603 45.4748,-147.391 49.8018,-141.622 53.4625,-147.835 49.1355,-153.603"/>
<text text-anchor="middle" x="71.5" y="-344.5" font-family="Helvetica,sans-Serif" font-size="10.00"> _location</text>
</g>
<!-- Node3&#45;&gt;Node2 -->
<g id="edge4" class="edge"><title>Node3&#45;&gt;Node2</title>
<path fill="none" stroke="#404040" d="M87.6254,-552.349C88.6094,-510.875 90.9536,-435.9 96,-372 96.9778,-359.619 98.2438,-346.55 99.6143,-333.761"/>
<polygon fill="none" stroke="#404040" points="99.6381,-333.544 96.3203,-327.141 100.954,-321.616 104.272,-328.019 99.6381,-333.544"/>
<text text-anchor="middle" x="119" y="-434.5" font-family="Helvetica,sans-Serif" font-size="10.00"> _identifier</text>
</g>
<!-- Node5 -->
<g id="node8" class="node"><title>Node5</title>
<a xlink:href="classAbstractDevice.html" target="_top" xlink:title="(semi)Polymorph Class representing connected devices. This class represents devices that are conneted...">
<polygon fill="none" stroke="black" points="151,-373 151,-501 259,-501 259,-373 151,-373"/>
<text text-anchor="middle" x="205" y="-488" font-family="Helvetica,sans-Serif" font-size="10.00">AbstractDevice&lt; T &gt;</text>
<polyline fill="none" stroke="black" points="151,-480 259,-480 "/>
<text text-anchor="middle" x="205" y="-467" font-family="Helvetica,sans-Serif" font-size="10.00"> </text>
<polyline fill="none" stroke="black" points="151,-459 259,-459 "/>
<text text-anchor="start" x="159" y="-446" font-family="Helvetica,sans-Serif" font-size="10.00">+ AbstractDevice()</text>
<text text-anchor="start" x="159" y="-433" font-family="Helvetica,sans-Serif" font-size="10.00">+ get_identifier()</text>
<text text-anchor="start" x="159" y="-420" font-family="Helvetica,sans-Serif" font-size="10.00">+ receive()</text>
<text text-anchor="start" x="159" y="-407" font-family="Helvetica,sans-Serif" font-size="10.00">+ send()</text>
<text text-anchor="start" x="159" y="-394" font-family="Helvetica,sans-Serif" font-size="10.00">+ set_identifier()</text>
<text text-anchor="start" x="159" y="-381" font-family="Helvetica,sans-Serif" font-size="10.00">+ ~AbstractDevice()</text>
</a>
</g>
<!-- Node3&#45;&gt;Node5 -->
<g id="edge10" class="edge"><title>Node3&#45;&gt;Node5</title>
<path fill="none" stroke="#404040" d="M112.314,-552.465C122.202,-540.147 133.989,-525.463 145.786,-510.766"/>
<polygon fill="none" stroke="#404040" points="146.009,-510.489 146.646,-503.306 153.521,-501.131 152.884,-508.314 146.009,-510.489"/>
<text text-anchor="middle" x="158" y="-524.5" font-family="Helvetica,sans-Serif" font-size="10.00"> _identifier</text>
</g>
<!-- Node4 -->
<g id="node6" class="node"><title>Node4</title>
<a xlink:title="STL class.">
<polygon fill="none" stroke="#bfbfbf" points="39.5,-655 39.5,-731 134.5,-731 134.5,-655 39.5,-655"/>
<text text-anchor="start" x="47.5" y="-718" font-family="Helvetica,sans-Serif" font-size="10.00">std::basic_string&lt;</text>
<text text-anchor="middle" x="87" y="-705" font-family="Helvetica,sans-Serif" font-size="10.00"> char &gt;</text>
<polyline fill="none" stroke="#bfbfbf" points="39.5,-697 134.5,-697 "/>
<text text-anchor="middle" x="87" y="-684" font-family="Helvetica,sans-Serif" font-size="10.00"> </text>
<polyline fill="none" stroke="#bfbfbf" points="39.5,-676 134.5,-676 "/>
<text text-anchor="middle" x="87" y="-663" font-family="Helvetica,sans-Serif" font-size="10.00"> </text>
</a>
</g>
<!-- Node4&#45;&gt;Node3 -->
<g id="edge6" class="edge"><title>Node4&#45;&gt;Node3</title>
<path fill="none" stroke="midnightblue" d="M87,-644.792C87,-634.965 87,-624.862 87,-615.784"/>
<polygon fill="none" stroke="midnightblue" points="83.5001,-644.877 87,-654.877 90.5001,-644.877 83.5001,-644.877"/>
</g>
<!-- Node5&#45;&gt;Node2 -->
<g id="edge8" class="edge"><title>Node5&#45;&gt;Node2</title>
<path fill="none" stroke="orange" d="M167.704,-363.979C160.62,-350.109 153.219,-335.618 146.171,-321.818"/>
<polygon fill="orange" stroke="orange" points="164.641,-365.676 172.306,-372.989 170.875,-362.492 164.641,-365.676"/>
<text text-anchor="middle" x="192.5" y="-344.5" font-family="Helvetica,sans-Serif" font-size="10.00"> &lt; std::string &gt;</text>
</g>
</g>
</svg>
