<?xml version="1.0" encoding="UTF-8" standalone="no"?>
<!DOCTYPE svg PUBLIC "-//W3C//DTD SVG 1.1//EN"
 "http://www.w3.org/Graphics/SVG/1.1/DTD/svg11.dtd">
<!-- Generated by graphviz version 2.26.3 (20100126.1600)
 -->
<!-- Title: XDevice Pages: 1 -->
<svg width="291pt" height="782pt"
 viewBox="0.00 0.00 291.00 782.00" xmlns="http://www.w3.org/2000/svg" xmlns:xlink="http://www.w3.org/1999/xlink">
<g id="graph1" class="graph" transform="scale(1 1) rotate(0) translate(4 778)">
<title>XDevice</title>
<!-- Node1 -->
<g id="node1" class="node"><title>Node1</title>
<polygon fill="#bfbfbf" stroke="black" points="93.5,-0.5 93.5,-167.5 168.5,-167.5 168.5,-0.5 93.5,-0.5"/>
<text text-anchor="middle" x="131" y="-154.5" font-family="Helvetica,sans-Serif" font-size="10.00">XDevice</text>
<polyline fill="none" stroke="black" points="93.5,-146.5 168.5,-146.5 "/>
<text text-anchor="start" x="101.5" y="-133.5" font-family="Helvetica,sans-Serif" font-size="10.00">&#45; _unit</text>
<polyline fill="none" stroke="black" points="93.5,-125.5 168.5,-125.5 "/>
<text text-anchor="start" x="101.5" y="-112.5" font-family="Helvetica,sans-Serif" font-size="10.00">+ get_unit()</text>
<text text-anchor="start" x="101.5" y="-99.5" font-family="Helvetica,sans-Serif" font-size="10.00">+ get_value()</text>
<text text-anchor="start" x="101.5" y="-86.5" font-family="Helvetica,sans-Serif" font-size="10.00">+ operator=()</text>
<text text-anchor="start" x="101.5" y="-73.5" font-family="Helvetica,sans-Serif" font-size="10.00">+ set_unit()</text>
<text text-anchor="start" x="101.5" y="-60.5" font-family="Helvetica,sans-Serif" font-size="10.00">+ set_value()</text>
<text text-anchor="start" x="101.5" y="-47.5" font-family="Helvetica,sans-Serif" font-size="10.00">+ XDevice()</text>
<text text-anchor="start" x="101.5" y="-34.5" font-family="Helvetica,sans-Serif" font-size="10.00">+ XDevice()</text>
<text text-anchor="start" x="101.5" y="-21.5" font-family="Helvetica,sans-Serif" font-size="10.00">+ XDevice()</text>
<text text-anchor="start" x="101.5" y="-8.5" font-family="Helvetica,sans-Serif" font-size="10.00">+ ~XDevice()</text>
</g>
<!-- Node2 -->
<g id="node2" class="node"><title>Node2</title>
<a xlink:href="classCharacterDevice.html" target="_top" xlink:title="Class CharacterDevice is a specialization of template class AbstractDevice. This class reads files of...">
<polygon fill="none" stroke="black" points="-0.5,-239.5 -0.5,-380.5 110.5,-380.5 110.5,-239.5 -0.5,-239.5"/>
<text text-anchor="middle" x="55" y="-367.5" font-family="Helvetica,sans-Serif" font-size="10.00">CharacterDevice</text>
<polyline fill="none" stroke="black" points="-0.5,-359.5 110.5,-359.5 "/>
<text text-anchor="start" x="7.5" y="-346.5" font-family="Helvetica,sans-Serif" font-size="10.00">&#45; _location</text>
<polyline fill="none" stroke="black" points="-0.5,-338.5 110.5,-338.5 "/>
<text text-anchor="start" x="7.5" y="-325.5" font-family="Helvetica,sans-Serif" font-size="10.00">+ CharacterDevice()</text>
<text text-anchor="start" x="7.5" y="-312.5" font-family="Helvetica,sans-Serif" font-size="10.00">+ get_location()</text>
<text text-anchor="start" x="7.5" y="-299.5" font-family="Helvetica,sans-Serif" font-size="10.00">+ receive()</text>
<text text-anchor="start" x="7.5" y="-286.5" font-family="Helvetica,sans-Serif" font-size="10.00">+ send()</text>
<text text-anchor="start" x="7.5" y="-273.5" font-family="Helvetica,sans-Serif" font-size="10.00">+ set_location()</text>
<text text-anchor="start" x="7.5" y="-260.5" font-family="Helvetica,sans-Serif" font-size="10.00">+ ~CharacterDevice()</text>
<text text-anchor="start" x="7.5" y="-247.5" font-family="Helvetica,sans-Serif" font-size="10.00"># CharacterDevice()</text>
</a>
</g>
<!-- Node2&#45;&gt;Node1 -->
<g id="edge2" class="edge"><title>Node2&#45;&gt;Node1</title>
<path fill="none" stroke="midnightblue" d="M81.9252,-229.933C88.7317,-209.693 96.0577,-187.907 102.92,-167.502"/>
<polygon fill="none" stroke="midnightblue" points="78.6043,-228.828 78.7343,-239.422 85.2392,-231.059 78.6043,-228.828"/>
</g>
<!-- Node3 -->
<g id="node4" class="node"><title>Node3</title>
<a xlink:href="classAbstractDevice.html" target="_top" xlink:title="{AbstractDevice\&lt; std\l::string \&gt;\n|# _identifier\l|+ AbstractDevice()\l+ get_identifier()\l+ receive()\l+ send()\l+ set_identifier()\l+ ~AbstractDevice()\l}">
<polygon fill="none" stroke="black" points="1.5,-452.5 1.5,-593.5 108.5,-593.5 108.5,-452.5 1.5,-452.5"/>
<text text-anchor="start" x="9.5" y="-580.5" font-family="Helvetica,sans-Serif" font-size="10.00">AbstractDevice&lt; std</text>
<text text-anchor="middle" x="55" y="-567.5" font-family="Helvetica,sans-Serif" font-size="10.00">::string &gt;</text>
<polyline fill="none" stroke="black" points="1.5,-559.5 108.5,-559.5 "/>
<text text-anchor="start" x="9.5" y="-546.5" font-family="Helvetica,sans-Serif" font-size="10.00"># _identifier</text>
<polyline fill="none" stroke="black" points="1.5,-538.5 108.5,-538.5 "/>
<text text-anchor="start" x="9.5" y="-525.5" font-family="Helvetica,sans-Serif" font-size="10.00">+ AbstractDevice()</text>
<text text-anchor="start" x="9.5" y="-512.5" font-family="Helvetica,sans-Serif" font-size="10.00">+ get_identifier()</text>
<text text-anchor="start" x="9.5" y="-499.5" font-family="Helvetica,sans-Serif" font-size="10.00">+ receive()</text>
<text text-anchor="start" x="9.5" y="-486.5" font-family="Helvetica,sans-Serif" font-size="10.00">+ send()</text>
<text text-anchor="start" x="9.5" y="-473.5" font-family="Helvetica,sans-Serif" font-size="10.00">+ set_identifier()</text>
<text text-anchor="start" x="9.5" y="-460.5" font-family="Helvetica,sans-Serif" font-size="10.00">+ ~AbstractDevice()</text>
</a>
</g>
<!-- Node3&#45;&gt;Node2 -->
<g id="edge4" class="edge"><title>Node3&#45;&gt;Node2</title>
<path fill="none" stroke="midnightblue" d="M55,-442.25C55,-422.032 55,-400.496 55,-380.802"/>
<polygon fill="none" stroke="midnightblue" points="51.5001,-442.37 55,-452.37 58.5001,-442.37 51.5001,-442.37"/>
</g>
<!-- Node4 -->
<g id="node6" class="node"><title>Node4</title>
<a xlink:href="classAbstractDevice.html" target="_top" xlink:title="(semi)Polymorph Class representing connected devices. This class represents devices that are conneted...">
<polygon fill="none" stroke="black" points="1,-645 1,-773 109,-773 109,-645 1,-645"/>
<text text-anchor="middle" x="55" y="-760" font-family="Helvetica,sans-Serif" font-size="10.00">AbstractDevice&lt; T &gt;</text>
<polyline fill="none" stroke="black" points="1,-752 109,-752 "/>
<text text-anchor="start" x="9" y="-739" font-family="Helvetica,sans-Serif" font-size="10.00"># _identifier</text>
<polyline fill="none" stroke="black" points="1,-731 109,-731 "/>
<text text-anchor="start" x="9" y="-718" font-family="Helvetica,sans-Serif" font-size="10.00">+ AbstractDevice()</text>
<text text-anchor="start" x="9" y="-705" font-family="Helvetica,sans-Serif" font-size="10.00">+ get_identifier()</text>
<text text-anchor="start" x="9" y="-692" font-family="Helvetica,sans-Serif" font-size="10.00">+ receive()</text>
<text text-anchor="start" x="9" y="-679" font-family="Helvetica,sans-Serif" font-size="10.00">+ send()</text>
<text text-anchor="start" x="9" y="-666" font-family="Helvetica,sans-Serif" font-size="10.00">+ set_identifier()</text>
<text text-anchor="start" x="9" y="-653" font-family="Helvetica,sans-Serif" font-size="10.00">+ ~AbstractDevice()</text>
</a>
</g>
<!-- Node4&#45;&gt;Node3 -->
<g id="edge6" class="edge"><title>Node4&#45;&gt;Node3</title>
<path fill="none" stroke="orange" d="M55,-634.788C55,-621.282 55,-607.223 55,-593.818"/>
<polygon fill="orange" stroke="orange" points="51.5001,-634.989 55,-644.989 58.5001,-634.989 51.5001,-634.989"/>
<text text-anchor="middle" x="87.5" y="-616.5" font-family="Helvetica,sans-Serif" font-size="10.00"> &lt; std::string &gt;</text>
</g>
<!-- Node5 -->
<g id="node8" class="node"><title>Node5</title>
<a xlink:href="classNumericEncoder.html" target="_top" xlink:title="{NumericEncoder\n|&#45; _factor\l&#45; _offset\l|+ decode()\l+ encode()\l+ get_factor()\l+ get_offset()\l+ NumericEncoder()\l+ NumericEncoder()\l+ NumericEncoder()\l+ operator=()\l+ set_factor()\l+ set_offset()\l+ ~NumericEncoder()\l}">
<polygon fill="none" stroke="black" points="128,-207 128,-413 238,-413 238,-207 128,-207"/>
<text text-anchor="middle" x="183" y="-400" font-family="Helvetica,sans-Serif" font-size="10.00">NumericEncoder</text>
<polyline fill="none" stroke="black" points="128,-392 238,-392 "/>
<text text-anchor="start" x="136" y="-379" font-family="Helvetica,sans-Serif" font-size="10.00">&#45; _factor</text>
<text text-anchor="start" x="136" y="-366" font-family="Helvetica,sans-Serif" font-size="10.00">&#45; _offset</text>
<polyline fill="none" stroke="black" points="128,-358 238,-358 "/>
<text text-anchor="start" x="136" y="-345" font-family="Helvetica,sans-Serif" font-size="10.00">+ decode()</text>
<text text-anchor="start" x="136" y="-332" font-family="Helvetica,sans-Serif" font-size="10.00">+ encode()</text>
<text text-anchor="start" x="136" y="-319" font-family="Helvetica,sans-Serif" font-size="10.00">+ get_factor()</text>
<text text-anchor="start" x="136" y="-306" font-family="Helvetica,sans-Serif" font-size="10.00">+ get_offset()</text>
<text text-anchor="start" x="136" y="-293" font-family="Helvetica,sans-Serif" font-size="10.00">+ NumericEncoder()</text>
<text text-anchor="start" x="136" y="-280" font-family="Helvetica,sans-Serif" font-size="10.00">+ NumericEncoder()</text>
<text text-anchor="start" x="136" y="-267" font-family="Helvetica,sans-Serif" font-size="10.00">+ NumericEncoder()</text>
<text text-anchor="start" x="136" y="-254" font-family="Helvetica,sans-Serif" font-size="10.00">+ operator=()</text>
<text text-anchor="start" x="136" y="-241" font-family="Helvetica,sans-Serif" font-size="10.00">+ set_factor()</text>
<text text-anchor="start" x="136" y="-228" font-family="Helvetica,sans-Serif" font-size="10.00">+ set_offset()</text>
<text text-anchor="start" x="136" y="-215" font-family="Helvetica,sans-Serif" font-size="10.00">+ ~NumericEncoder()</text>
</a>
</g>
<!-- Node5&#45;&gt;Node1 -->
<g id="edge8" class="edge"><title>Node5&#45;&gt;Node1</title>
<path fill="none" stroke="midnightblue" d="M157.007,-197.031C154.729,-187.131 152.451,-177.23 150.243,-167.634"/>
<polygon fill="none" stroke="midnightblue" points="153.629,-197.96 159.283,-206.92 160.451,-196.39 153.629,-197.96"/>
</g>
<!-- Node6 -->
<g id="node10" class="node"><title>Node6</title>
<a xlink:href="classAbstractEncoder.html" target="_top" xlink:title="{AbstractEncoder\&lt; std\l::string, double \&gt;\n||+ decode()\l+ encode()\l}">
<polygon fill="none" stroke="black" points="127,-478.5 127,-567.5 239,-567.5 239,-478.5 127,-478.5"/>
<text text-anchor="start" x="135" y="-554.5" font-family="Helvetica,sans-Serif" font-size="10.00">AbstractEncoder&lt; std</text>
<text text-anchor="middle" x="183" y="-541.5" font-family="Helvetica,sans-Serif" font-size="10.00">::string, double &gt;</text>
<polyline fill="none" stroke="black" points="127,-533.5 239,-533.5 "/>
<text text-anchor="middle" x="183" y="-520.5" font-family="Helvetica,sans-Serif" font-size="10.00"> </text>
<polyline fill="none" stroke="black" points="127,-512.5 239,-512.5 "/>
<text text-anchor="start" x="135" y="-499.5" font-family="Helvetica,sans-Serif" font-size="10.00">+ decode()</text>
<text text-anchor="start" x="135" y="-486.5" font-family="Helvetica,sans-Serif" font-size="10.00">+ encode()</text>
</a>
</g>
<!-- Node6&#45;&gt;Node5 -->
<g id="edge10" class="edge"><title>Node6&#45;&gt;Node5</title>
<path fill="none" stroke="#8b1a1a" d="M183,-468.2C183,-451.396 183,-432.325 183,-413.385"/>
<polygon fill="none" stroke="#8b1a1a" points="179.5,-468.348 183,-478.348 186.5,-468.348 179.5,-468.348"/>
</g>
<!-- Node7 -->
<g id="node12" class="node"><title>Node7</title>
<a xlink:href="classAbstractEncoder.html" target="_top" xlink:title="{AbstractEncoder\&lt; T1,\l T2 \&gt;\n||+ decode()\l+ encode()\l}">
<polygon fill="none" stroke="black" points="126.5,-664.5 126.5,-753.5 239.5,-753.5 239.5,-664.5 126.5,-664.5"/>
<text text-anchor="start" x="134.5" y="-740.5" font-family="Helvetica,sans-Serif" font-size="10.00">AbstractEncoder&lt; T1,</text>
<text text-anchor="middle" x="183" y="-727.5" font-family="Helvetica,sans-Serif" font-size="10.00"> T2 &gt;</text>
<polyline fill="none" stroke="black" points="126.5,-719.5 239.5,-719.5 "/>
<text text-anchor="middle" x="183" y="-706.5" font-family="Helvetica,sans-Serif" font-size="10.00"> </text>
<polyline fill="none" stroke="black" points="126.5,-698.5 239.5,-698.5 "/>
<text text-anchor="start" x="134.5" y="-685.5" font-family="Helvetica,sans-Serif" font-size="10.00">+ decode()</text>
<text text-anchor="start" x="134.5" y="-672.5" font-family="Helvetica,sans-Serif" font-size="10.00">+ encode()</text>
</a>
</g>
<!-- Node7&#45;&gt;Node6 -->
<g id="edge12" class="edge"><title>Node7&#45;&gt;Node6</title>
<path fill="none" stroke="orange" d="M183,-654.16C183,-626.553 183,-593.519 183,-567.51"/>
<polygon fill="orange" stroke="orange" points="179.5,-654.448 183,-664.448 186.5,-654.448 179.5,-654.448"/>
<text text-anchor="middle" x="233" y="-616.5" font-family="Helvetica,sans-Serif" font-size="10.00"> &lt; std::string, double &gt;</text>
</g>
</g>
</svg>
