<?xml version="1.0" encoding="UTF-8" standalone="no"?>
<!DOCTYPE svg PUBLIC "-//W3C//DTD SVG 1.1//EN"
 "http://www.w3.org/Graphics/SVG/1.1/DTD/svg11.dtd">
<!-- Generated by graphviz version 2.26.3 (20100126.1600)
 -->
<!-- Title: G Pages: 1 -->
<svg width="322pt" height="150pt"
 viewBox="0.00 0.00 322.00 150.00" xmlns="http://www.w3.org/2000/svg" xmlns:xlink="http://www.w3.org/1999/xlink">
<g id="graph1" class="graph" transform="scale(1 1) rotate(0) translate(4 146)">
<title>G</title>
<!-- Node1 -->
<g id="node1" class="node"><title>Node1</title>
<polygon fill="#bfbfbf" stroke="black" points="0.5,-60.5 0.5,-81.5 137.5,-81.5 137.5,-60.5 0.5,-60.5"/>
<text text-anchor="middle" x="69" y="-68.5" font-family="Helvetica,sans-Serif" font-size="10.00">NumericEncoder::operator=</text>
</g>
<!-- Node2 -->
<g id="node3" class="node"><title>Node2</title>
<a xlink:href="classNumericEncoder.html#a81b4d01eeb3c24debb06f473eb0e71b3" target="_top" xlink:title="NumericEncoder::get_factor">
<polygon fill="none" stroke="black" points="174.5,-120.5 174.5,-141.5 313.5,-141.5 313.5,-120.5 174.5,-120.5"/>
<text text-anchor="middle" x="244" y="-128.5" font-family="Helvetica,sans-Serif" font-size="10.00">NumericEncoder::get_factor</text>
</a>
</g>
<!-- Node1&#45;&gt;Node2 -->
<g id="edge2" class="edge"><title>Node1&#45;&gt;Node2</title>
<path fill="none" stroke="midnightblue" d="M95.098,-81.6568C116.208,-90.1031 146.791,-101.949 174,-111 180.843,-113.277 188.114,-115.532 195.281,-117.662"/>
<polygon fill="midnightblue" stroke="midnightblue" points="194.361,-121.04 204.941,-120.48 196.321,-114.32 194.361,-121.04"/>
</g>
<!-- Node3 -->
<g id="node5" class="node"><title>Node3</title>
<a xlink:href="classNumericEncoder.html#ae19d475a0d15cca23998640ee035b238" target="_top" xlink:title="NumericEncoder::get_offset">
<polygon fill="none" stroke="black" points="174.5,-80.5 174.5,-101.5 313.5,-101.5 313.5,-80.5 174.5,-80.5"/>
<text text-anchor="middle" x="244" y="-88.5" font-family="Helvetica,sans-Serif" font-size="10.00">NumericEncoder::get_offset</text>
</a>
</g>
<!-- Node1&#45;&gt;Node3 -->
<g id="edge4" class="edge"><title>Node1&#45;&gt;Node3</title>
<path fill="none" stroke="midnightblue" d="M137.662,-78.8471C146.429,-79.849 155.46,-80.8811 164.38,-81.9006"/>
<polygon fill="midnightblue" stroke="midnightblue" points="164.053,-85.3859 174.386,-83.0441 164.848,-78.4311 164.053,-85.3859"/>
</g>
<!-- Node4 -->
<g id="node7" class="node"><title>Node4</title>
<a xlink:href="classNumericEncoder.html#a6e4d1c201c00438cfcb05a5e8432e754" target="_top" xlink:title="NumericEncoder::set_factor">
<polygon fill="none" stroke="black" points="174.5,-40.5 174.5,-61.5 313.5,-61.5 313.5,-40.5 174.5,-40.5"/>
<text text-anchor="middle" x="244" y="-48.5" font-family="Helvetica,sans-Serif" font-size="10.00">NumericEncoder::set_factor</text>
</a>
</g>
<!-- Node1&#45;&gt;Node4 -->
<g id="edge6" class="edge"><title>Node1&#45;&gt;Node4</title>
<path fill="none" stroke="midnightblue" d="M137.662,-63.1529C146.429,-62.151 155.46,-61.1189 164.38,-60.0994"/>
<polygon fill="midnightblue" stroke="midnightblue" points="164.848,-63.5689 174.386,-58.9559 164.053,-56.6141 164.848,-63.5689"/>
</g>
<!-- Node5 -->
<g id="node9" class="node"><title>Node5</title>
<a xlink:href="classNumericEncoder.html#aed047690123c969323158c0a41be6892" target="_top" xlink:title="NumericEncoder::set_offset">
<polygon fill="none" stroke="black" points="174.5,-0.5 174.5,-21.5 313.5,-21.5 313.5,-0.5 174.5,-0.5"/>
<text text-anchor="middle" x="244" y="-8.5" font-family="Helvetica,sans-Serif" font-size="10.00">NumericEncoder::set_offset</text>
</a>
</g>
<!-- Node1&#45;&gt;Node5 -->
<g id="edge8" class="edge"><title>Node1&#45;&gt;Node5</title>
<path fill="none" stroke="midnightblue" d="M95.098,-60.3432C116.208,-51.8969 146.791,-40.0513 174,-31 180.843,-28.7235 188.114,-26.4682 195.281,-24.3377"/>
<polygon fill="midnightblue" stroke="midnightblue" points="196.321,-27.6802 204.941,-21.5196 194.361,-20.9604 196.321,-27.6802"/>
</g>
</g>
</svg>
