<?xml version="1.0" encoding="UTF-8" standalone="no"?>
<!DOCTYPE svg PUBLIC "-//W3C//DTD SVG 1.1//EN"
 "http://www.w3.org/Graphics/SVG/1.1/DTD/svg11.dtd">
<!-- Generated by graphviz version 2.26.3 (20100126.1600)
 -->
<!-- Title: G Pages: 1 -->
<svg width="338pt" height="49pt"
 viewBox="0.00 0.00 338.00 49.00" xmlns="http://www.w3.org/2000/svg" xmlns:xlink="http://www.w3.org/1999/xlink">
<g id="graph1" class="graph" transform="scale(1 1) rotate(0) translate(4 45)">
<title>G</title>
<!-- Node1 -->
<g id="node1" class="node"><title>Node1</title>
<polygon fill="#bfbfbf" stroke="black" points="0.5,-19.5 0.5,-40.5 117.5,-40.5 117.5,-19.5 0.5,-19.5"/>
<text text-anchor="middle" x="59" y="-27.5" font-family="Helvetica,sans-Serif" font-size="10.00">CharacterDevice::send</text>
</g>
<!-- Node2 -->
<g id="node3" class="node"><title>Node2</title>
<a xlink:href="main_8h.html#a3c04138a5bfe5d72780bb7e82a18e627" target="_top" xlink:title="Main function / Program entry point. (For testing purposes)">
<polygon fill="none" stroke="black" points="292,-19.5 292,-40.5 330,-40.5 330,-19.5 292,-19.5"/>
<text text-anchor="middle" x="311" y="-27.5" font-family="Helvetica,sans-Serif" font-size="10.00">main</text>
</a>
</g>
<!-- Node1&#45;&gt;Node2 -->
<g id="edge2" class="edge"><title>Node1&#45;&gt;Node2</title>
<path fill="none" stroke="midnightblue" d="M128.005,-30.8284C165.807,-31.1618 213.485,-31.3865 256,-31 267.937,-30.8915 281.33,-30.6505 291.911,-30.4323"/>
<polygon fill="midnightblue" stroke="midnightblue" points="127.65,-27.325 117.618,-30.7319 127.585,-34.3247 127.65,-27.325"/>
</g>
<!-- Node3 -->
<g id="node5" class="node"><title>Node3</title>
<a xlink:href="classXDevice.html#a864929eab7587d8dea5f273c325d00e3" target="_top" xlink:title="XDevice::set_value">
<polygon fill="none" stroke="black" points="154,-0.5 154,-21.5 256,-21.5 256,-0.5 154,-0.5"/>
<text text-anchor="middle" x="205" y="-8.5" font-family="Helvetica,sans-Serif" font-size="10.00">XDevice::set_value</text>
</a>
</g>
<!-- Node1&#45;&gt;Node3 -->
<g id="edge4" class="edge"><title>Node1&#45;&gt;Node3</title>
<path fill="none" stroke="midnightblue" d="M127.529,-21.0819C136.433,-19.9231 145.425,-18.7529 153.975,-17.6403"/>
<polygon fill="midnightblue" stroke="midnightblue" points="127.007,-17.6201 117.543,-22.3815 127.911,-24.5616 127.007,-17.6201"/>
</g>
<!-- Node3&#45;&gt;Node2 -->
<g id="edge6" class="edge"><title>Node3&#45;&gt;Node2</title>
<path fill="none" stroke="midnightblue" d="M266.238,-21.9766C275.473,-23.6319 284.366,-25.226 291.758,-26.551"/>
<polygon fill="midnightblue" stroke="midnightblue" points="266.598,-18.4854 256.137,-20.1661 265.363,-25.3756 266.598,-18.4854"/>
</g>
</g>
</svg>
