<?xml version="1.0" encoding="UTF-8" standalone="no"?>
<!DOCTYPE svg PUBLIC "-//W3C//DTD SVG 1.1//EN"
 "http://www.w3.org/Graphics/SVG/1.1/DTD/svg11.dtd">
<!-- Generated by graphviz version 2.26.3 (20100126.1600)
 -->
<!-- Title: NumericEncoder::get_factor Pages: 1 -->
<svg width="322pt" height="110pt"
 viewBox="0.00 0.00 322.00 110.00" xmlns="http://www.w3.org/2000/svg" xmlns:xlink="http://www.w3.org/1999/xlink">
<g id="graph1" class="graph" transform="scale(1 1) rotate(0) translate(4 106)">
<title>NumericEncoder::get_factor</title>
<!-- Node1 -->
<g id="node1" class="node"><title>Node1</title>
<polygon fill="#bfbfbf" stroke="black" points="0.5,-34 0.5,-68 109.5,-68 109.5,-34 0.5,-34"/>
<text text-anchor="start" x="8.5" y="-55" font-family="Helvetica,sans-Serif" font-size="10.00">NumericEncoder::get</text>
<text text-anchor="middle" x="55" y="-42" font-family="Helvetica,sans-Serif" font-size="10.00">_factor</text>
</g>
<!-- Node2 -->
<g id="node3" class="node"><title>Node2</title>
<a xlink:href="classNumericEncoder.html#a17cbe3517a55e783fa36f63254ce8b40" target="_top" xlink:title="NumericEncoder::NumericEncoder">
<polygon fill="none" stroke="black" points="146,-80.5 146,-101.5 314,-101.5 314,-80.5 146,-80.5"/>
<text text-anchor="middle" x="230" y="-88.5" font-family="Helvetica,sans-Serif" font-size="10.00">NumericEncoder::NumericEncoder</text>
</a>
</g>
<!-- Node1&#45;&gt;Node2 -->
<g id="edge2" class="edge"><title>Node1&#45;&gt;Node2</title>
<path fill="none" stroke="midnightblue" d="M119.823,-65.8166C141.077,-70.6746 164.248,-75.9709 183.832,-80.4474"/>
<polygon fill="midnightblue" stroke="midnightblue" points="120.419,-62.3628 109.891,-63.5465 118.86,-69.1868 120.419,-62.3628"/>
</g>
<!-- Node3 -->
<g id="node5" class="node"><title>Node3</title>
<a xlink:href="classNumericEncoder.html#af59c1f824abdc08b9e6607df388c7d3b" target="_top" xlink:title="NumericEncoder::operator=">
<polygon fill="none" stroke="black" points="161.5,-40.5 161.5,-61.5 298.5,-61.5 298.5,-40.5 161.5,-40.5"/>
<text text-anchor="middle" x="230" y="-48.5" font-family="Helvetica,sans-Serif" font-size="10.00">NumericEncoder::operator=</text>
</a>
</g>
<!-- Node1&#45;&gt;Node3 -->
<g id="edge4" class="edge"><title>Node1&#45;&gt;Node3</title>
<path fill="none" stroke="midnightblue" d="M120.043,-51C133.545,-51 147.811,-51 161.435,-51"/>
<polygon fill="midnightblue" stroke="midnightblue" points="119.891,-47.5001 109.891,-51 119.891,-54.5001 119.891,-47.5001"/>
</g>
<!-- Node4 -->
<g id="node7" class="node"><title>Node4</title>
<a xlink:href="classXDevice.html#af7a43e5e156a72b59e7b7330eedbd1dc" target="_top" xlink:title="Assignment&#45;Operator.">
<polygon fill="none" stroke="black" points="179.5,-0.5 179.5,-21.5 280.5,-21.5 280.5,-0.5 179.5,-0.5"/>
<text text-anchor="middle" x="230" y="-8.5" font-family="Helvetica,sans-Serif" font-size="10.00">XDevice::operator=</text>
</a>
</g>
<!-- Node1&#45;&gt;Node4 -->
<g id="edge6" class="edge"><title>Node1&#45;&gt;Node4</title>
<path fill="none" stroke="midnightblue" d="M119.823,-36.1834C141.077,-31.3254 164.248,-26.0291 183.832,-21.5526"/>
<polygon fill="midnightblue" stroke="midnightblue" points="118.86,-32.8132 109.891,-38.4535 120.419,-39.6372 118.86,-32.8132"/>
</g>
</g>
</svg>
