<?xml version="1.0" encoding="UTF-8" standalone="no"?>
<!DOCTYPE svg PUBLIC "-//W3C//DTD SVG 1.1//EN"
 "http://www.w3.org/Graphics/SVG/1.1/DTD/svg11.dtd">
<!-- Generated by graphviz version 2.26.3 (20100126.1600)
 -->
<!-- Title: XDevice::get_value Pages: 1 -->
<svg width="274pt" height="70pt"
 viewBox="0.00 0.00 274.00 70.00" xmlns="http://www.w3.org/2000/svg" xmlns:xlink="http://www.w3.org/1999/xlink">
<g id="graph1" class="graph" transform="scale(1 1) rotate(0) translate(4 66)">
<title>XDevice::get_value</title>
<!-- Node1 -->
<g id="node1" class="node"><title>Node1</title>
<polygon fill="#bfbfbf" stroke="black" points="0,-20.5 0,-41.5 102,-41.5 102,-20.5 0,-20.5"/>
<text text-anchor="middle" x="51" y="-28.5" font-family="Helvetica,sans-Serif" font-size="10.00">XDevice::get_value</text>
</g>
<!-- Node2 -->
<g id="node3" class="node"><title>Node2</title>
<a xlink:href="classNumericEncoder.html#abd18954c0c3b0cd97da414f70ca7bb56" target="_top" xlink:title="NumericEncoder::encode">
<polygon fill="none" stroke="black" points="138.5,-40.5 138.5,-61.5 265.5,-61.5 265.5,-40.5 138.5,-40.5"/>
<text text-anchor="middle" x="202" y="-48.5" font-family="Helvetica,sans-Serif" font-size="10.00">NumericEncoder::encode</text>
</a>
</g>
<!-- Node1&#45;&gt;Node2 -->
<g id="edge2" class="edge"><title>Node1&#45;&gt;Node2</title>
<path fill="none" stroke="midnightblue" d="M102.122,-37.7711C110.576,-38.8909 119.487,-40.0712 128.364,-41.2469"/>
<polygon fill="midnightblue" stroke="midnightblue" points="127.972,-44.7255 138.345,-42.5689 128.892,-37.7861 127.972,-44.7255"/>
</g>
<!-- Node3 -->
<g id="node5" class="node"><title>Node3</title>
<a xlink:href="classCharacterDevice.html#a27c4e98366eb05426a173b7ebca068a9" target="_top" xlink:title="Function to read a string from a device.">
<polygon fill="none" stroke="black" points="138,-0.5 138,-21.5 266,-21.5 266,-0.5 138,-0.5"/>
<text text-anchor="middle" x="202" y="-8.5" font-family="Helvetica,sans-Serif" font-size="10.00">CharacterDevice::receive</text>
</a>
</g>
<!-- Node1&#45;&gt;Node3 -->
<g id="edge4" class="edge"><title>Node1&#45;&gt;Node3</title>
<path fill="none" stroke="midnightblue" d="M102.122,-24.2289C110.362,-23.1375 119.037,-21.9885 127.69,-20.8424"/>
<polygon fill="midnightblue" stroke="midnightblue" points="128.358,-24.2846 137.812,-19.5017 127.439,-17.3452 128.358,-24.2846"/>
</g>
</g>
</svg>
