<?xml version="1.0" encoding="UTF-8" standalone="no"?>
<!DOCTYPE svg PUBLIC "-//W3C//DTD SVG 1.1//EN"
 "http://www.w3.org/Graphics/SVG/1.1/DTD/svg11.dtd">
<!-- Generated by graphviz version 2.26.3 (20100126.1600)
 -->
<!-- Title: NumericEncoder Pages: 1 -->
<svg width="191pt" height="508pt"
 viewBox="0.00 0.00 191.00 508.00" xmlns="http://www.w3.org/2000/svg" xmlns:xlink="http://www.w3.org/1999/xlink">
<g id="graph1" class="graph" transform="scale(1 1) rotate(0) translate(4 504)">
<title>NumericEncoder</title>
<!-- Node1 -->
<g id="node1" class="node"><title>Node1</title>
<polygon fill="#bfbfbf" stroke="black" points="73,-1 73,-207 183,-207 183,-1 73,-1"/>
<text text-anchor="middle" x="128" y="-194" font-family="Helvetica,sans-Serif" font-size="10.00">NumericEncoder</text>
<polyline fill="none" stroke="black" points="73,-186 183,-186 "/>
<text text-anchor="start" x="81" y="-173" font-family="Helvetica,sans-Serif" font-size="10.00">&#45; _factor</text>
<text text-anchor="start" x="81" y="-160" font-family="Helvetica,sans-Serif" font-size="10.00">&#45; _offset</text>
<polyline fill="none" stroke="black" points="73,-152 183,-152 "/>
<text text-anchor="start" x="81" y="-139" font-family="Helvetica,sans-Serif" font-size="10.00">+ decode()</text>
<text text-anchor="start" x="81" y="-126" font-family="Helvetica,sans-Serif" font-size="10.00">+ encode()</text>
<text text-anchor="start" x="81" y="-113" font-family="Helvetica,sans-Serif" font-size="10.00">+ get_factor()</text>
<text text-anchor="start" x="81" y="-100" font-family="Helvetica,sans-Serif" font-size="10.00">+ get_offset()</text>
<text text-anchor="start" x="81" y="-87" font-family="Helvetica,sans-Serif" font-size="10.00">+ NumericEncoder()</text>
<text text-anchor="start" x="81" y="-74" font-family="Helvetica,sans-Serif" font-size="10.00">+ NumericEncoder()</text>
<text text-anchor="start" x="81" y="-61" font-family="Helvetica,sans-Serif" font-size="10.00">+ NumericEncoder()</text>
<text text-anchor="start" x="81" y="-48" font-family="Helvetica,sans-Serif" font-size="10.00">+ operator=()</text>
<text text-anchor="start" x="81" y="-35" font-family="Helvetica,sans-Serif" font-size="10.00">+ set_factor()</text>
<text text-anchor="start" x="81" y="-22" font-family="Helvetica,sans-Serif" font-size="10.00">+ set_offset()</text>
<text text-anchor="start" x="81" y="-9" font-family="Helvetica,sans-Serif" font-size="10.00">+ ~NumericEncoder()</text>
</g>
<!-- Node2 -->
<g id="node2" class="node"><title>Node2</title>
<a xlink:href="classAbstractEncoder.html" target="_top" xlink:title="{AbstractEncoder\&lt; std\l::string, double \&gt;\n||+ decode()\l+ encode()\l}">
<polygon fill="none" stroke="black" points="0,-270.5 0,-359.5 112,-359.5 112,-270.5 0,-270.5"/>
<text text-anchor="start" x="8" y="-346.5" font-family="Helvetica,sans-Serif" font-size="10.00">AbstractEncoder&lt; std</text>
<text text-anchor="middle" x="56" y="-333.5" font-family="Helvetica,sans-Serif" font-size="10.00">::string, double &gt;</text>
<polyline fill="none" stroke="black" points="0,-325.5 112,-325.5 "/>
<text text-anchor="middle" x="56" y="-312.5" font-family="Helvetica,sans-Serif" font-size="10.00"> </text>
<polyline fill="none" stroke="black" points="0,-304.5 112,-304.5 "/>
<text text-anchor="start" x="8" y="-291.5" font-family="Helvetica,sans-Serif" font-size="10.00">+ decode()</text>
<text text-anchor="start" x="8" y="-278.5" font-family="Helvetica,sans-Serif" font-size="10.00">+ encode()</text>
</a>
</g>
<!-- Node2&#45;&gt;Node1 -->
<g id="edge2" class="edge"><title>Node2&#45;&gt;Node1</title>
<path fill="none" stroke="#8b1a1a" d="M74.6335,-260.393C80.1987,-244.084 86.4919,-225.642 92.7547,-207.288"/>
<polygon fill="none" stroke="#8b1a1a" points="71.1864,-259.658 71.2693,-270.252 77.8114,-261.918 71.1864,-259.658"/>
</g>
<!-- Node3 -->
<g id="node4" class="node"><title>Node3</title>
<a xlink:href="classAbstractEncoder.html" target="_top" xlink:title="{AbstractEncoder\&lt; T1,\l T2 \&gt;\n||+ decode()\l+ encode()\l}">
<polygon fill="none" stroke="black" points="-0.5,-410.5 -0.5,-499.5 112.5,-499.5 112.5,-410.5 -0.5,-410.5"/>
<text text-anchor="start" x="7.5" y="-486.5" font-family="Helvetica,sans-Serif" font-size="10.00">AbstractEncoder&lt; T1,</text>
<text text-anchor="middle" x="56" y="-473.5" font-family="Helvetica,sans-Serif" font-size="10.00"> T2 &gt;</text>
<polyline fill="none" stroke="black" points="-0.5,-465.5 112.5,-465.5 "/>
<text text-anchor="middle" x="56" y="-452.5" font-family="Helvetica,sans-Serif" font-size="10.00"> </text>
<polyline fill="none" stroke="black" points="-0.5,-444.5 112.5,-444.5 "/>
<text text-anchor="start" x="7.5" y="-431.5" font-family="Helvetica,sans-Serif" font-size="10.00">+ decode()</text>
<text text-anchor="start" x="7.5" y="-418.5" font-family="Helvetica,sans-Serif" font-size="10.00">+ encode()</text>
</a>
</g>
<!-- Node3&#45;&gt;Node2 -->
<g id="edge4" class="edge"><title>Node3&#45;&gt;Node2</title>
<path fill="none" stroke="orange" d="M56,-400.245C56,-386.827 56,-372.623 56,-359.737"/>
<polygon fill="orange" stroke="orange" points="52.5001,-400.318 56,-410.318 59.5001,-400.318 52.5001,-400.318"/>
<text text-anchor="middle" x="106" y="-382.5" font-family="Helvetica,sans-Serif" font-size="10.00"> &lt; std::string, double &gt;</text>
</g>
<!-- Node4 -->
<g id="node6" class="node"><title>Node4</title>
<polygon fill="none" stroke="#bfbfbf" points="129.5,-283.5 129.5,-346.5 174.5,-346.5 174.5,-283.5 129.5,-283.5"/>
<text text-anchor="middle" x="152" y="-333.5" font-family="Helvetica,sans-Serif" font-size="10.00">double</text>
<polyline fill="none" stroke="#bfbfbf" points="129.5,-325.5 174.5,-325.5 "/>
<text text-anchor="middle" x="152" y="-312.5" font-family="Helvetica,sans-Serif" font-size="10.00"> </text>
<polyline fill="none" stroke="#bfbfbf" points="129.5,-304.5 174.5,-304.5 "/>
<text text-anchor="middle" x="152" y="-291.5" font-family="Helvetica,sans-Serif" font-size="10.00"> </text>
</g>
<!-- Node4&#45;&gt;Node1 -->
<g id="edge6" class="edge"><title>Node4&#45;&gt;Node1</title>
<path fill="none" stroke="#404040" d="M148.407,-283.411C146.416,-265.905 143.804,-242.943 141.117,-219.318"/>
<polygon fill="none" stroke="#404040" points="141.107,-219.233 136.455,-213.724 139.751,-207.31 144.403,-212.819 141.107,-219.233"/>
<text text-anchor="middle" x="161" y="-243" font-family="Helvetica,sans-Serif" font-size="10.00"> _factor</text>
<text text-anchor="middle" x="161" y="-230" font-family="Helvetica,sans-Serif" font-size="10.00">_offset</text>
</g>
</g>
</svg>
