<?xml version="1.0" encoding="UTF-8" standalone="no"?>
<!DOCTYPE svg PUBLIC "-//W3C//DTD SVG 1.1//EN"
 "http://www.w3.org/Graphics/SVG/1.1/DTD/svg11.dtd">
<!-- Generated by graphviz version 2.26.3 (20100126.1600)
 -->
<!-- Title: G Pages: 1 -->
<svg width="322pt" height="70pt"
 viewBox="0.00 0.00 322.00 70.00" xmlns="http://www.w3.org/2000/svg" xmlns:xlink="http://www.w3.org/1999/xlink">
<g id="graph1" class="graph" transform="scale(1 1) rotate(0) translate(4 66)">
<title>G</title>
<!-- Node1 -->
<g id="node1" class="node"><title>Node1</title>
<polygon fill="#bfbfbf" stroke="black" points="0.5,-20.5 0.5,-41.5 139.5,-41.5 139.5,-20.5 0.5,-20.5"/>
<text text-anchor="middle" x="70" y="-28.5" font-family="Helvetica,sans-Serif" font-size="10.00">NumericEncoder::set_offset</text>
</g>
<!-- Node2 -->
<g id="node3" class="node"><title>Node2</title>
<a xlink:href="classNumericEncoder.html#af59c1f824abdc08b9e6607df388c7d3b" target="_top" xlink:title="NumericEncoder::operator=">
<polygon fill="none" stroke="black" points="176.5,-40.5 176.5,-61.5 313.5,-61.5 313.5,-40.5 176.5,-40.5"/>
<text text-anchor="middle" x="245" y="-48.5" font-family="Helvetica,sans-Serif" font-size="10.00">NumericEncoder::operator=</text>
</a>
</g>
<!-- Node1&#45;&gt;Node2 -->
<g id="edge2" class="edge"><title>Node1&#45;&gt;Node2</title>
<path fill="none" stroke="midnightblue" d="M149.684,-40.1068C158.615,-41.1274 167.655,-42.1606 176.429,-43.1633"/>
<polygon fill="midnightblue" stroke="midnightblue" points="150,-36.6202 139.667,-38.962 149.205,-43.5749 150,-36.6202"/>
</g>
<!-- Node3 -->
<g id="node5" class="node"><title>Node3</title>
<a xlink:href="classXDevice.html#af7a43e5e156a72b59e7b7330eedbd1dc" target="_top" xlink:title="Assignment&#45;Operator.">
<polygon fill="none" stroke="black" points="194.5,-0.5 194.5,-21.5 295.5,-21.5 295.5,-0.5 194.5,-0.5"/>
<text text-anchor="middle" x="245" y="-8.5" font-family="Helvetica,sans-Serif" font-size="10.00">XDevice::operator=</text>
</a>
</g>
<!-- Node1&#45;&gt;Node3 -->
<g id="edge4" class="edge"><title>Node1&#45;&gt;Node3</title>
<path fill="none" stroke="midnightblue" d="M149.618,-21.9008C164.861,-20.1587 180.426,-18.3799 194.441,-16.7781"/>
<polygon fill="midnightblue" stroke="midnightblue" points="149.205,-18.4251 139.667,-23.038 150,-25.3798 149.205,-18.4251"/>
</g>
</g>
</svg>
