<?xml version="1.0" encoding="UTF-8" standalone="no"?>
<!DOCTYPE svg PUBLIC "-//W3C//DTD SVG 1.1//EN"
 "http://www.w3.org/Graphics/SVG/1.1/DTD/svg11.dtd">
<!-- Generated by graphviz version 2.26.3 (20100126.1600)
 -->
<!-- Title: G Pages: 1 -->
<svg width="200pt" height="666pt"
 viewBox="0.00 0.00 200.00 666.00" xmlns="http://www.w3.org/2000/svg" xmlns:xlink="http://www.w3.org/1999/xlink">
<g id="graph1" class="graph" transform="scale(1 1) rotate(0) translate(4 662)">
<title>G</title>
<!-- Node1 -->
<g id="node1" class="node"><title>Node1</title>
<polygon fill="#bfbfbf" stroke="black" points="24,-581 24,-657 160,-657 160,-581 24,-581"/>
<text text-anchor="middle" x="92" y="-644" font-family="Helvetica,sans-Serif" font-size="10.00">AbstractEncoder&lt; T1, T2 &gt;</text>
<polyline fill="none" stroke="black" points="24,-636 160,-636 "/>
<text text-anchor="middle" x="92" y="-623" font-family="Helvetica,sans-Serif" font-size="10.00"> </text>
<polyline fill="none" stroke="black" points="24,-615 160,-615 "/>
<text text-anchor="start" x="32" y="-602" font-family="Helvetica,sans-Serif" font-size="10.00">+ decode()</text>
<text text-anchor="start" x="32" y="-589" font-family="Helvetica,sans-Serif" font-size="10.00">+ encode()</text>
</g>
<!-- Node2 -->
<g id="node3" class="node"><title>Node2</title>
<a xlink:href="classAbstractEncoder.html" target="_top" xlink:title="{AbstractEncoder\&lt; std::string, double \&gt;\n||+ decode()\l+ encode()\l}">
<polygon fill="none" stroke="black" points="-0.5,-453 -0.5,-529 184.5,-529 184.5,-453 -0.5,-453"/>
<text text-anchor="middle" x="92" y="-516" font-family="Helvetica,sans-Serif" font-size="10.00">AbstractEncoder&lt; std::string, double &gt;</text>
<polyline fill="none" stroke="black" points="-0.5,-508 184.5,-508 "/>
<text text-anchor="middle" x="92" y="-495" font-family="Helvetica,sans-Serif" font-size="10.00"> </text>
<polyline fill="none" stroke="black" points="-0.5,-487 184.5,-487 "/>
<text text-anchor="start" x="7.5" y="-474" font-family="Helvetica,sans-Serif" font-size="10.00">+ decode()</text>
<text text-anchor="start" x="7.5" y="-461" font-family="Helvetica,sans-Serif" font-size="10.00">+ encode()</text>
</a>
</g>
<!-- Node1&#45;&gt;Node2 -->
<g id="edge2" class="edge"><title>Node1&#45;&gt;Node2</title>
<path fill="none" stroke="orange" d="M92,-570.682C92,-556.942 92,-542.175 92,-529.132"/>
<polygon fill="orange" stroke="orange" points="88.5001,-570.942 92,-580.942 95.5001,-570.942 88.5001,-570.942"/>
<text text-anchor="middle" x="142" y="-552.5" font-family="Helvetica,sans-Serif" font-size="10.00"> &lt; std::string, double &gt;</text>
</g>
<!-- Node3 -->
<g id="node5" class="node"><title>Node3</title>
<a xlink:href="classNumericEncoder.html" target="_top" xlink:title="{NumericEncoder\n|&#45; _factor\l&#45; _offset\l|+ decode()\l+ encode()\l+ get_factor()\l+ get_offset()\l+ NumericEncoder()\l+ NumericEncoder()\l+ NumericEncoder()\l+ operator=()\l+ set_factor()\l+ set_offset()\l+ ~NumericEncoder()\l}">
<polygon fill="none" stroke="black" points="37,-207 37,-413 147,-413 147,-207 37,-207"/>
<text text-anchor="middle" x="92" y="-400" font-family="Helvetica,sans-Serif" font-size="10.00">NumericEncoder</text>
<polyline fill="none" stroke="black" points="37,-392 147,-392 "/>
<text text-anchor="start" x="45" y="-379" font-family="Helvetica,sans-Serif" font-size="10.00">&#45; _factor</text>
<text text-anchor="start" x="45" y="-366" font-family="Helvetica,sans-Serif" font-size="10.00">&#45; _offset</text>
<polyline fill="none" stroke="black" points="37,-358 147,-358 "/>
<text text-anchor="start" x="45" y="-345" font-family="Helvetica,sans-Serif" font-size="10.00">+ decode()</text>
<text text-anchor="start" x="45" y="-332" font-family="Helvetica,sans-Serif" font-size="10.00">+ encode()</text>
<text text-anchor="start" x="45" y="-319" font-family="Helvetica,sans-Serif" font-size="10.00">+ get_factor()</text>
<text text-anchor="start" x="45" y="-306" font-family="Helvetica,sans-Serif" font-size="10.00">+ get_offset()</text>
<text text-anchor="start" x="45" y="-293" font-family="Helvetica,sans-Serif" font-size="10.00">+ NumericEncoder()</text>
<text text-anchor="start" x="45" y="-280" font-family="Helvetica,sans-Serif" font-size="10.00">+ NumericEncoder()</text>
<text text-anchor="start" x="45" y="-267" font-family="Helvetica,sans-Serif" font-size="10.00">+ NumericEncoder()</text>
<text text-anchor="start" x="45" y="-254" font-family="Helvetica,sans-Serif" font-size="10.00">+ operator=()</text>
<text text-anchor="start" x="45" y="-241" font-family="Helvetica,sans-Serif" font-size="10.00">+ set_factor()</text>
<text text-anchor="start" x="45" y="-228" font-family="Helvetica,sans-Serif" font-size="10.00">+ set_offset()</text>
<text text-anchor="start" x="45" y="-215" font-family="Helvetica,sans-Serif" font-size="10.00">+ ~NumericEncoder()</text>
</a>
</g>
<!-- Node2&#45;&gt;Node3 -->
<g id="edge4" class="edge"><title>Node2&#45;&gt;Node3</title>
<path fill="none" stroke="#8b1a1a" d="M92,-442.534C92,-433.299 92,-423.312 92,-413.107"/>
<polygon fill="none" stroke="#8b1a1a" points="88.5001,-442.615 92,-452.615 95.5001,-442.615 88.5001,-442.615"/>
</g>
<!-- Node4 -->
<g id="node7" class="node"><title>Node4</title>
<a xlink:href="classXDevice.html" target="_top" xlink:title="class XDevice as Testing&#45;Object.">
<polygon fill="none" stroke="black" points="54.5,-0.5 54.5,-167.5 129.5,-167.5 129.5,-0.5 54.5,-0.5"/>
<text text-anchor="middle" x="92" y="-154.5" font-family="Helvetica,sans-Serif" font-size="10.00">XDevice</text>
<polyline fill="none" stroke="black" points="54.5,-146.5 129.5,-146.5 "/>
<text text-anchor="start" x="62.5" y="-133.5" font-family="Helvetica,sans-Serif" font-size="10.00">&#45; _unit</text>
<polyline fill="none" stroke="black" points="54.5,-125.5 129.5,-125.5 "/>
<text text-anchor="start" x="62.5" y="-112.5" font-family="Helvetica,sans-Serif" font-size="10.00">+ get_unit()</text>
<text text-anchor="start" x="62.5" y="-99.5" font-family="Helvetica,sans-Serif" font-size="10.00">+ get_value()</text>
<text text-anchor="start" x="62.5" y="-86.5" font-family="Helvetica,sans-Serif" font-size="10.00">+ operator=()</text>
<text text-anchor="start" x="62.5" y="-73.5" font-family="Helvetica,sans-Serif" font-size="10.00">+ set_unit()</text>
<text text-anchor="start" x="62.5" y="-60.5" font-family="Helvetica,sans-Serif" font-size="10.00">+ set_value()</text>
<text text-anchor="start" x="62.5" y="-47.5" font-family="Helvetica,sans-Serif" font-size="10.00">+ XDevice()</text>
<text text-anchor="start" x="62.5" y="-34.5" font-family="Helvetica,sans-Serif" font-size="10.00">+ XDevice()</text>
<text text-anchor="start" x="62.5" y="-21.5" font-family="Helvetica,sans-Serif" font-size="10.00">+ XDevice()</text>
<text text-anchor="start" x="62.5" y="-8.5" font-family="Helvetica,sans-Serif" font-size="10.00">+ ~XDevice()</text>
</a>
</g>
<!-- Node3&#45;&gt;Node4 -->
<g id="edge6" class="edge"><title>Node3&#45;&gt;Node4</title>
<path fill="none" stroke="midnightblue" d="M92,-196.722C92,-186.925 92,-177.131 92,-167.634"/>
<polygon fill="none" stroke="midnightblue" points="88.5001,-196.92 92,-206.92 95.5001,-196.92 88.5001,-196.92"/>
</g>
</g>
</svg>
