<?xml version="1.0" encoding="UTF-8" standalone="no"?>
<!DOCTYPE svg PUBLIC "-//W3C//DTD SVG 1.1//EN"
 "http://www.w3.org/Graphics/SVG/1.1/DTD/svg11.dtd">
<!-- Generated by graphviz version 2.26.3 (20100126.1600)
 -->
<!-- Title: XDevice::set_value Pages: 1 -->
<svg width="274pt" height="70pt"
 viewBox="0.00 0.00 274.00 70.00" xmlns="http://www.w3.org/2000/svg" xmlns:xlink="http://www.w3.org/1999/xlink">
<g id="graph1" class="graph" transform="scale(1 1) rotate(0) translate(4 66)">
<title>XDevice::set_value</title>
<!-- Node1 -->
<g id="node1" class="node"><title>Node1</title>
<polygon fill="#bfbfbf" stroke="black" points="0,-20.5 0,-41.5 102,-41.5 102,-20.5 0,-20.5"/>
<text text-anchor="middle" x="51" y="-28.5" font-family="Helvetica,sans-Serif" font-size="10.00">XDevice::set_value</text>
</g>
<!-- Node2 -->
<g id="node3" class="node"><title>Node2</title>
<a xlink:href="classNumericEncoder.html#ae7c86aa7fd8f10b4cb9ab4d0f1cd5da3" target="_top" xlink:title="NumericEncoder::decode">
<polygon fill="none" stroke="black" points="138.5,-40.5 138.5,-61.5 265.5,-61.5 265.5,-40.5 138.5,-40.5"/>
<text text-anchor="middle" x="202" y="-48.5" font-family="Helvetica,sans-Serif" font-size="10.00">NumericEncoder::decode</text>
</a>
</g>
<!-- Node1&#45;&gt;Node2 -->
<g id="edge2" class="edge"><title>Node1&#45;&gt;Node2</title>
<path fill="none" stroke="midnightblue" d="M102.122,-37.7711C110.576,-38.8909 119.487,-40.0712 128.364,-41.2469"/>
<polygon fill="midnightblue" stroke="midnightblue" points="127.972,-44.7255 138.345,-42.5689 128.892,-37.7861 127.972,-44.7255"/>
</g>
<!-- Node3 -->
<g id="node5" class="node"><title>Node3</title>
<a xlink:href="classCharacterDevice.html#abadc9e200ce49cfe6dd6082fa00b97ff" target="_top" xlink:title="Function to write a string to a device.">
<polygon fill="none" stroke="black" points="143.5,-0.5 143.5,-21.5 260.5,-21.5 260.5,-0.5 143.5,-0.5"/>
<text text-anchor="middle" x="202" y="-8.5" font-family="Helvetica,sans-Serif" font-size="10.00">CharacterDevice::send</text>
</a>
</g>
<!-- Node1&#45;&gt;Node3 -->
<g id="edge4" class="edge"><title>Node1&#45;&gt;Node3</title>
<path fill="none" stroke="midnightblue" d="M102.122,-24.2289C112.172,-22.8978 122.867,-21.4812 133.383,-20.0884"/>
<polygon fill="midnightblue" stroke="midnightblue" points="133.929,-23.5467 143.383,-18.7638 133.01,-16.6073 133.929,-23.5467"/>
</g>
</g>
</svg>
