<?xml version="1.0" encoding="UTF-8" standalone="no"?>
<!DOCTYPE svg PUBLIC "-//W3C//DTD SVG 1.1//EN"
 "http://www.w3.org/Graphics/SVG/1.1/DTD/svg11.dtd">
<!-- Generated by graphviz version 2.26.3 (20100126.1600)
 -->
<!-- Title: NumericEncoder Pages: 1 -->
<svg width="164pt" height="690pt"
 viewBox="0.00 0.00 164.00 690.00" xmlns="http://www.w3.org/2000/svg" xmlns:xlink="http://www.w3.org/1999/xlink">
<g id="graph1" class="graph" transform="scale(1 1) rotate(0) translate(4 686)">
<title>NumericEncoder</title>
<!-- Node1 -->
<g id="node1" class="node"><title>Node1</title>
<polygon fill="#bfbfbf" stroke="black" points="1,-207 1,-413 111,-413 111,-207 1,-207"/>
<text text-anchor="middle" x="56" y="-400" font-family="Helvetica,sans-Serif" font-size="10.00">NumericEncoder</text>
<polyline fill="none" stroke="black" points="1,-392 111,-392 "/>
<text text-anchor="start" x="9" y="-379" font-family="Helvetica,sans-Serif" font-size="10.00">&#45; _factor</text>
<text text-anchor="start" x="9" y="-366" font-family="Helvetica,sans-Serif" font-size="10.00">&#45; _offset</text>
<polyline fill="none" stroke="black" points="1,-358 111,-358 "/>
<text text-anchor="start" x="9" y="-345" font-family="Helvetica,sans-Serif" font-size="10.00">+ decode()</text>
<text text-anchor="start" x="9" y="-332" font-family="Helvetica,sans-Serif" font-size="10.00">+ encode()</text>
<text text-anchor="start" x="9" y="-319" font-family="Helvetica,sans-Serif" font-size="10.00">+ get_factor()</text>
<text text-anchor="start" x="9" y="-306" font-family="Helvetica,sans-Serif" font-size="10.00">+ get_offset()</text>
<text text-anchor="start" x="9" y="-293" font-family="Helvetica,sans-Serif" font-size="10.00">+ NumericEncoder()</text>
<text text-anchor="start" x="9" y="-280" font-family="Helvetica,sans-Serif" font-size="10.00">+ NumericEncoder()</text>
<text text-anchor="start" x="9" y="-267" font-family="Helvetica,sans-Serif" font-size="10.00">+ NumericEncoder()</text>
<text text-anchor="start" x="9" y="-254" font-family="Helvetica,sans-Serif" font-size="10.00">+ operator=()</text>
<text text-anchor="start" x="9" y="-241" font-family="Helvetica,sans-Serif" font-size="10.00">+ set_factor()</text>
<text text-anchor="start" x="9" y="-228" font-family="Helvetica,sans-Serif" font-size="10.00">+ set_offset()</text>
<text text-anchor="start" x="9" y="-215" font-family="Helvetica,sans-Serif" font-size="10.00">+ ~NumericEncoder()</text>
</g>
<!-- Node4 -->
<g id="node7" class="node"><title>Node4</title>
<a xlink:href="classXDevice.html" target="_top" xlink:title="class XDevice as Testing&#45;Object.">
<polygon fill="none" stroke="black" points="18.5,-0.5 18.5,-167.5 93.5,-167.5 93.5,-0.5 18.5,-0.5"/>
<text text-anchor="middle" x="56" y="-154.5" font-family="Helvetica,sans-Serif" font-size="10.00">XDevice</text>
<polyline fill="none" stroke="black" points="18.5,-146.5 93.5,-146.5 "/>
<text text-anchor="start" x="26.5" y="-133.5" font-family="Helvetica,sans-Serif" font-size="10.00">&#45; _unit</text>
<polyline fill="none" stroke="black" points="18.5,-125.5 93.5,-125.5 "/>
<text text-anchor="start" x="26.5" y="-112.5" font-family="Helvetica,sans-Serif" font-size="10.00">+ get_unit()</text>
<text text-anchor="start" x="26.5" y="-99.5" font-family="Helvetica,sans-Serif" font-size="10.00">+ get_value()</text>
<text text-anchor="start" x="26.5" y="-86.5" font-family="Helvetica,sans-Serif" font-size="10.00">+ operator=()</text>
<text text-anchor="start" x="26.5" y="-73.5" font-family="Helvetica,sans-Serif" font-size="10.00">+ set_unit()</text>
<text text-anchor="start" x="26.5" y="-60.5" font-family="Helvetica,sans-Serif" font-size="10.00">+ set_value()</text>
<text text-anchor="start" x="26.5" y="-47.5" font-family="Helvetica,sans-Serif" font-size="10.00">+ XDevice()</text>
<text text-anchor="start" x="26.5" y="-34.5" font-family="Helvetica,sans-Serif" font-size="10.00">+ XDevice()</text>
<text text-anchor="start" x="26.5" y="-21.5" font-family="Helvetica,sans-Serif" font-size="10.00">+ XDevice()</text>
<text text-anchor="start" x="26.5" y="-8.5" font-family="Helvetica,sans-Serif" font-size="10.00">+ ~XDevice()</text>
</a>
</g>
<!-- Node1&#45;&gt;Node4 -->
<g id="edge6" class="edge"><title>Node1&#45;&gt;Node4</title>
<path fill="none" stroke="midnightblue" d="M56,-196.722C56,-186.925 56,-177.131 56,-167.634"/>
<polygon fill="none" stroke="midnightblue" points="52.5001,-196.92 56,-206.92 59.5001,-196.92 52.5001,-196.92"/>
</g>
<!-- Node2 -->
<g id="node2" class="node"><title>Node2</title>
<a xlink:href="classAbstractEncoder.html" target="_top" xlink:title="{AbstractEncoder\&lt; std\l::string, double \&gt;\n||+ decode()\l+ encode()\l}">
<polygon fill="none" stroke="black" points="0,-452.5 0,-541.5 112,-541.5 112,-452.5 0,-452.5"/>
<text text-anchor="start" x="8" y="-528.5" font-family="Helvetica,sans-Serif" font-size="10.00">AbstractEncoder&lt; std</text>
<text text-anchor="middle" x="56" y="-515.5" font-family="Helvetica,sans-Serif" font-size="10.00">::string, double &gt;</text>
<polyline fill="none" stroke="black" points="0,-507.5 112,-507.5 "/>
<text text-anchor="middle" x="56" y="-494.5" font-family="Helvetica,sans-Serif" font-size="10.00"> </text>
<polyline fill="none" stroke="black" points="0,-486.5 112,-486.5 "/>
<text text-anchor="start" x="8" y="-473.5" font-family="Helvetica,sans-Serif" font-size="10.00">+ decode()</text>
<text text-anchor="start" x="8" y="-460.5" font-family="Helvetica,sans-Serif" font-size="10.00">+ encode()</text>
</a>
</g>
<!-- Node2&#45;&gt;Node1 -->
<g id="edge2" class="edge"><title>Node2&#45;&gt;Node1</title>
<path fill="none" stroke="#8b1a1a" d="M56,-442.156C56,-433.005 56,-423.255 56,-413.356"/>
<polygon fill="none" stroke="#8b1a1a" points="52.5001,-442.209 56,-452.209 59.5001,-442.209 52.5001,-442.209"/>
</g>
<!-- Node3 -->
<g id="node4" class="node"><title>Node3</title>
<a xlink:href="classAbstractEncoder.html" target="_top" xlink:title="{AbstractEncoder\&lt; T1,\l T2 \&gt;\n||+ decode()\l+ encode()\l}">
<polygon fill="none" stroke="black" points="-0.5,-592.5 -0.5,-681.5 112.5,-681.5 112.5,-592.5 -0.5,-592.5"/>
<text text-anchor="start" x="7.5" y="-668.5" font-family="Helvetica,sans-Serif" font-size="10.00">AbstractEncoder&lt; T1,</text>
<text text-anchor="middle" x="56" y="-655.5" font-family="Helvetica,sans-Serif" font-size="10.00"> T2 &gt;</text>
<polyline fill="none" stroke="black" points="-0.5,-647.5 112.5,-647.5 "/>
<text text-anchor="middle" x="56" y="-634.5" font-family="Helvetica,sans-Serif" font-size="10.00"> </text>
<polyline fill="none" stroke="black" points="-0.5,-626.5 112.5,-626.5 "/>
<text text-anchor="start" x="7.5" y="-613.5" font-family="Helvetica,sans-Serif" font-size="10.00">+ decode()</text>
<text text-anchor="start" x="7.5" y="-600.5" font-family="Helvetica,sans-Serif" font-size="10.00">+ encode()</text>
</a>
</g>
<!-- Node3&#45;&gt;Node2 -->
<g id="edge4" class="edge"><title>Node3&#45;&gt;Node2</title>
<path fill="none" stroke="orange" d="M56,-582.245C56,-568.827 56,-554.623 56,-541.737"/>
<polygon fill="orange" stroke="orange" points="52.5001,-582.318 56,-592.318 59.5001,-582.318 52.5001,-582.318"/>
<text text-anchor="middle" x="106" y="-564.5" font-family="Helvetica,sans-Serif" font-size="10.00"> &lt; std::string, double &gt;</text>
</g>
</g>
</svg>
