<?xml version="1.0" encoding="UTF-8" standalone="no"?>
<!DOCTYPE svg PUBLIC "-//W3C//DTD SVG 1.1//EN"
 "http://www.w3.org/Graphics/SVG/1.1/DTD/svg11.dtd">
<!-- Generated by graphviz version 2.26.3 (20100126.1600)
 -->
<!-- Title: G Pages: 1 -->
<svg width="354pt" height="390pt"
 viewBox="0.00 0.00 354.00 390.00" xmlns="http://www.w3.org/2000/svg" xmlns:xlink="http://www.w3.org/1999/xlink">
<g id="graph1" class="graph" transform="scale(1 1) rotate(0) translate(4 386)">
<title>G</title>
<!-- Node1 -->
<g id="node1" class="node"><title>Node1</title>
<polygon fill="#bfbfbf" stroke="black" points="0.5,-180.5 0.5,-201.5 101.5,-201.5 101.5,-180.5 0.5,-180.5"/>
<text text-anchor="middle" x="51" y="-188.5" font-family="Helvetica,sans-Serif" font-size="10.00">XDevice::operator=</text>
</g>
<!-- Node2 -->
<g id="node3" class="node"><title>Node2</title>
<a xlink:href="classNumericEncoder.html#a81b4d01eeb3c24debb06f473eb0e71b3" target="_top" xlink:title="NumericEncoder::get_factor">
<polygon fill="none" stroke="black" points="172.5,-360.5 172.5,-381.5 311.5,-381.5 311.5,-360.5 172.5,-360.5"/>
<text text-anchor="middle" x="242" y="-368.5" font-family="Helvetica,sans-Serif" font-size="10.00">NumericEncoder::get_factor</text>
</a>
</g>
<!-- Node1&#45;&gt;Node2 -->
<g id="edge2" class="edge"><title>Node1&#45;&gt;Node2</title>
<path fill="none" stroke="midnightblue" d="M53.4297,-201.671C60.6584,-230.818 84.912,-312.181 138,-351 145.412,-356.42 153.889,-360.486 162.734,-363.52"/>
<polygon fill="midnightblue" stroke="midnightblue" points="161.861,-366.912 172.444,-366.424 163.866,-360.206 161.861,-366.912"/>
</g>
<!-- Node3 -->
<g id="node5" class="node"><title>Node3</title>
<a xlink:href="classAbstractDevice.html#a23024414d327ec0fdb6c8413a2d20841" target="_top" xlink:title="Getter for identifier.">
<polygon fill="none" stroke="black" points="169,-320.5 169,-341.5 315,-341.5 315,-320.5 169,-320.5"/>
<text text-anchor="middle" x="242" y="-328.5" font-family="Helvetica,sans-Serif" font-size="10.00">AbstractDevice::get_identifier</text>
</a>
</g>
<!-- Node1&#45;&gt;Node3 -->
<g id="edge4" class="edge"><title>Node1&#45;&gt;Node3</title>
<path fill="none" stroke="midnightblue" d="M55.4349,-201.748C65.9037,-225.669 94.5811,-283.369 138,-311 144.544,-315.164 151.756,-318.5 159.237,-321.165"/>
<polygon fill="midnightblue" stroke="midnightblue" points="158.238,-324.52 168.828,-324.196 160.347,-317.846 158.238,-324.52"/>
</g>
<!-- Node4 -->
<g id="node7" class="node"><title>Node4</title>
<a xlink:href="classCharacterDevice.html#ae782a9a05ba81ab0a13e72bd922b10ab" target="_top" xlink:title="getter for location of device file.">
<polygon fill="none" stroke="black" points="167.5,-280.5 167.5,-301.5 316.5,-301.5 316.5,-280.5 167.5,-280.5"/>
<text text-anchor="middle" x="242" y="-288.5" font-family="Helvetica,sans-Serif" font-size="10.00">CharacterDevice::get_location</text>
</a>
</g>
<!-- Node1&#45;&gt;Node4 -->
<g id="edge6" class="edge"><title>Node1&#45;&gt;Node4</title>
<path fill="none" stroke="midnightblue" d="M59.0857,-201.539C73.1063,-219.006 103.733,-253.734 138,-271 144.123,-274.085 150.668,-276.696 157.384,-278.905"/>
<polygon fill="midnightblue" stroke="midnightblue" points="156.732,-282.363 167.315,-281.862 158.73,-275.654 156.732,-282.363"/>
</g>
<!-- Node5 -->
<g id="node9" class="node"><title>Node5</title>
<a xlink:href="classNumericEncoder.html#ae19d475a0d15cca23998640ee035b238" target="_top" xlink:title="NumericEncoder::get_offset">
<polygon fill="none" stroke="black" points="172.5,-240.5 172.5,-261.5 311.5,-261.5 311.5,-240.5 172.5,-240.5"/>
<text text-anchor="middle" x="242" y="-248.5" font-family="Helvetica,sans-Serif" font-size="10.00">NumericEncoder::get_offset</text>
</a>
</g>
<!-- Node1&#45;&gt;Node5 -->
<g id="edge8" class="edge"><title>Node1&#45;&gt;Node5</title>
<path fill="none" stroke="midnightblue" d="M70.4962,-201.619C87.7799,-210.626 113.939,-223.28 138,-231 146.55,-233.743 155.622,-236.168 164.707,-238.295"/>
<polygon fill="midnightblue" stroke="midnightblue" points="164.024,-241.728 174.545,-240.488 165.546,-234.896 164.024,-241.728"/>
</g>
<!-- Node6 -->
<g id="node11" class="node"><title>Node6</title>
<a xlink:href="classXDevice.html#a27b138c05ca27d932996427b0e4cafba" target="_top" xlink:title="XDevice::get_unit">
<polygon fill="none" stroke="black" points="194.5,-200.5 194.5,-221.5 289.5,-221.5 289.5,-200.5 194.5,-200.5"/>
<text text-anchor="middle" x="242" y="-208.5" font-family="Helvetica,sans-Serif" font-size="10.00">XDevice::get_unit</text>
</a>
</g>
<!-- Node1&#45;&gt;Node6 -->
<g id="edge10" class="edge"><title>Node1&#45;&gt;Node6</title>
<path fill="none" stroke="midnightblue" d="M101.683,-196.307C127.05,-198.963 157.873,-202.191 184.162,-204.944"/>
<polygon fill="midnightblue" stroke="midnightblue" points="184.058,-208.452 194.368,-206.012 184.787,-201.49 184.058,-208.452"/>
</g>
<!-- Node7 -->
<g id="node13" class="node"><title>Node7</title>
<a xlink:href="classNumericEncoder.html#a6e4d1c201c00438cfcb05a5e8432e754" target="_top" xlink:title="NumericEncoder::set_factor">
<polygon fill="none" stroke="black" points="172.5,-160.5 172.5,-181.5 311.5,-181.5 311.5,-160.5 172.5,-160.5"/>
<text text-anchor="middle" x="242" y="-168.5" font-family="Helvetica,sans-Serif" font-size="10.00">NumericEncoder::set_factor</text>
</a>
</g>
<!-- Node1&#45;&gt;Node7 -->
<g id="edge12" class="edge"><title>Node1&#45;&gt;Node7</title>
<path fill="none" stroke="midnightblue" d="M101.683,-185.693C120.298,-183.744 141.852,-181.487 162.395,-179.336"/>
<polygon fill="midnightblue" stroke="midnightblue" points="162.801,-182.812 172.382,-178.29 162.072,-175.85 162.801,-182.812"/>
</g>
<!-- Node8 -->
<g id="node15" class="node"><title>Node8</title>
<a xlink:href="classAbstractDevice.html#a16f074c1997ac9aeda13f44f8bdd55a4" target="_top" xlink:title="Setter for identifier.">
<polygon fill="none" stroke="black" points="138.5,-120.5 138.5,-141.5 345.5,-141.5 345.5,-120.5 138.5,-120.5"/>
<text text-anchor="middle" x="242" y="-128.5" font-family="Helvetica,sans-Serif" font-size="10.00">AbstractDevice&lt; std::string &gt;::set_identifier</text>
</a>
</g>
<!-- Node1&#45;&gt;Node8 -->
<g id="edge14" class="edge"><title>Node1&#45;&gt;Node8</title>
<path fill="none" stroke="midnightblue" d="M70.4962,-180.381C87.7799,-171.374 113.939,-158.72 138,-151 146.55,-148.257 155.622,-145.832 164.707,-143.705"/>
<polygon fill="midnightblue" stroke="midnightblue" points="165.546,-147.104 174.545,-141.512 164.024,-140.272 165.546,-147.104"/>
</g>
<!-- Node9 -->
<g id="node17" class="node"><title>Node9</title>
<a xlink:href="classCharacterDevice.html#a0eb87bc759af85b16b31b4961da7b6ac" target="_top" xlink:title="setter for location of device file.">
<polygon fill="none" stroke="black" points="167.5,-80.5 167.5,-101.5 316.5,-101.5 316.5,-80.5 167.5,-80.5"/>
<text text-anchor="middle" x="242" y="-88.5" font-family="Helvetica,sans-Serif" font-size="10.00">CharacterDevice::set_location</text>
</a>
</g>
<!-- Node1&#45;&gt;Node9 -->
<g id="edge16" class="edge"><title>Node1&#45;&gt;Node9</title>
<path fill="none" stroke="midnightblue" d="M59.0857,-180.461C73.1063,-162.994 103.733,-128.266 138,-111 144.123,-107.915 150.668,-105.304 157.384,-103.095"/>
<polygon fill="midnightblue" stroke="midnightblue" points="158.73,-106.346 167.315,-100.138 156.732,-99.6375 158.73,-106.346"/>
</g>
<!-- Node10 -->
<g id="node19" class="node"><title>Node10</title>
<a xlink:href="classNumericEncoder.html#aed047690123c969323158c0a41be6892" target="_top" xlink:title="NumericEncoder::set_offset">
<polygon fill="none" stroke="black" points="172.5,-40.5 172.5,-61.5 311.5,-61.5 311.5,-40.5 172.5,-40.5"/>
<text text-anchor="middle" x="242" y="-48.5" font-family="Helvetica,sans-Serif" font-size="10.00">NumericEncoder::set_offset</text>
</a>
</g>
<!-- Node1&#45;&gt;Node10 -->
<g id="edge18" class="edge"><title>Node1&#45;&gt;Node10</title>
<path fill="none" stroke="midnightblue" d="M55.4349,-180.252C65.9037,-156.331 94.5811,-98.6307 138,-71 145.495,-66.2305 153.865,-62.549 162.513,-59.7146"/>
<polygon fill="midnightblue" stroke="midnightblue" points="163.733,-63.0054 172.364,-56.8616 161.785,-56.2817 163.733,-63.0054"/>
</g>
<!-- Node11 -->
<g id="node21" class="node"><title>Node11</title>
<a xlink:href="classXDevice.html#a9eeb50be0e780d27f2f6cf403c822b51" target="_top" xlink:title="XDevice::set_unit">
<polygon fill="none" stroke="black" points="194.5,-0.5 194.5,-21.5 289.5,-21.5 289.5,-0.5 194.5,-0.5"/>
<text text-anchor="middle" x="242" y="-8.5" font-family="Helvetica,sans-Serif" font-size="10.00">XDevice::set_unit</text>
</a>
</g>
<!-- Node1&#45;&gt;Node11 -->
<g id="edge20" class="edge"><title>Node1&#45;&gt;Node11</title>
<path fill="none" stroke="midnightblue" d="M53.4297,-180.329C60.6584,-151.182 84.912,-69.8193 138,-31 151.336,-21.2487 168.122,-15.8787 184.293,-13.0157"/>
<polygon fill="midnightblue" stroke="midnightblue" points="184.868,-16.4689 194.247,-11.5403 183.842,-9.54452 184.868,-16.4689"/>
</g>
</g>
</svg>
