<?xml version="1.0" encoding="UTF-8" standalone="no"?>
<!DOCTYPE svg PUBLIC "-//W3C//DTD SVG 1.1//EN"
 "http://www.w3.org/Graphics/SVG/1.1/DTD/svg11.dtd">
<!-- Generated by graphviz version 2.26.3 (20100126.1600)
 -->
<!-- Title: G Pages: 1 -->
<svg width="256pt" height="484pt"
 viewBox="0.00 0.00 256.00 484.00" xmlns="http://www.w3.org/2000/svg" xmlns:xlink="http://www.w3.org/1999/xlink">
<g id="graph1" class="graph" transform="scale(1 1) rotate(0) translate(4 480)">
<title>G</title>
<!-- Node1 -->
<g id="node1" class="node"><title>Node1</title>
<polygon fill="#bfbfbf" stroke="black" points="136,-1 136,-207 246,-207 246,-1 136,-1"/>
<text text-anchor="middle" x="191" y="-194" font-family="Helvetica,sans-Serif" font-size="10.00">NumericEncoder</text>
<polyline fill="none" stroke="black" points="136,-186 246,-186 "/>
<text text-anchor="start" x="144" y="-173" font-family="Helvetica,sans-Serif" font-size="10.00">&#45; _factor</text>
<text text-anchor="start" x="144" y="-160" font-family="Helvetica,sans-Serif" font-size="10.00">&#45; _offset</text>
<polyline fill="none" stroke="black" points="136,-152 246,-152 "/>
<text text-anchor="start" x="144" y="-139" font-family="Helvetica,sans-Serif" font-size="10.00">+ decode()</text>
<text text-anchor="start" x="144" y="-126" font-family="Helvetica,sans-Serif" font-size="10.00">+ encode()</text>
<text text-anchor="start" x="144" y="-113" font-family="Helvetica,sans-Serif" font-size="10.00">+ get_factor()</text>
<text text-anchor="start" x="144" y="-100" font-family="Helvetica,sans-Serif" font-size="10.00">+ get_offset()</text>
<text text-anchor="start" x="144" y="-87" font-family="Helvetica,sans-Serif" font-size="10.00">+ NumericEncoder()</text>
<text text-anchor="start" x="144" y="-74" font-family="Helvetica,sans-Serif" font-size="10.00">+ NumericEncoder()</text>
<text text-anchor="start" x="144" y="-61" font-family="Helvetica,sans-Serif" font-size="10.00">+ NumericEncoder()</text>
<text text-anchor="start" x="144" y="-48" font-family="Helvetica,sans-Serif" font-size="10.00">+ operator=()</text>
<text text-anchor="start" x="144" y="-35" font-family="Helvetica,sans-Serif" font-size="10.00">+ set_factor()</text>
<text text-anchor="start" x="144" y="-22" font-family="Helvetica,sans-Serif" font-size="10.00">+ set_offset()</text>
<text text-anchor="start" x="144" y="-9" font-family="Helvetica,sans-Serif" font-size="10.00">+ ~NumericEncoder()</text>
</g>
<!-- Node2 -->
<g id="node2" class="node"><title>Node2</title>
<a xlink:href="classAbstractEncoder.html" target="_top" xlink:title="{AbstractEncoder\&lt; std::string, double \&gt;\n||+ decode()\l+ encode()\l}">
<polygon fill="none" stroke="black" points="-0.5,-271 -0.5,-347 184.5,-347 184.5,-271 -0.5,-271"/>
<text text-anchor="middle" x="92" y="-334" font-family="Helvetica,sans-Serif" font-size="10.00">AbstractEncoder&lt; std::string, double &gt;</text>
<polyline fill="none" stroke="black" points="-0.5,-326 184.5,-326 "/>
<text text-anchor="middle" x="92" y="-313" font-family="Helvetica,sans-Serif" font-size="10.00"> </text>
<polyline fill="none" stroke="black" points="-0.5,-305 184.5,-305 "/>
<text text-anchor="start" x="7.5" y="-292" font-family="Helvetica,sans-Serif" font-size="10.00">+ decode()</text>
<text text-anchor="start" x="7.5" y="-279" font-family="Helvetica,sans-Serif" font-size="10.00">+ encode()</text>
</a>
</g>
<!-- Node2&#45;&gt;Node1 -->
<g id="edge2" class="edge"><title>Node2&#45;&gt;Node1</title>
<path fill="none" stroke="#8b1a1a" d="M114.878,-261.627C122.77,-245.284 131.947,-226.281 141.141,-207.243"/>
<polygon fill="none" stroke="#8b1a1a" points="111.586,-260.395 110.389,-270.922 117.89,-263.439 111.586,-260.395"/>
</g>
<!-- Node3 -->
<g id="node4" class="node"><title>Node3</title>
<a xlink:href="classAbstractEncoder.html" target="_top" xlink:title="{AbstractEncoder\&lt; T1, T2 \&gt;\n||+ decode()\l+ encode()\l}">
<polygon fill="none" stroke="black" points="24,-399 24,-475 160,-475 160,-399 24,-399"/>
<text text-anchor="middle" x="92" y="-462" font-family="Helvetica,sans-Serif" font-size="10.00">AbstractEncoder&lt; T1, T2 &gt;</text>
<polyline fill="none" stroke="black" points="24,-454 160,-454 "/>
<text text-anchor="middle" x="92" y="-441" font-family="Helvetica,sans-Serif" font-size="10.00"> </text>
<polyline fill="none" stroke="black" points="24,-433 160,-433 "/>
<text text-anchor="start" x="32" y="-420" font-family="Helvetica,sans-Serif" font-size="10.00">+ decode()</text>
<text text-anchor="start" x="32" y="-407" font-family="Helvetica,sans-Serif" font-size="10.00">+ encode()</text>
</a>
</g>
<!-- Node3&#45;&gt;Node2 -->
<g id="edge4" class="edge"><title>Node3&#45;&gt;Node2</title>
<path fill="none" stroke="orange" d="M92,-388.682C92,-374.942 92,-360.175 92,-347.132"/>
<polygon fill="orange" stroke="orange" points="88.5001,-388.942 92,-398.942 95.5001,-388.942 88.5001,-388.942"/>
<text text-anchor="middle" x="142" y="-370.5" font-family="Helvetica,sans-Serif" font-size="10.00"> &lt; std::string, double &gt;</text>
</g>
<!-- Node4 -->
<g id="node6" class="node"><title>Node4</title>
<polygon fill="none" stroke="#bfbfbf" points="201.5,-277.5 201.5,-340.5 246.5,-340.5 246.5,-277.5 201.5,-277.5"/>
<text text-anchor="middle" x="224" y="-327.5" font-family="Helvetica,sans-Serif" font-size="10.00">double</text>
<polyline fill="none" stroke="#bfbfbf" points="201.5,-319.5 246.5,-319.5 "/>
<text text-anchor="middle" x="224" y="-306.5" font-family="Helvetica,sans-Serif" font-size="10.00"> </text>
<polyline fill="none" stroke="#bfbfbf" points="201.5,-298.5 246.5,-298.5 "/>
<text text-anchor="middle" x="224" y="-285.5" font-family="Helvetica,sans-Serif" font-size="10.00"> </text>
</g>
<!-- Node4&#45;&gt;Node1 -->
<g id="edge6" class="edge"><title>Node4&#45;&gt;Node1</title>
<path fill="none" stroke="#404040" d="M218.916,-277.418C216.323,-261.308 212.992,-240.614 209.539,-219.169"/>
<polygon fill="none" stroke="#404040" points="209.52,-219.049 204.617,-213.761 207.613,-207.201 212.516,-212.489 209.52,-219.049"/>
<text text-anchor="middle" x="231" y="-243" font-family="Helvetica,sans-Serif" font-size="10.00"> _factor</text>
<text text-anchor="middle" x="231" y="-230" font-family="Helvetica,sans-Serif" font-size="10.00">_offset</text>
</g>
</g>
</svg>
