<?xml version="1.0" encoding="UTF-8" standalone="no"?>
<!DOCTYPE svg PUBLIC "-//W3C//DTD SVG 1.1//EN"
 "http://www.w3.org/Graphics/SVG/1.1/DTD/svg11.dtd">
<!-- Generated by graphviz version 2.26.3 (20100126.1600)
 -->
<!-- Title: AbstractDevice&lt; T &gt; Pages: 1 -->
<svg width="116pt" height="368pt"
 viewBox="0.00 0.00 116.00 368.00" xmlns="http://www.w3.org/2000/svg" xmlns:xlink="http://www.w3.org/1999/xlink">
<g id="graph1" class="graph" transform="scale(1 1) rotate(0) translate(4 364)">
<title>AbstractDevice&lt; T &gt;</title>
<!-- Node1 -->
<g id="node1" class="node"><title>Node1</title>
<polygon fill="#bfbfbf" stroke="black" points="0,-1 0,-129 108,-129 108,-1 0,-1"/>
<text text-anchor="middle" x="54" y="-116" font-family="Helvetica,sans-Serif" font-size="10.00">AbstractDevice&lt; T &gt;</text>
<polyline fill="none" stroke="black" points="0,-108 108,-108 "/>
<text text-anchor="middle" x="54" y="-95" font-family="Helvetica,sans-Serif" font-size="10.00"> </text>
<polyline fill="none" stroke="black" points="0,-87 108,-87 "/>
<text text-anchor="start" x="8" y="-74" font-family="Helvetica,sans-Serif" font-size="10.00">+ AbstractDevice()</text>
<text text-anchor="start" x="8" y="-61" font-family="Helvetica,sans-Serif" font-size="10.00">+ get_identifier()</text>
<text text-anchor="start" x="8" y="-48" font-family="Helvetica,sans-Serif" font-size="10.00">+ receive()</text>
<text text-anchor="start" x="8" y="-35" font-family="Helvetica,sans-Serif" font-size="10.00">+ send()</text>
<text text-anchor="start" x="8" y="-22" font-family="Helvetica,sans-Serif" font-size="10.00">+ set_identifier()</text>
<text text-anchor="start" x="8" y="-9" font-family="Helvetica,sans-Serif" font-size="10.00">+ ~AbstractDevice()</text>
</g>
<!-- Node2 -->
<g id="node2" class="node"><title>Node2</title>
<a xlink:title="STL class.">
<polygon fill="none" stroke="#bfbfbf" points="24,-180.5 24,-243.5 84,-243.5 84,-180.5 24,-180.5"/>
<text text-anchor="middle" x="54" y="-230.5" font-family="Helvetica,sans-Serif" font-size="10.00">std::string</text>
<polyline fill="none" stroke="#bfbfbf" points="24,-222.5 84,-222.5 "/>
<text text-anchor="middle" x="54" y="-209.5" font-family="Helvetica,sans-Serif" font-size="10.00"> </text>
<polyline fill="none" stroke="#bfbfbf" points="24,-201.5 84,-201.5 "/>
<text text-anchor="middle" x="54" y="-188.5" font-family="Helvetica,sans-Serif" font-size="10.00"> </text>
</a>
</g>
<!-- Node2&#45;&gt;Node1 -->
<g id="edge2" class="edge"><title>Node2&#45;&gt;Node1</title>
<path fill="none" stroke="#404040" d="M54,-180.465C54,-168.851 54,-155.134 54,-141.285"/>
<polygon fill="none" stroke="#404040" points="54.0001,-141.131 50,-135.131 54,-129.131 58,-135.131 54.0001,-141.131"/>
<text text-anchor="middle" x="77" y="-152.5" font-family="Helvetica,sans-Serif" font-size="10.00"> _identifier</text>
</g>
<!-- Node3 -->
<g id="node4" class="node"><title>Node3</title>
<a xlink:title="STL class.">
<polygon fill="none" stroke="#bfbfbf" points="6.5,-283 6.5,-359 101.5,-359 101.5,-283 6.5,-283"/>
<text text-anchor="start" x="14.5" y="-346" font-family="Helvetica,sans-Serif" font-size="10.00">std::basic_string&lt;</text>
<text text-anchor="middle" x="54" y="-333" font-family="Helvetica,sans-Serif" font-size="10.00"> char &gt;</text>
<polyline fill="none" stroke="#bfbfbf" points="6.5,-325 101.5,-325 "/>
<text text-anchor="middle" x="54" y="-312" font-family="Helvetica,sans-Serif" font-size="10.00"> </text>
<polyline fill="none" stroke="#bfbfbf" points="6.5,-304 101.5,-304 "/>
<text text-anchor="middle" x="54" y="-291" font-family="Helvetica,sans-Serif" font-size="10.00"> </text>
</a>
</g>
<!-- Node3&#45;&gt;Node2 -->
<g id="edge4" class="edge"><title>Node3&#45;&gt;Node2</title>
<path fill="none" stroke="midnightblue" d="M54,-272.792C54,-262.965 54,-252.862 54,-243.784"/>
<polygon fill="none" stroke="midnightblue" points="50.5001,-272.877 54,-282.877 57.5001,-272.877 50.5001,-272.877"/>
</g>
</g>
</svg>
