<?xml version="1.0" encoding="UTF-8" standalone="no"?>
<!DOCTYPE svg PUBLIC "-//W3C//DTD SVG 1.1//EN"
 "http://www.w3.org/Graphics/SVG/1.1/DTD/svg11.dtd">
<!-- Generated by graphviz version 2.26.3 (20100126.1600)
 -->
<!-- Title: XDevice::operator= Pages: 1 -->
<svg width="264pt" height="486pt"
 viewBox="0.00 0.00 264.00 486.00" xmlns="http://www.w3.org/2000/svg" xmlns:xlink="http://www.w3.org/1999/xlink">
<g id="graph1" class="graph" transform="scale(1 1) rotate(0) translate(4 482)">
<title>XDevice::operator=</title>
<!-- Node1 -->
<g id="node1" class="node"><title>Node1</title>
<polygon fill="#bfbfbf" stroke="black" points="0.5,-225.5 0.5,-246.5 101.5,-246.5 101.5,-225.5 0.5,-225.5"/>
<text text-anchor="middle" x="51" y="-233.5" font-family="Helvetica,sans-Serif" font-size="10.00">XDevice::operator=</text>
</g>
<!-- Node2 -->
<g id="node3" class="node"><title>Node2</title>
<a xlink:href="classNumericEncoder.html#a81b4d01eeb3c24debb06f473eb0e71b3" target="_top" xlink:title="NumericEncoder::get\l_factor">
<polygon fill="none" stroke="black" points="142.5,-444 142.5,-478 251.5,-478 251.5,-444 142.5,-444"/>
<text text-anchor="start" x="150.5" y="-465" font-family="Helvetica,sans-Serif" font-size="10.00">NumericEncoder::get</text>
<text text-anchor="middle" x="197" y="-452" font-family="Helvetica,sans-Serif" font-size="10.00">_factor</text>
</a>
</g>
<!-- Node1&#45;&gt;Node2 -->
<g id="edge2" class="edge"><title>Node1&#45;&gt;Node2</title>
<path fill="none" stroke="midnightblue" d="M52.8248,-246.599C58.9346,-279.069 81.559,-378.394 138,-435 138.934,-435.936 139.907,-436.842 140.914,-437.717"/>
<polygon fill="midnightblue" stroke="midnightblue" points="139.081,-440.715 149.202,-443.849 143.245,-435.088 139.081,-440.715"/>
</g>
<!-- Node3 -->
<g id="node5" class="node"><title>Node3</title>
<a xlink:href="classAbstractDevice.html#a23024414d327ec0fdb6c8413a2d20841" target="_top" xlink:title="Getter for identifier.">
<polygon fill="none" stroke="black" points="145,-392 145,-426 249,-426 249,-392 145,-392"/>
<text text-anchor="start" x="153" y="-413" font-family="Helvetica,sans-Serif" font-size="10.00">AbstractDevice::get</text>
<text text-anchor="middle" x="197" y="-400" font-family="Helvetica,sans-Serif" font-size="10.00">_identifier</text>
</a>
</g>
<!-- Node1&#45;&gt;Node3 -->
<g id="edge4" class="edge"><title>Node1&#45;&gt;Node3</title>
<path fill="none" stroke="midnightblue" d="M54.7092,-246.762C64.3703,-273.342 92.7475,-342.849 138,-383 139.295,-384.149 140.649,-385.254 142.05,-386.317"/>
<polygon fill="midnightblue" stroke="midnightblue" points="140.242,-389.318 150.507,-391.941 144.118,-383.489 140.242,-389.318"/>
</g>
<!-- Node4 -->
<g id="node7" class="node"><title>Node4</title>
<a xlink:href="classCharacterDevice.html#ae782a9a05ba81ab0a13e72bd922b10ab" target="_top" xlink:title="getter for location of device file.">
<polygon fill="none" stroke="black" points="142,-340 142,-374 252,-374 252,-340 142,-340"/>
<text text-anchor="start" x="150" y="-361" font-family="Helvetica,sans-Serif" font-size="10.00">CharacterDevice::get</text>
<text text-anchor="middle" x="197" y="-348" font-family="Helvetica,sans-Serif" font-size="10.00">_location</text>
</a>
</g>
<!-- Node1&#45;&gt;Node4 -->
<g id="edge6" class="edge"><title>Node1&#45;&gt;Node4</title>
<path fill="none" stroke="midnightblue" d="M58.4812,-246.749C72.2728,-265.9 103.471,-306.235 138,-331 139.848,-332.325 141.773,-333.604 143.753,-334.835"/>
<polygon fill="midnightblue" stroke="midnightblue" points="142.284,-338.025 152.707,-339.925 145.744,-331.94 142.284,-338.025"/>
</g>
<!-- Node5 -->
<g id="node9" class="node"><title>Node5</title>
<a xlink:href="classNumericEncoder.html#ae19d475a0d15cca23998640ee035b238" target="_top" xlink:title="NumericEncoder::get\l_offset">
<polygon fill="none" stroke="black" points="142.5,-288 142.5,-322 251.5,-322 251.5,-288 142.5,-288"/>
<text text-anchor="start" x="150.5" y="-309" font-family="Helvetica,sans-Serif" font-size="10.00">NumericEncoder::get</text>
<text text-anchor="middle" x="197" y="-296" font-family="Helvetica,sans-Serif" font-size="10.00">_offset</text>
</a>
</g>
<!-- Node1&#45;&gt;Node5 -->
<g id="edge8" class="edge"><title>Node1&#45;&gt;Node5</title>
<path fill="none" stroke="midnightblue" d="M71.6187,-246.51C89.1694,-255.378 115.103,-268.303 138,-279 141.34,-280.561 144.798,-282.15 148.287,-283.735"/>
<polygon fill="midnightblue" stroke="midnightblue" points="146.983,-286.986 157.538,-287.897 149.855,-280.602 146.983,-286.986"/>
</g>
<!-- Node6 -->
<g id="node11" class="node"><title>Node6</title>
<a xlink:href="classXDevice.html#a27b138c05ca27d932996427b0e4cafba" target="_top" xlink:title="Getter for member &#39;unit&#39;.">
<polygon fill="none" stroke="black" points="149.5,-248.5 149.5,-269.5 244.5,-269.5 244.5,-248.5 149.5,-248.5"/>
<text text-anchor="middle" x="197" y="-256.5" font-family="Helvetica,sans-Serif" font-size="10.00">XDevice::get_unit</text>
</a>
</g>
<!-- Node1&#45;&gt;Node6 -->
<g id="edge10" class="edge"><title>Node1&#45;&gt;Node6</title>
<path fill="none" stroke="midnightblue" d="M101.654,-243.98C113.751,-245.885 126.753,-247.934 139.147,-249.886"/>
<polygon fill="midnightblue" stroke="midnightblue" points="138.958,-253.399 149.38,-251.498 140.047,-246.485 138.958,-253.399"/>
</g>
<!-- Node7 -->
<g id="node13" class="node"><title>Node7</title>
<a xlink:href="classNumericEncoder.html#a6e4d1c201c00438cfcb05a5e8432e754" target="_top" xlink:title="NumericEncoder::set\l_factor">
<polygon fill="none" stroke="black" points="142.5,-196 142.5,-230 251.5,-230 251.5,-196 142.5,-196"/>
<text text-anchor="start" x="150.5" y="-217" font-family="Helvetica,sans-Serif" font-size="10.00">NumericEncoder::set</text>
<text text-anchor="middle" x="197" y="-204" font-family="Helvetica,sans-Serif" font-size="10.00">_factor</text>
</a>
</g>
<!-- Node1&#45;&gt;Node7 -->
<g id="edge12" class="edge"><title>Node1&#45;&gt;Node7</title>
<path fill="none" stroke="midnightblue" d="M101.654,-228.02C111.537,-226.463 122.025,-224.811 132.291,-223.194"/>
<polygon fill="midnightblue" stroke="midnightblue" points="133.12,-226.607 142.453,-221.593 132.03,-219.692 133.12,-226.607"/>
</g>
<!-- Node8 -->
<g id="node15" class="node"><title>Node8</title>
<a xlink:href="classAbstractDevice.html#a16f074c1997ac9aeda13f44f8bdd55a4" target="_top" xlink:title="Setter for identifier.">
<polygon fill="none" stroke="black" points="138.5,-144 138.5,-178 255.5,-178 255.5,-144 138.5,-144"/>
<text text-anchor="start" x="146.5" y="-165" font-family="Helvetica,sans-Serif" font-size="10.00">AbstractDevice&lt; std</text>
<text text-anchor="middle" x="197" y="-152" font-family="Helvetica,sans-Serif" font-size="10.00">::string &gt;::set_identifier</text>
</a>
</g>
<!-- Node1&#45;&gt;Node8 -->
<g id="edge14" class="edge"><title>Node1&#45;&gt;Node8</title>
<path fill="none" stroke="midnightblue" d="M68.7189,-225.344C86.1071,-215.05 113.507,-199.258 138,-187 141.097,-185.45 144.307,-183.895 147.557,-182.359"/>
<polygon fill="midnightblue" stroke="midnightblue" points="149.159,-185.474 156.766,-178.099 146.22,-179.121 149.159,-185.474"/>
</g>
<!-- Node9 -->
<g id="node17" class="node"><title>Node9</title>
<a xlink:href="classCharacterDevice.html#a0eb87bc759af85b16b31b4961da7b6ac" target="_top" xlink:title="setter for location of device file.">
<polygon fill="none" stroke="black" points="142,-92 142,-126 252,-126 252,-92 142,-92"/>
<text text-anchor="start" x="150" y="-113" font-family="Helvetica,sans-Serif" font-size="10.00">CharacterDevice::set</text>
<text text-anchor="middle" x="197" y="-100" font-family="Helvetica,sans-Serif" font-size="10.00">_location</text>
</a>
</g>
<!-- Node1&#45;&gt;Node9 -->
<g id="edge16" class="edge"><title>Node1&#45;&gt;Node9</title>
<path fill="none" stroke="midnightblue" d="M57.6917,-225.49C70.884,-205.489 102.104,-161.581 138,-135 139.791,-133.674 141.66,-132.397 143.584,-131.169"/>
<polygon fill="midnightblue" stroke="midnightblue" points="145.414,-134.154 152.303,-126.105 141.898,-128.101 145.414,-134.154"/>
</g>
<!-- Node10 -->
<g id="node19" class="node"><title>Node10</title>
<a xlink:href="classNumericEncoder.html#aed047690123c969323158c0a41be6892" target="_top" xlink:title="NumericEncoder::set\l_offset">
<polygon fill="none" stroke="black" points="142.5,-40 142.5,-74 251.5,-74 251.5,-40 142.5,-40"/>
<text text-anchor="start" x="150.5" y="-61" font-family="Helvetica,sans-Serif" font-size="10.00">NumericEncoder::set</text>
<text text-anchor="middle" x="197" y="-48" font-family="Helvetica,sans-Serif" font-size="10.00">_offset</text>
</a>
</g>
<!-- Node1&#45;&gt;Node10 -->
<g id="edge18" class="edge"><title>Node1&#45;&gt;Node10</title>
<path fill="none" stroke="midnightblue" d="M54.4471,-225.201C63.6865,-197.837 91.5067,-124.979 138,-83 139.142,-81.9686 140.332,-80.9729 141.561,-80.0122"/>
<polygon fill="midnightblue" stroke="midnightblue" points="143.851,-82.6877 150.15,-74.1692 139.914,-76.8999 143.851,-82.6877"/>
</g>
<!-- Node11 -->
<g id="node21" class="node"><title>Node11</title>
<a xlink:href="classXDevice.html#a9eeb50be0e780d27f2f6cf403c822b51" target="_top" xlink:title="Setter for member &#39;unit&#39;.">
<polygon fill="none" stroke="black" points="149.5,-0.5 149.5,-21.5 244.5,-21.5 244.5,-0.5 149.5,-0.5"/>
<text text-anchor="middle" x="197" y="-8.5" font-family="Helvetica,sans-Serif" font-size="10.00">XDevice::set_unit</text>
</a>
</g>
<!-- Node1&#45;&gt;Node11 -->
<g id="edge20" class="edge"><title>Node1&#45;&gt;Node11</title>
<path fill="none" stroke="midnightblue" d="M52.4302,-225.333C57.4947,-191.736 77.6397,-87.0215 138,-31 139.675,-29.4457 141.475,-28.0118 143.368,-26.6889"/>
<polygon fill="midnightblue" stroke="midnightblue" points="145.282,-29.6244 152.167,-21.5712 141.763,-23.5734 145.282,-29.6244"/>
</g>
</g>
</svg>
