<?xml version="1.0" encoding="UTF-8" standalone="no"?>
<!DOCTYPE svg PUBLIC "-//W3C//DTD SVG 1.1//EN"
 "http://www.w3.org/Graphics/SVG/1.1/DTD/svg11.dtd">
<!-- Generated by graphviz version 2.26.3 (20100126.1600)
 -->
<!-- Title: NumericEncoder::NumericEncoder Pages: 1 -->
<svg width="322pt" height="94pt"
 viewBox="0.00 0.00 322.00 94.00" xmlns="http://www.w3.org/2000/svg" xmlns:xlink="http://www.w3.org/1999/xlink">
<g id="graph1" class="graph" transform="scale(1 1) rotate(0) translate(4 90)">
<title>NumericEncoder::NumericEncoder</title>
<!-- Node1 -->
<g id="node1" class="node"><title>Node1</title>
<polygon fill="#bfbfbf" stroke="black" points="0,-32.5 0,-53.5 168,-53.5 168,-32.5 0,-32.5"/>
<text text-anchor="middle" x="84" y="-40.5" font-family="Helvetica,sans-Serif" font-size="10.00">NumericEncoder::NumericEncoder</text>
</g>
<!-- Node2 -->
<g id="node3" class="node"><title>Node2</title>
<a xlink:href="classNumericEncoder.html#a81b4d01eeb3c24debb06f473eb0e71b3" target="_top" xlink:title="NumericEncoder::get\l_factor">
<polygon fill="none" stroke="black" points="204.5,-52 204.5,-86 313.5,-86 313.5,-52 204.5,-52"/>
<text text-anchor="start" x="212.5" y="-73" font-family="Helvetica,sans-Serif" font-size="10.00">NumericEncoder::get</text>
<text text-anchor="middle" x="259" y="-60" font-family="Helvetica,sans-Serif" font-size="10.00">_factor</text>
</a>
</g>
<!-- Node1&#45;&gt;Node2 -->
<g id="edge2" class="edge"><title>Node1&#45;&gt;Node2</title>
<path fill="none" stroke="midnightblue" d="M154.675,-53.5003C167.774,-55.4464 181.396,-57.4702 194.305,-59.3882"/>
<polygon fill="midnightblue" stroke="midnightblue" points="194.077,-62.8926 204.483,-60.9003 195.105,-55.9686 194.077,-62.8926"/>
</g>
<!-- Node3 -->
<g id="node5" class="node"><title>Node3</title>
<a xlink:href="classNumericEncoder.html#ae19d475a0d15cca23998640ee035b238" target="_top" xlink:title="NumericEncoder::get\l_offset">
<polygon fill="none" stroke="black" points="204.5,-0 204.5,-34 313.5,-34 313.5,-0 204.5,-0"/>
<text text-anchor="start" x="212.5" y="-21" font-family="Helvetica,sans-Serif" font-size="10.00">NumericEncoder::get</text>
<text text-anchor="middle" x="259" y="-8" font-family="Helvetica,sans-Serif" font-size="10.00">_offset</text>
</a>
</g>
<!-- Node1&#45;&gt;Node3 -->
<g id="edge4" class="edge"><title>Node1&#45;&gt;Node3</title>
<path fill="none" stroke="midnightblue" d="M154.675,-32.4997C167.774,-30.5536 181.396,-28.5298 194.305,-26.6118"/>
<polygon fill="midnightblue" stroke="midnightblue" points="195.105,-30.0314 204.483,-25.0997 194.077,-23.1074 195.105,-30.0314"/>
</g>
</g>
</svg>
