<?xml version="1.0" encoding="UTF-8" standalone="no"?>
<!DOCTYPE svg PUBLIC "-//W3C//DTD SVG 1.1//EN"
 "http://www.w3.org/Graphics/SVG/1.1/DTD/svg11.dtd">
<!-- Generated by graphviz version 2.26.3 (20100126.1600)
 -->
<!-- Title: NumericEncoder::set_offset Pages: 1 -->
<svg width="292pt" height="70pt"
 viewBox="0.00 0.00 292.00 70.00" xmlns="http://www.w3.org/2000/svg" xmlns:xlink="http://www.w3.org/1999/xlink">
<g id="graph1" class="graph" transform="scale(1 1) rotate(0) translate(4 66)">
<title>NumericEncoder::set_offset</title>
<!-- Node1 -->
<g id="node1" class="node"><title>Node1</title>
<polygon fill="#bfbfbf" stroke="black" points="0.5,-14 0.5,-48 109.5,-48 109.5,-14 0.5,-14"/>
<text text-anchor="start" x="8.5" y="-35" font-family="Helvetica,sans-Serif" font-size="10.00">NumericEncoder::set</text>
<text text-anchor="middle" x="55" y="-22" font-family="Helvetica,sans-Serif" font-size="10.00">_offset</text>
</g>
<!-- Node2 -->
<g id="node3" class="node"><title>Node2</title>
<a xlink:href="classNumericEncoder.html#af59c1f824abdc08b9e6607df388c7d3b" target="_top" xlink:title="NumericEncoder::operator=">
<polygon fill="none" stroke="black" points="146.5,-40.5 146.5,-61.5 283.5,-61.5 283.5,-40.5 146.5,-40.5"/>
<text text-anchor="middle" x="215" y="-48.5" font-family="Helvetica,sans-Serif" font-size="10.00">NumericEncoder::operator=</text>
</a>
</g>
<!-- Node1&#45;&gt;Node2 -->
<g id="edge2" class="edge"><title>Node1&#45;&gt;Node2</title>
<path fill="none" stroke="midnightblue" d="M119.792,-39.099C128.583,-40.1979 137.629,-41.3286 146.483,-42.4354"/>
<polygon fill="midnightblue" stroke="midnightblue" points="119.972,-35.5944 109.615,-37.8269 119.104,-42.5403 119.972,-35.5944"/>
</g>
<!-- Node3 -->
<g id="node5" class="node"><title>Node3</title>
<a xlink:href="classXDevice.html#af7a43e5e156a72b59e7b7330eedbd1dc" target="_top" xlink:title="Assignment&#45;Operator.">
<polygon fill="none" stroke="black" points="164.5,-0.5 164.5,-21.5 265.5,-21.5 265.5,-0.5 164.5,-0.5"/>
<text text-anchor="middle" x="215" y="-8.5" font-family="Helvetica,sans-Serif" font-size="10.00">XDevice::operator=</text>
</a>
</g>
<!-- Node1&#45;&gt;Node3 -->
<g id="edge4" class="edge"><title>Node1&#45;&gt;Node3</title>
<path fill="none" stroke="midnightblue" d="M119.766,-22.9043C134.634,-21.0458 150.231,-19.0961 164.399,-17.3251"/>
<polygon fill="midnightblue" stroke="midnightblue" points="119.104,-19.4597 109.615,-24.1731 119.972,-26.4056 119.104,-19.4597"/>
</g>
</g>
</svg>
