<?xml version="1.0" encoding="UTF-8" standalone="no"?>
<!DOCTYPE svg PUBLIC "-//W3C//DTD SVG 1.1//EN"
 "http://www.w3.org/Graphics/SVG/1.1/DTD/svg11.dtd">
<!-- Generated by graphviz version 2.26.3 (20100126.1600)
 -->
<!-- Title: G Pages: 1 -->
<svg width="352pt" height="110pt"
 viewBox="0.00 0.00 352.00 110.00" xmlns="http://www.w3.org/2000/svg" xmlns:xlink="http://www.w3.org/1999/xlink">
<g id="graph1" class="graph" transform="scale(1 1) rotate(0) translate(4 106)">
<title>G</title>
<!-- Node1 -->
<g id="node1" class="node"><title>Node1</title>
<polygon fill="#bfbfbf" stroke="black" points="0.5,-40.5 0.5,-61.5 139.5,-61.5 139.5,-40.5 0.5,-40.5"/>
<text text-anchor="middle" x="70" y="-48.5" font-family="Helvetica,sans-Serif" font-size="10.00">NumericEncoder::get_offset</text>
</g>
<!-- Node2 -->
<g id="node3" class="node"><title>Node2</title>
<a xlink:href="classNumericEncoder.html#a17cbe3517a55e783fa36f63254ce8b40" target="_top" xlink:title="NumericEncoder::NumericEncoder">
<polygon fill="none" stroke="black" points="176,-80.5 176,-101.5 344,-101.5 344,-80.5 176,-80.5"/>
<text text-anchor="middle" x="260" y="-88.5" font-family="Helvetica,sans-Serif" font-size="10.00">NumericEncoder::NumericEncoder</text>
</a>
</g>
<!-- Node1&#45;&gt;Node2 -->
<g id="edge2" class="edge"><title>Node1&#45;&gt;Node2</title>
<path fill="none" stroke="midnightblue" d="M129.955,-63.622C155.738,-69.0501 185.527,-75.3215 210.084,-80.4913"/>
<polygon fill="midnightblue" stroke="midnightblue" points="130.427,-60.1448 119.92,-61.5095 128.985,-66.9946 130.427,-60.1448"/>
</g>
<!-- Node3 -->
<g id="node5" class="node"><title>Node3</title>
<a xlink:href="classXDevice.html#af7a43e5e156a72b59e7b7330eedbd1dc" target="_top" xlink:title="XDevice::operator=">
<polygon fill="none" stroke="black" points="209.5,-40.5 209.5,-61.5 310.5,-61.5 310.5,-40.5 209.5,-40.5"/>
<text text-anchor="middle" x="260" y="-48.5" font-family="Helvetica,sans-Serif" font-size="10.00">XDevice::operator=</text>
</a>
</g>
<!-- Node1&#45;&gt;Node3 -->
<g id="edge4" class="edge"><title>Node1&#45;&gt;Node3</title>
<path fill="none" stroke="midnightblue" d="M149.798,-51C169.974,-51 191.09,-51 209.376,-51"/>
<polygon fill="midnightblue" stroke="midnightblue" points="149.67,-47.5001 139.67,-51 149.67,-54.5001 149.67,-47.5001"/>
</g>
<!-- Node4 -->
<g id="node7" class="node"><title>Node4</title>
<a xlink:href="classNumericEncoder.html#af59c1f824abdc08b9e6607df388c7d3b" target="_top" xlink:title="NumericEncoder::operator=">
<polygon fill="none" stroke="black" points="191.5,-0.5 191.5,-21.5 328.5,-21.5 328.5,-0.5 191.5,-0.5"/>
<text text-anchor="middle" x="260" y="-8.5" font-family="Helvetica,sans-Serif" font-size="10.00">NumericEncoder::operator=</text>
</a>
</g>
<!-- Node1&#45;&gt;Node4 -->
<g id="edge6" class="edge"><title>Node1&#45;&gt;Node4</title>
<path fill="none" stroke="midnightblue" d="M129.955,-38.378C155.738,-32.9499 185.527,-26.6785 210.084,-21.5087"/>
<polygon fill="midnightblue" stroke="midnightblue" points="128.985,-35.0054 119.92,-40.4905 130.427,-41.8552 128.985,-35.0054"/>
</g>
</g>
</svg>
