<?xml version="1.0" encoding="UTF-8" standalone="no"?>
<!DOCTYPE svg PUBLIC "-//W3C//DTD SVG 1.1//EN"
 "http://www.w3.org/Graphics/SVG/1.1/DTD/svg11.dtd">
<!-- Generated by graphviz version 2.26.3 (20100126.1600)
 -->
<!-- Title: XDevice Pages: 1 -->
<svg width="439pt" height="1036pt"
 viewBox="0.00 0.00 439.00 1036.00" xmlns="http://www.w3.org/2000/svg" xmlns:xlink="http://www.w3.org/1999/xlink">
<g id="graph1" class="graph" transform="scale(1 1) rotate(0) translate(4 1032)">
<title>XDevice</title>
<!-- Node1 -->
<g id="node1" class="node"><title>Node1</title>
<polygon fill="#bfbfbf" stroke="black" points="70.5,-0.5 70.5,-167.5 145.5,-167.5 145.5,-0.5 70.5,-0.5"/>
<text text-anchor="middle" x="108" y="-154.5" font-family="Helvetica,sans-Serif" font-size="10.00">XDevice</text>
<polyline fill="none" stroke="black" points="70.5,-146.5 145.5,-146.5 "/>
<text text-anchor="middle" x="108" y="-133.5" font-family="Helvetica,sans-Serif" font-size="10.00"> </text>
<polyline fill="none" stroke="black" points="70.5,-125.5 145.5,-125.5 "/>
<text text-anchor="start" x="78.5" y="-112.5" font-family="Helvetica,sans-Serif" font-size="10.00">+ get_unit()</text>
<text text-anchor="start" x="78.5" y="-99.5" font-family="Helvetica,sans-Serif" font-size="10.00">+ get_value()</text>
<text text-anchor="start" x="78.5" y="-86.5" font-family="Helvetica,sans-Serif" font-size="10.00">+ operator=()</text>
<text text-anchor="start" x="78.5" y="-73.5" font-family="Helvetica,sans-Serif" font-size="10.00">+ set_unit()</text>
<text text-anchor="start" x="78.5" y="-60.5" font-family="Helvetica,sans-Serif" font-size="10.00">+ set_value()</text>
<text text-anchor="start" x="78.5" y="-47.5" font-family="Helvetica,sans-Serif" font-size="10.00">+ XDevice()</text>
<text text-anchor="start" x="78.5" y="-34.5" font-family="Helvetica,sans-Serif" font-size="10.00">+ XDevice()</text>
<text text-anchor="start" x="78.5" y="-21.5" font-family="Helvetica,sans-Serif" font-size="10.00">+ XDevice()</text>
<text text-anchor="start" x="78.5" y="-8.5" font-family="Helvetica,sans-Serif" font-size="10.00">+ ~XDevice()</text>
</g>
<!-- Node2 -->
<g id="node2" class="node"><title>Node2</title>
<a xlink:href="classCharacterDevice.html" target="_top" xlink:title="Class CharacterDevice is a specialization of template class AbstractDevice. This class reads files of...">
<polygon fill="none" stroke="black" points="52.5,-239.5 52.5,-380.5 163.5,-380.5 163.5,-239.5 52.5,-239.5"/>
<text text-anchor="middle" x="108" y="-367.5" font-family="Helvetica,sans-Serif" font-size="10.00">CharacterDevice</text>
<polyline fill="none" stroke="black" points="52.5,-359.5 163.5,-359.5 "/>
<text text-anchor="middle" x="108" y="-346.5" font-family="Helvetica,sans-Serif" font-size="10.00"> </text>
<polyline fill="none" stroke="black" points="52.5,-338.5 163.5,-338.5 "/>
<text text-anchor="start" x="60.5" y="-325.5" font-family="Helvetica,sans-Serif" font-size="10.00">+ CharacterDevice()</text>
<text text-anchor="start" x="60.5" y="-312.5" font-family="Helvetica,sans-Serif" font-size="10.00">+ get_location()</text>
<text text-anchor="start" x="60.5" y="-299.5" font-family="Helvetica,sans-Serif" font-size="10.00">+ receive()</text>
<text text-anchor="start" x="60.5" y="-286.5" font-family="Helvetica,sans-Serif" font-size="10.00">+ send()</text>
<text text-anchor="start" x="60.5" y="-273.5" font-family="Helvetica,sans-Serif" font-size="10.00">+ set_location()</text>
<text text-anchor="start" x="60.5" y="-260.5" font-family="Helvetica,sans-Serif" font-size="10.00">+ ~CharacterDevice()</text>
<text text-anchor="start" x="60.5" y="-247.5" font-family="Helvetica,sans-Serif" font-size="10.00"># CharacterDevice()</text>
</a>
</g>
<!-- Node2&#45;&gt;Node1 -->
<g id="edge2" class="edge"><title>Node2&#45;&gt;Node1</title>
<path fill="none" stroke="midnightblue" d="M108,-229.383C108,-209.298 108,-187.723 108,-167.502"/>
<polygon fill="none" stroke="midnightblue" points="104.5,-229.422 108,-239.422 111.5,-229.422 104.5,-229.422"/>
</g>
<!-- Node3 -->
<g id="node4" class="node"><title>Node3</title>
<a xlink:href="classAbstractDevice.html" target="_top" xlink:title="{AbstractDevice\&lt; std\l::string \&gt;\n||+ AbstractDevice()\l+ get_identifier()\l+ receive()\l+ send()\l+ set_identifier()\l+ ~AbstractDevice()\l}">
<polygon fill="none" stroke="black" points="80.5,-476.5 80.5,-617.5 187.5,-617.5 187.5,-476.5 80.5,-476.5"/>
<text text-anchor="start" x="88.5" y="-604.5" font-family="Helvetica,sans-Serif" font-size="10.00">AbstractDevice&lt; std</text>
<text text-anchor="middle" x="134" y="-591.5" font-family="Helvetica,sans-Serif" font-size="10.00">::string &gt;</text>
<polyline fill="none" stroke="black" points="80.5,-583.5 187.5,-583.5 "/>
<text text-anchor="middle" x="134" y="-570.5" font-family="Helvetica,sans-Serif" font-size="10.00"> </text>
<polyline fill="none" stroke="black" points="80.5,-562.5 187.5,-562.5 "/>
<text text-anchor="start" x="88.5" y="-549.5" font-family="Helvetica,sans-Serif" font-size="10.00">+ AbstractDevice()</text>
<text text-anchor="start" x="88.5" y="-536.5" font-family="Helvetica,sans-Serif" font-size="10.00">+ get_identifier()</text>
<text text-anchor="start" x="88.5" y="-523.5" font-family="Helvetica,sans-Serif" font-size="10.00">+ receive()</text>
<text text-anchor="start" x="88.5" y="-510.5" font-family="Helvetica,sans-Serif" font-size="10.00">+ send()</text>
<text text-anchor="start" x="88.5" y="-497.5" font-family="Helvetica,sans-Serif" font-size="10.00">+ set_identifier()</text>
<text text-anchor="start" x="88.5" y="-484.5" font-family="Helvetica,sans-Serif" font-size="10.00">+ ~AbstractDevice()</text>
</a>
</g>
<!-- Node3&#45;&gt;Node2 -->
<g id="edge4" class="edge"><title>Node3&#45;&gt;Node2</title>
<path fill="none" stroke="midnightblue" d="M125.131,-466.158C122.092,-438.453 118.716,-407.683 115.771,-380.831"/>
<polygon fill="none" stroke="midnightblue" points="121.665,-466.655 126.234,-476.213 128.623,-465.891 121.665,-466.655"/>
</g>
<!-- Node4 -->
<g id="node6" class="node"><title>Node4</title>
<a xlink:title="STL class.">
<polygon fill="none" stroke="#bfbfbf" points="49,-848.5 49,-911.5 109,-911.5 109,-848.5 49,-848.5"/>
<text text-anchor="middle" x="79" y="-898.5" font-family="Helvetica,sans-Serif" font-size="10.00">std::string</text>
<polyline fill="none" stroke="#bfbfbf" points="49,-890.5 109,-890.5 "/>
<text text-anchor="middle" x="79" y="-877.5" font-family="Helvetica,sans-Serif" font-size="10.00"> </text>
<polyline fill="none" stroke="#bfbfbf" points="49,-869.5 109,-869.5 "/>
<text text-anchor="middle" x="79" y="-856.5" font-family="Helvetica,sans-Serif" font-size="10.00"> </text>
</a>
</g>
<!-- Node4&#45;&gt;Node1 -->
<g id="edge24" class="edge"><title>Node4&#45;&gt;Node1</title>
<path fill="none" stroke="#404040" d="M50.2557,-848.456C27.6677,-820.318 0,-776.894 0,-733 0,-733 0,-733 0,-310 0,-247.871 33.6382,-184.698 63.3683,-140.998"/>
<polygon fill="none" stroke="#404040" points="63.3688,-140.997 63.5154,-133.787 70.2268,-131.15 70.0802,-138.359 63.3688,-140.997"/>
<text text-anchor="middle" x="12.5" y="-544.5" font-family="Helvetica,sans-Serif" font-size="10.00"> _unit</text>
</g>
<!-- Node4&#45;&gt;Node2 -->
<g id="edge14" class="edge"><title>Node4&#45;&gt;Node2</title>
<path fill="none" stroke="#404040" d="M75.7389,-848.444C69.2842,-780.232 56.7653,-614.058 72,-476 75.0293,-448.548 80.6604,-418.965 86.5842,-392.483"/>
<polygon fill="none" stroke="#404040" points="86.6376,-392.25 84.079,-385.508 89.3182,-380.553 91.8768,-387.295 86.6376,-392.25"/>
<text text-anchor="middle" x="86.5" y="-640.5" font-family="Helvetica,sans-Serif" font-size="10.00"> _location</text>
</g>
<!-- Node4&#45;&gt;Node3 -->
<g id="edge6" class="edge"><title>Node4&#45;&gt;Node3</title>
<path fill="none" stroke="#404040" d="M84.2163,-848.392C91.0537,-806.965 103.421,-732.041 114,-668 116.038,-655.662 118.194,-642.617 120.306,-629.838"/>
<polygon fill="none" stroke="#404040" points="120.355,-629.539 117.387,-622.968 122.312,-617.7 125.28,-624.272 120.355,-629.539"/>
<text text-anchor="middle" x="137" y="-730.5" font-family="Helvetica,sans-Serif" font-size="10.00"> _identifier</text>
</g>
<!-- Node6 -->
<g id="node10" class="node"><title>Node6</title>
<a xlink:href="classAbstractDevice.html" target="_top" xlink:title="(semi)Polymorph Class representing connected devices. This class represents devices that are conneted...">
<polygon fill="none" stroke="black" points="169,-669 169,-797 277,-797 277,-669 169,-669"/>
<text text-anchor="middle" x="223" y="-784" font-family="Helvetica,sans-Serif" font-size="10.00">AbstractDevice&lt; T &gt;</text>
<polyline fill="none" stroke="black" points="169,-776 277,-776 "/>
<text text-anchor="middle" x="223" y="-763" font-family="Helvetica,sans-Serif" font-size="10.00"> </text>
<polyline fill="none" stroke="black" points="169,-755 277,-755 "/>
<text text-anchor="start" x="177" y="-742" font-family="Helvetica,sans-Serif" font-size="10.00">+ AbstractDevice()</text>
<text text-anchor="start" x="177" y="-729" font-family="Helvetica,sans-Serif" font-size="10.00">+ get_identifier()</text>
<text text-anchor="start" x="177" y="-716" font-family="Helvetica,sans-Serif" font-size="10.00">+ receive()</text>
<text text-anchor="start" x="177" y="-703" font-family="Helvetica,sans-Serif" font-size="10.00">+ send()</text>
<text text-anchor="start" x="177" y="-690" font-family="Helvetica,sans-Serif" font-size="10.00">+ set_identifier()</text>
<text text-anchor="start" x="177" y="-677" font-family="Helvetica,sans-Serif" font-size="10.00">+ ~AbstractDevice()</text>
</a>
</g>
<!-- Node4&#45;&gt;Node6 -->
<g id="edge12" class="edge"><title>Node4&#45;&gt;Node6</title>
<path fill="none" stroke="#404040" d="M109.187,-849.184C124.071,-833.99 142.602,-815.073 160.361,-796.944"/>
<polygon fill="none" stroke="#404040" points="160.6,-796.7 161.941,-789.615 168.997,-788.128 167.656,-795.213 160.6,-796.7"/>
<text text-anchor="middle" x="162" y="-820.5" font-family="Helvetica,sans-Serif" font-size="10.00"> _identifier</text>
</g>
<!-- Node5 -->
<g id="node8" class="node"><title>Node5</title>
<a xlink:title="STL class.">
<polygon fill="none" stroke="#bfbfbf" points="31.5,-951 31.5,-1027 126.5,-1027 126.5,-951 31.5,-951"/>
<text text-anchor="start" x="39.5" y="-1014" font-family="Helvetica,sans-Serif" font-size="10.00">std::basic_string&lt;</text>
<text text-anchor="middle" x="79" y="-1001" font-family="Helvetica,sans-Serif" font-size="10.00"> char &gt;</text>
<polyline fill="none" stroke="#bfbfbf" points="31.5,-993 126.5,-993 "/>
<text text-anchor="middle" x="79" y="-980" font-family="Helvetica,sans-Serif" font-size="10.00"> </text>
<polyline fill="none" stroke="#bfbfbf" points="31.5,-972 126.5,-972 "/>
<text text-anchor="middle" x="79" y="-959" font-family="Helvetica,sans-Serif" font-size="10.00"> </text>
</a>
</g>
<!-- Node5&#45;&gt;Node4 -->
<g id="edge8" class="edge"><title>Node5&#45;&gt;Node4</title>
<path fill="none" stroke="midnightblue" d="M79,-940.792C79,-930.965 79,-920.862 79,-911.784"/>
<polygon fill="none" stroke="midnightblue" points="75.5001,-940.877 79,-950.877 82.5001,-940.877 75.5001,-940.877"/>
</g>
<!-- Node6&#45;&gt;Node3 -->
<g id="edge10" class="edge"><title>Node6&#45;&gt;Node3</title>
<path fill="none" stroke="orange" d="M187.87,-659.582C181.291,-645.833 174.426,-631.486 167.886,-617.818"/>
<polygon fill="orange" stroke="orange" points="184.898,-661.48 192.371,-668.989 191.212,-658.458 184.898,-661.48"/>
<text text-anchor="middle" x="214.5" y="-640.5" font-family="Helvetica,sans-Serif" font-size="10.00"> &lt; std::string &gt;</text>
</g>
<!-- Node7 -->
<g id="node14" class="node"><title>Node7</title>
<a xlink:href="classNumericEncoder.html" target="_top" xlink:title="{NumericEncoder\n|&#45; _factor\l&#45; _offset\l|+ decode()\l+ encode()\l+ get_factor()\l+ get_offset()\l+ NumericEncoder()\l+ NumericEncoder()\l+ NumericEncoder()\l+ operator=()\l+ set_factor()\l+ set_offset()\l+ ~NumericEncoder()\l}">
<polygon fill="none" stroke="black" points="254,-207 254,-413 364,-413 364,-207 254,-207"/>
<text text-anchor="middle" x="309" y="-400" font-family="Helvetica,sans-Serif" font-size="10.00">NumericEncoder</text>
<polyline fill="none" stroke="black" points="254,-392 364,-392 "/>
<text text-anchor="start" x="262" y="-379" font-family="Helvetica,sans-Serif" font-size="10.00">&#45; _factor</text>
<text text-anchor="start" x="262" y="-366" font-family="Helvetica,sans-Serif" font-size="10.00">&#45; _offset</text>
<polyline fill="none" stroke="black" points="254,-358 364,-358 "/>
<text text-anchor="start" x="262" y="-345" font-family="Helvetica,sans-Serif" font-size="10.00">+ decode()</text>
<text text-anchor="start" x="262" y="-332" font-family="Helvetica,sans-Serif" font-size="10.00">+ encode()</text>
<text text-anchor="start" x="262" y="-319" font-family="Helvetica,sans-Serif" font-size="10.00">+ get_factor()</text>
<text text-anchor="start" x="262" y="-306" font-family="Helvetica,sans-Serif" font-size="10.00">+ get_offset()</text>
<text text-anchor="start" x="262" y="-293" font-family="Helvetica,sans-Serif" font-size="10.00">+ NumericEncoder()</text>
<text text-anchor="start" x="262" y="-280" font-family="Helvetica,sans-Serif" font-size="10.00">+ NumericEncoder()</text>
<text text-anchor="start" x="262" y="-267" font-family="Helvetica,sans-Serif" font-size="10.00">+ NumericEncoder()</text>
<text text-anchor="start" x="262" y="-254" font-family="Helvetica,sans-Serif" font-size="10.00">+ operator=()</text>
<text text-anchor="start" x="262" y="-241" font-family="Helvetica,sans-Serif" font-size="10.00">+ set_factor()</text>
<text text-anchor="start" x="262" y="-228" font-family="Helvetica,sans-Serif" font-size="10.00">+ set_offset()</text>
<text text-anchor="start" x="262" y="-215" font-family="Helvetica,sans-Serif" font-size="10.00">+ ~NumericEncoder()</text>
</a>
</g>
<!-- Node7&#45;&gt;Node1 -->
<g id="edge16" class="edge"><title>Node7&#45;&gt;Node1</title>
<path fill="none" stroke="midnightblue" d="M246.845,-240.114C213.708,-202.855 174.028,-158.24 145.589,-126.264"/>
<polygon fill="none" stroke="midnightblue" points="244.549,-242.799 253.81,-247.946 249.78,-238.147 244.549,-242.799"/>
</g>
<!-- Node8 -->
<g id="node16" class="node"><title>Node8</title>
<a xlink:href="classAbstractEncoder.html" target="_top" xlink:title="{AbstractEncoder\&lt; std\l::string, double \&gt;\n||+ decode()\l+ encode()\l}">
<polygon fill="none" stroke="black" points="253,-502.5 253,-591.5 365,-591.5 365,-502.5 253,-502.5"/>
<text text-anchor="start" x="261" y="-578.5" font-family="Helvetica,sans-Serif" font-size="10.00">AbstractEncoder&lt; std</text>
<text text-anchor="middle" x="309" y="-565.5" font-family="Helvetica,sans-Serif" font-size="10.00">::string, double &gt;</text>
<polyline fill="none" stroke="black" points="253,-557.5 365,-557.5 "/>
<text text-anchor="middle" x="309" y="-544.5" font-family="Helvetica,sans-Serif" font-size="10.00"> </text>
<polyline fill="none" stroke="black" points="253,-536.5 365,-536.5 "/>
<text text-anchor="start" x="261" y="-523.5" font-family="Helvetica,sans-Serif" font-size="10.00">+ decode()</text>
<text text-anchor="start" x="261" y="-510.5" font-family="Helvetica,sans-Serif" font-size="10.00">+ encode()</text>
</a>
</g>
<!-- Node8&#45;&gt;Node7 -->
<g id="edge18" class="edge"><title>Node8&#45;&gt;Node7</title>
<path fill="none" stroke="#8b1a1a" d="M309,-492.322C309,-468.822 309,-440.55 309,-413.359"/>
<polygon fill="none" stroke="#8b1a1a" points="305.5,-492.422 309,-502.422 312.5,-492.422 305.5,-492.422"/>
</g>
<!-- Node9 -->
<g id="node18" class="node"><title>Node9</title>
<a xlink:href="classAbstractEncoder.html" target="_top" xlink:title="{AbstractEncoder\&lt; T1,\l T2 \&gt;\n||+ decode()\l+ encode()\l}">
<polygon fill="none" stroke="black" points="294.5,-688.5 294.5,-777.5 407.5,-777.5 407.5,-688.5 294.5,-688.5"/>
<text text-anchor="start" x="302.5" y="-764.5" font-family="Helvetica,sans-Serif" font-size="10.00">AbstractEncoder&lt; T1,</text>
<text text-anchor="middle" x="351" y="-751.5" font-family="Helvetica,sans-Serif" font-size="10.00"> T2 &gt;</text>
<polyline fill="none" stroke="black" points="294.5,-743.5 407.5,-743.5 "/>
<text text-anchor="middle" x="351" y="-730.5" font-family="Helvetica,sans-Serif" font-size="10.00"> </text>
<polyline fill="none" stroke="black" points="294.5,-722.5 407.5,-722.5 "/>
<text text-anchor="start" x="302.5" y="-709.5" font-family="Helvetica,sans-Serif" font-size="10.00">+ decode()</text>
<text text-anchor="start" x="302.5" y="-696.5" font-family="Helvetica,sans-Serif" font-size="10.00">+ encode()</text>
</a>
</g>
<!-- Node9&#45;&gt;Node8 -->
<g id="edge20" class="edge"><title>Node9&#45;&gt;Node8</title>
<path fill="none" stroke="orange" d="M338.699,-678.524C332.449,-650.844 324.95,-617.634 319.051,-591.51"/>
<polygon fill="orange" stroke="orange" points="335.323,-679.465 340.94,-688.448 342.151,-677.923 335.323,-679.465"/>
<text text-anchor="middle" x="381" y="-640.5" font-family="Helvetica,sans-Serif" font-size="10.00"> &lt; std::string, double &gt;</text>
</g>
<!-- Node10 -->
<g id="node20" class="node"><title>Node10</title>
<polygon fill="none" stroke="#bfbfbf" points="382.5,-515.5 382.5,-578.5 427.5,-578.5 427.5,-515.5 382.5,-515.5"/>
<text text-anchor="middle" x="405" y="-565.5" font-family="Helvetica,sans-Serif" font-size="10.00">double</text>
<polyline fill="none" stroke="#bfbfbf" points="382.5,-557.5 427.5,-557.5 "/>
<text text-anchor="middle" x="405" y="-544.5" font-family="Helvetica,sans-Serif" font-size="10.00"> </text>
<polyline fill="none" stroke="#bfbfbf" points="382.5,-536.5 427.5,-536.5 "/>
<text text-anchor="middle" x="405" y="-523.5" font-family="Helvetica,sans-Serif" font-size="10.00"> </text>
</g>
<!-- Node10&#45;&gt;Node7 -->
<g id="edge22" class="edge"><title>Node10&#45;&gt;Node7</title>
<path fill="none" stroke="#404040" d="M392.053,-515.037C382.489,-491.426 368.842,-457.735 355.367,-424.469"/>
<polygon fill="none" stroke="#404040" points="355.316,-424.341 349.356,-420.282 350.81,-413.219 356.77,-417.278 355.316,-424.341"/>
<text text-anchor="middle" x="385" y="-449" font-family="Helvetica,sans-Serif" font-size="10.00"> _factor</text>
<text text-anchor="middle" x="385" y="-436" font-family="Helvetica,sans-Serif" font-size="10.00">_offset</text>
</g>
</g>
</svg>
