<?xml version="1.0" encoding="UTF-8" standalone="no"?>
<!DOCTYPE svg PUBLIC "-//W3C//DTD SVG 1.1//EN"
 "http://www.w3.org/Graphics/SVG/1.1/DTD/svg11.dtd">
<!-- Generated by graphviz version 2.26.3 (20100126.1600)
 -->
<!-- Title: G Pages: 1 -->
<svg width="94pt" height="220pt"
 viewBox="0.00 0.00 94.00 220.00" xmlns="http://www.w3.org/2000/svg" xmlns:xlink="http://www.w3.org/1999/xlink">
<g id="graph1" class="graph" transform="scale(1 1) rotate(0) translate(4 216)">
<title>G</title>
<g id="graph2" class="cluster"><title>clusterdir_0176c2f16fd65e97194da1cbcb85b84e</title>
<a xlink:href="dir_0176c2f16fd65e97194da1cbcb85b84e.html" target="_top">
<polygon fill="#eeeeff" stroke="black" points="8,-8 8,-204 78,-204 78,-8 8,-8"/>
</a>
</g>
<!-- dir_0176c2f16fd65e97194da1cbcb85b84e -->
<g id="node2" class="node"><title>dir_0176c2f16fd65e97194da1cbcb85b84e</title>
<text text-anchor="middle" x="43" y="-175.5" font-family="Helvetica,sans-Serif" font-size="10.00">src</text>
</g>
<!-- dir_c591a21e4e84dcdd8b351a764b14a0d7 -->
<g id="node3" class="node"><title>dir_c591a21e4e84dcdd8b351a764b14a0d7</title>
<a xlink:href="dir_c591a21e4e84dcdd8b351a764b14a0d7.html" target="_top" xlink:title="dev">
<polygon fill="white" stroke="black" points="70,-124 16,-124 16,-88 70,-88 70,-124"/>
<text text-anchor="middle" x="43" y="-103.5" font-family="Helvetica,sans-Serif" font-size="10.00">dev</text>
</a>
</g>
<!-- dir_0176c2f16fd65e97194da1cbcb85b84e&#45;&gt;dir_c591a21e4e84dcdd8b351a764b14a0d7 -->
<g id="edge3" class="edge"><title>dir_0176c2f16fd65e97194da1cbcb85b84e&#45;&gt;dir_c591a21e4e84dcdd8b351a764b14a0d7</title>
<path fill="none" stroke="black" d="M43,-159.831C43,-152.131 43,-142.974 43,-134.417"/>
<polygon fill="black" stroke="black" points="46.5001,-134.413 43,-124.413 39.5001,-134.413 46.5001,-134.413"/>
<a xlink:href="dir_000000_000001.html" target="_top" xlink:title="1">
<text text-anchor="middle" x="49.3393" y="-135.508" font-family="Helvetica,sans-Serif" font-size="10.00">1</text>
</a>
</g>
<!-- dir_24fec8a07ce33bdb3e99f69d8ae71129 -->
<g id="node4" class="node"><title>dir_24fec8a07ce33bdb3e99f69d8ae71129</title>
<a xlink:href="dir_24fec8a07ce33bdb3e99f69d8ae71129.html" target="_top" xlink:title="enc">
<polygon fill="white" stroke="black" points="70,-52 16,-52 16,-16 70,-16 70,-52"/>
<text text-anchor="middle" x="43" y="-31.5" font-family="Helvetica,sans-Serif" font-size="10.00">enc</text>
</a>
</g>
<!-- dir_c591a21e4e84dcdd8b351a764b14a0d7&#45;&gt;dir_24fec8a07ce33bdb3e99f69d8ae71129 -->
<g id="edge5" class="edge"><title>dir_c591a21e4e84dcdd8b351a764b14a0d7&#45;&gt;dir_24fec8a07ce33bdb3e99f69d8ae71129</title>
<path fill="none" stroke="black" d="M43,-87.8314C43,-80.131 43,-70.9743 43,-62.4166"/>
<polygon fill="black" stroke="black" points="46.5001,-62.4132 43,-52.4133 39.5001,-62.4133 46.5001,-62.4132"/>
<a xlink:href="dir_000001_000002.html" target="_top" xlink:title="1">
<text text-anchor="middle" x="49.3393" y="-63.5079" font-family="Helvetica,sans-Serif" font-size="10.00">1</text>
</a>
</g>
</g>
</svg>
