<?xml version="1.0" encoding="UTF-8" standalone="no"?>
<!DOCTYPE svg PUBLIC "-//W3C//DTD SVG 1.1//EN"
 "http://www.w3.org/Graphics/SVG/1.1/DTD/svg11.dtd">
<!-- Generated by graphviz version 2.26.3 (20100126.1600)
 -->
<!-- Title: src/dev/ Pages: 1 -->
<svg width="94pt" height="153pt"
 viewBox="0.00 0.00 94.00 153.00" xmlns="http://www.w3.org/2000/svg" xmlns:xlink="http://www.w3.org/1999/xlink">
<g id="graph1" class="graph" transform="scale(1 1) rotate(0) translate(4 149)">
<title>src/dev/</title>
<g id="graph2" class="cluster"><title>clusterdir_68267d1309a1af8e8297ef4c3efbcdba</title>
<a xlink:href="dir_68267d1309a1af8e8297ef4c3efbcdba.html" target="_top" xlink:title="src">
<polygon fill="#ddddee" stroke="black" points="8,-64 8,-137 78,-137 78,-64 8,-64"/>
<text text-anchor="middle" x="43" y="-124" font-family="Helvetica,sans-Serif" font-size="10.00">src</text>
</a>
</g>
<!-- dir_79aff18505430beab4d731f694f82366 -->
<g id="node2" class="node"><title>dir_79aff18505430beab4d731f694f82366</title>
<a xlink:href="dir_79aff18505430beab4d731f694f82366.html" target="_top" xlink:title="dev">
<polygon fill="#eeeeff" stroke="black" points="70,-108 16,-108 16,-72 70,-72 70,-108"/>
<text text-anchor="middle" x="43" y="-87.5" font-family="Helvetica,sans-Serif" font-size="10.00">dev</text>
</a>
</g>
<!-- dir_d5568b8978decfd0b699523cf9796498 -->
<g id="node3" class="node"><title>dir_d5568b8978decfd0b699523cf9796498</title>
<a xlink:href="dir_d5568b8978decfd0b699523cf9796498.html" target="_top" xlink:title="enc">
<polygon fill="none" stroke="black" points="70,-36 16,-36 16,-1.06581e-14 70,-0 70,-36"/>
<text text-anchor="middle" x="43" y="-15.5" font-family="Helvetica,sans-Serif" font-size="10.00">enc</text>
</a>
</g>
<!-- dir_79aff18505430beab4d731f694f82366&#45;&gt;dir_d5568b8978decfd0b699523cf9796498 -->
<g id="edge3" class="edge"><title>dir_79aff18505430beab4d731f694f82366&#45;&gt;dir_d5568b8978decfd0b699523cf9796498</title>
<path fill="none" stroke="black" d="M43,-71.8314C43,-64.131 43,-54.9743 43,-46.4166"/>
<polygon fill="black" stroke="black" points="46.5001,-46.4132 43,-36.4133 39.5001,-46.4133 46.5001,-46.4132"/>
<a xlink:href="dir_000001_000002.html" target="_top" xlink:title="1">
<text text-anchor="middle" x="49.3393" y="-47.5079" font-family="Helvetica,sans-Serif" font-size="10.00">1</text>
</a>
</g>
</g>
</svg>
