<?xml version="1.0" encoding="UTF-8" standalone="no"?>
<!DOCTYPE svg PUBLIC "-//W3C//DTD SVG 1.1//EN"
 "http://www.w3.org/Graphics/SVG/1.1/DTD/svg11.dtd">
<!-- Generated by graphviz version 2.26.3 (20100126.1600)
 -->
<!-- Title: Graphical Class Hierarchy Pages: 1 -->
<svg width="336pt" height="94pt"
 viewBox="0.00 0.00 336.00 94.00" xmlns="http://www.w3.org/2000/svg" xmlns:xlink="http://www.w3.org/1999/xlink">
<g id="graph1" class="graph" transform="scale(1 1) rotate(0) translate(4 90)">
<title>Graphical Class Hierarchy</title>
<!-- Node1 -->
<g id="node1" class="node"><title>Node1</title>
<a xlink:href="classAbstractDevice.html" target="_top" xlink:title="AbstractDevice\&lt; std\l::string \&gt;">
<polygon fill="none" stroke="black" points="2.5,-52 2.5,-86 109.5,-86 109.5,-52 2.5,-52"/>
<text text-anchor="start" x="10.5" y="-73" font-family="Helvetica,sans-Serif" font-size="10.00">AbstractDevice&lt; std</text>
<text text-anchor="middle" x="56" y="-60" font-family="Helvetica,sans-Serif" font-size="10.00">::string &gt;</text>
</a>
</g>
<!-- Node2 -->
<g id="node3" class="node"><title>Node2</title>
<a xlink:href="classCharacterDevice.html" target="_top" xlink:title="Class CharacterDevice is a specialization of template class AbstractDevice. This class reads files of...">
<polygon fill="none" stroke="black" points="148,-55.5 148,-76.5 238,-76.5 238,-55.5 148,-55.5"/>
<text text-anchor="middle" x="193" y="-63.5" font-family="Helvetica,sans-Serif" font-size="10.00">CharacterDevice</text>
</a>
</g>
<!-- Node1&#45;&gt;Node2 -->
<g id="edge2" class="edge"><title>Node1&#45;&gt;Node2</title>
<path fill="none" stroke="midnightblue" d="M119.902,-67.6007C129.329,-67.3942 138.873,-67.1853 147.815,-66.9895"/>
<polygon fill="midnightblue" stroke="midnightblue" points="119.674,-64.1047 109.753,-67.8229 119.827,-71.1031 119.674,-64.1047"/>
</g>
<!-- Node3 -->
<g id="node5" class="node"><title>Node3</title>
<a xlink:href="classXDevice.html" target="_top" xlink:title="class XDevice as Testing&#45;Object.">
<polygon fill="none" stroke="black" points="274,-33.5 274,-54.5 328,-54.5 328,-33.5 274,-33.5"/>
<text text-anchor="middle" x="301" y="-41.5" font-family="Helvetica,sans-Serif" font-size="10.00">XDevice</text>
</a>
</g>
<!-- Node2&#45;&gt;Node3 -->
<g id="edge4" class="edge"><title>Node2&#45;&gt;Node3</title>
<path fill="none" stroke="midnightblue" d="M248.218,-54.7518C257.143,-52.9339 266.022,-51.1251 273.882,-49.524"/>
<polygon fill="midnightblue" stroke="midnightblue" points="247.276,-51.3718 238.176,-56.7975 248.673,-58.2309 247.276,-51.3718"/>
</g>
<!-- Node4 -->
<g id="node6" class="node"><title>Node4</title>
<a xlink:href="classAbstractEncoder.html" target="_top" xlink:title="AbstractEncoder\&lt; std\l::string, double \&gt;">
<polygon fill="none" stroke="black" points="0,-0 0,-34 112,-34 112,-0 0,-0"/>
<text text-anchor="start" x="8" y="-21" font-family="Helvetica,sans-Serif" font-size="10.00">AbstractEncoder&lt; std</text>
<text text-anchor="middle" x="56" y="-8" font-family="Helvetica,sans-Serif" font-size="10.00">::string, double &gt;</text>
</a>
</g>
<!-- Node5 -->
<g id="node8" class="node"><title>Node5</title>
<a xlink:href="classNumericEncoder.html" target="_top" xlink:title="NumericEncoder">
<polygon fill="none" stroke="black" points="148.5,-12.5 148.5,-33.5 237.5,-33.5 237.5,-12.5 148.5,-12.5"/>
<text text-anchor="middle" x="193" y="-20.5" font-family="Helvetica,sans-Serif" font-size="10.00">NumericEncoder</text>
</a>
</g>
<!-- Node4&#45;&gt;Node5 -->
<g id="edge6" class="edge"><title>Node4&#45;&gt;Node5</title>
<path fill="none" stroke="#8b1a1a" d="M122.147,-19.897C131.079,-20.2881 140.063,-20.6816 148.493,-21.0508"/>
<polygon fill="#8b1a1a" stroke="#8b1a1a" points="122.262,-16.3987 112.118,-19.4577 121.956,-23.392 122.262,-16.3987"/>
</g>
<!-- Node5&#45;&gt;Node3 -->
<g id="edge8" class="edge"><title>Node5&#45;&gt;Node3</title>
<path fill="none" stroke="midnightblue" d="M247.461,-33.5896C256.633,-35.373 265.787,-37.153 273.865,-38.7237"/>
<polygon fill="midnightblue" stroke="midnightblue" points="248.035,-30.1359 237.551,-31.6627 246.699,-37.0072 248.035,-30.1359"/>
</g>
</g>
</svg>
