<?xml version="1.0" encoding="UTF-8" standalone="no"?>
<!DOCTYPE svg PUBLIC "-//W3C//DTD SVG 1.1//EN"
 "http://www.w3.org/Graphics/SVG/1.1/DTD/svg11.dtd">
<!-- Generated by graphviz version 2.26.3 (20100126.1600)
 -->
<!-- Title: G Pages: 1 -->
<svg width="410pt" height="70pt"
 viewBox="0.00 0.00 410.00 70.00" xmlns="http://www.w3.org/2000/svg" xmlns:xlink="http://www.w3.org/1999/xlink">
<g id="graph1" class="graph" transform="scale(1 1) rotate(0) translate(4 66)">
<title>G</title>
<!-- Node1 -->
<g id="node1" class="node"><title>Node1</title>
<a xlink:href="classAbstractDevice.html" target="_top" xlink:title="AbstractDevice\&lt; std::string \&gt;">
<polygon fill="none" stroke="black" points="20,-40.5 20,-61.5 166,-61.5 166,-40.5 20,-40.5"/>
<text text-anchor="middle" x="93" y="-48.5" font-family="Helvetica,sans-Serif" font-size="10.00">AbstractDevice&lt; std::string &gt;</text>
</a>
</g>
<!-- Node2 -->
<g id="node3" class="node"><title>Node2</title>
<a xlink:href="classCharacterDevice.html" target="_top" xlink:title="Class CharacterDevice is a specialization of template class AbstractDevice. This class reads files of...">
<polygon fill="none" stroke="black" points="222,-40.5 222,-61.5 312,-61.5 312,-40.5 222,-40.5"/>
<text text-anchor="middle" x="267" y="-48.5" font-family="Helvetica,sans-Serif" font-size="10.00">CharacterDevice</text>
</a>
</g>
<!-- Node1&#45;&gt;Node2 -->
<g id="edge2" class="edge"><title>Node1&#45;&gt;Node2</title>
<path fill="none" stroke="midnightblue" d="M176.329,-51C192.062,-51 207.954,-51 221.945,-51"/>
<polygon fill="midnightblue" stroke="midnightblue" points="176.035,-47.5001 166.035,-51 176.035,-54.5001 176.035,-47.5001"/>
</g>
<!-- Node3 -->
<g id="node5" class="node"><title>Node3</title>
<a xlink:href="classXDevice.html" target="_top" xlink:title="class XDevice as Testing&#45;Object.">
<polygon fill="none" stroke="black" points="348,-20.5 348,-41.5 402,-41.5 402,-20.5 348,-20.5"/>
<text text-anchor="middle" x="375" y="-28.5" font-family="Helvetica,sans-Serif" font-size="10.00">XDevice</text>
</a>
</g>
<!-- Node2&#45;&gt;Node3 -->
<g id="edge4" class="edge"><title>Node2&#45;&gt;Node3</title>
<path fill="none" stroke="midnightblue" d="M322.218,-40.7744C331.143,-39.1217 340.022,-37.4773 347.882,-36.0218"/>
<polygon fill="midnightblue" stroke="midnightblue" points="321.371,-37.3716 312.176,-42.6341 322.646,-44.2546 321.371,-37.3716"/>
</g>
<!-- Node4 -->
<g id="node6" class="node"><title>Node4</title>
<a xlink:href="classAbstractEncoder.html" target="_top" xlink:title="AbstractEncoder\&lt; std::string, double \&gt;">
<polygon fill="none" stroke="black" points="0.5,-0.5 0.5,-21.5 185.5,-21.5 185.5,-0.5 0.5,-0.5"/>
<text text-anchor="middle" x="93" y="-8.5" font-family="Helvetica,sans-Serif" font-size="10.00">AbstractEncoder&lt; std::string, double &gt;</text>
</a>
</g>
<!-- Node5 -->
<g id="node8" class="node"><title>Node5</title>
<a xlink:href="classNumericEncoder.html" target="_top" xlink:title="NumericEncoder">
<polygon fill="none" stroke="black" points="222.5,-0.5 222.5,-21.5 311.5,-21.5 311.5,-0.5 222.5,-0.5"/>
<text text-anchor="middle" x="267" y="-8.5" font-family="Helvetica,sans-Serif" font-size="10.00">NumericEncoder</text>
</a>
</g>
<!-- Node4&#45;&gt;Node5 -->
<g id="edge6" class="edge"><title>Node4&#45;&gt;Node5</title>
<path fill="none" stroke="#8b1a1a" d="M195.767,-11C205.062,-11 214.109,-11 222.464,-11"/>
<polygon fill="#8b1a1a" stroke="#8b1a1a" points="195.604,-7.5001 185.604,-11 195.604,-14.5001 195.604,-7.5001"/>
</g>
<!-- Node5&#45;&gt;Node3 -->
<g id="edge8" class="edge"><title>Node5&#45;&gt;Node3</title>
<path fill="none" stroke="midnightblue" d="M321.461,-21.0853C330.633,-22.7838 339.787,-24.479 347.865,-25.9749"/>
<polygon fill="midnightblue" stroke="midnightblue" points="322.021,-17.6297 311.551,-19.2502 320.747,-24.5127 322.021,-17.6297"/>
</g>
</g>
</svg>
