<?xml version="1.0" encoding="UTF-8" standalone="no"?>
<!DOCTYPE svg PUBLIC "-//W3C//DTD SVG 1.1//EN"
 "http://www.w3.org/Graphics/SVG/1.1/DTD/svg11.dtd">
<!-- Generated by graphviz version 2.26.3 (20100126.1600)
 -->
<!-- Title: G Pages: 1 -->
<svg width="150pt" height="48pt"
 viewBox="0.00 0.00 150.00 48.00" xmlns="http://www.w3.org/2000/svg" xmlns:xlink="http://www.w3.org/1999/xlink">
<g id="graph1" class="graph" transform="scale(1 1) rotate(0) translate(4 44)">
<title>G</title>
<!-- Node1 -->
<g id="node1" class="node"><title>Node1</title>
<polygon fill="#bfbfbf" stroke="black" points="0,-0.5 0,-21.5 38,-21.5 38,-0.5 0,-0.5"/>
<text text-anchor="middle" x="19" y="-8.5" font-family="Helvetica,sans-Serif" font-size="10.00">main</text>
</g>
<!-- Node2 -->
<g id="node3" class="node"><title>Node2</title>
<a xlink:href="shared_8cpp.html#ae72951d147069c720ee092240ad36915" target="_top" xlink:title="Getting filenames associated with a special filetype.">
<polygon fill="none" stroke="black" points="74,-0.5 74,-21.5 142,-21.5 142,-0.5 74,-0.5"/>
<text text-anchor="middle" x="108" y="-8.5" font-family="Helvetica,sans-Serif" font-size="10.00">list_devices</text>
</a>
</g>
<!-- Node1&#45;&gt;Node2 -->
<g id="edge2" class="edge"><title>Node1&#45;&gt;Node2</title>
<path fill="none" stroke="midnightblue" d="M38.3117,-11C45.7343,-11 54.551,-11 63.3743,-11"/>
<polygon fill="midnightblue" stroke="midnightblue" points="63.652,-14.5001 73.652,-11 63.6519,-7.5001 63.652,-14.5001"/>
</g>
<!-- Node2&#45;&gt;Node2 -->
<g id="edge4" class="edge"><title>Node2&#45;&gt;Node2</title>
<path fill="none" stroke="midnightblue" d="M94.0177,-21.7079C88.0424,-30.6531 92.7031,-40 108,-40 117.322,-40 122.693,-36.5291 124.116,-31.7934"/>
<polygon fill="midnightblue" stroke="midnightblue" points="127.476,-30.7669 121.982,-21.7079 120.628,-32.2157 127.476,-30.7669"/>
</g>
</g>
</svg>
