<?xml version="1.0" encoding="UTF-8" standalone="no"?>
<!DOCTYPE svg PUBLIC "-//W3C//DTD SVG 1.1//EN"
 "http://www.w3.org/Graphics/SVG/1.1/DTD/svg11.dtd">
<!-- Generated by graphviz version 2.26.3 (20100126.1600)
 -->
<!-- Title: src/main.cpp Pages: 1 -->
<svg width="862pt" height="262pt"
 viewBox="0.00 0.00 862.00 262.00" xmlns="http://www.w3.org/2000/svg" xmlns:xlink="http://www.w3.org/1999/xlink">
<g id="graph1" class="graph" transform="scale(1 1) rotate(0) translate(4 258)">
<title>src/main.cpp</title>
<!-- Node1 -->
<g id="node1" class="node"><title>Node1</title>
<polygon fill="#bfbfbf" stroke="black" points="353.5,-232.5 353.5,-253.5 426.5,-253.5 426.5,-232.5 353.5,-232.5"/>
<text text-anchor="middle" x="390" y="-240.5" font-family="Helvetica,sans-Serif" font-size="10.00">src/main.cpp</text>
</g>
<!-- Node2 -->
<g id="node3" class="node"><title>Node2</title>
<a xlink:href="main_8h.html" target="_top" xlink:title="main.h">
<polygon fill="none" stroke="black" points="225,-174.5 225,-195.5 271,-195.5 271,-174.5 225,-174.5"/>
<text text-anchor="middle" x="248" y="-182.5" font-family="Helvetica,sans-Serif" font-size="10.00">main.h</text>
</a>
</g>
<!-- Node1&#45;&gt;Node2 -->
<g id="edge2" class="edge"><title>Node1&#45;&gt;Node2</title>
<path fill="none" stroke="midnightblue" d="M364.285,-232.497C340.86,-222.929 306.148,-208.751 280.748,-198.376"/>
<polygon fill="midnightblue" stroke="midnightblue" points="281.754,-195.006 271.173,-194.465 279.107,-201.486 281.754,-195.006"/>
</g>
<!-- Node13 -->
<g id="node26" class="node"><title>Node13</title>
<a xlink:href="XDevice_8h.html" target="_top" xlink:title="dev/XDevice.h">
<polygon fill="none" stroke="black" points="517.5,-174.5 517.5,-195.5 598.5,-195.5 598.5,-174.5 517.5,-174.5"/>
<text text-anchor="middle" x="558" y="-182.5" font-family="Helvetica,sans-Serif" font-size="10.00">dev/XDevice.h</text>
</a>
</g>
<!-- Node1&#45;&gt;Node13 -->
<g id="edge26" class="edge"><title>Node1&#45;&gt;Node13</title>
<path fill="none" stroke="midnightblue" d="M420.424,-232.497C447.694,-223.082 487.893,-209.204 517.804,-198.877"/>
<polygon fill="midnightblue" stroke="midnightblue" points="519.209,-202.095 527.519,-195.523 516.925,-195.478 519.209,-202.095"/>
</g>
<!-- Node3 -->
<g id="node5" class="node"><title>Node3</title>
<polygon fill="none" stroke="#bfbfbf" points="0,-58.5 0,-79.5 54,-79.5 54,-58.5 0,-58.5"/>
<text text-anchor="middle" x="27" y="-66.5" font-family="Helvetica,sans-Serif" font-size="10.00">iostream</text>
</g>
<!-- Node2&#45;&gt;Node3 -->
<g id="edge4" class="edge"><title>Node2&#45;&gt;Node3</title>
<path fill="none" stroke="midnightblue" d="M227.605,-174.295C188.2,-153.612 101.491,-108.099 56.0622,-84.2543"/>
<polygon fill="midnightblue" stroke="midnightblue" points="57.5076,-81.0602 47.0265,-79.5117 54.2543,-87.2583 57.5076,-81.0602"/>
</g>
<!-- Node4 -->
<g id="node7" class="node"><title>Node4</title>
<a xlink:href="shared_8h.html" target="_top" xlink:title="shared.h">
<polygon fill="none" stroke="black" points="221,-116.5 221,-137.5 275,-137.5 275,-116.5 221,-116.5"/>
<text text-anchor="middle" x="248" y="-124.5" font-family="Helvetica,sans-Serif" font-size="10.00">shared.h</text>
</a>
</g>
<!-- Node2&#45;&gt;Node4 -->
<g id="edge6" class="edge"><title>Node2&#45;&gt;Node4</title>
<path fill="none" stroke="midnightblue" d="M248,-174.362C248,-166.922 248,-156.743 248,-147.728"/>
<polygon fill="midnightblue" stroke="midnightblue" points="251.5,-147.571 248,-137.571 244.5,-147.571 251.5,-147.571"/>
</g>
<!-- Node4&#45;&gt;Node3 -->
<g id="edge8" class="edge"><title>Node4&#45;&gt;Node3</title>
<path fill="none" stroke="midnightblue" d="M220.845,-119.97C185.593,-110.83 122.171,-94.339 68,-80 66.7577,-79.6712 65.4944,-79.3361 64.2187,-78.9971"/>
<polygon fill="midnightblue" stroke="midnightblue" points="64.9045,-75.5578 54.3403,-76.3625 63.1006,-82.3214 64.9045,-75.5578"/>
</g>
<!-- Node5 -->
<g id="node10" class="node"><title>Node5</title>
<polygon fill="none" stroke="#bfbfbf" points="508,-58.5 508,-79.5 558,-79.5 558,-58.5 508,-58.5"/>
<text text-anchor="middle" x="533" y="-66.5" font-family="Helvetica,sans-Serif" font-size="10.00">fstream</text>
</g>
<!-- Node4&#45;&gt;Node5 -->
<g id="edge10" class="edge"><title>Node4&#45;&gt;Node5</title>
<path fill="none" stroke="midnightblue" d="M275.363,-123.05C320.082,-116.343 411.717,-101.551 498.157,-79.9853"/>
<polygon fill="midnightblue" stroke="midnightblue" points="499.018,-83.3778 507.853,-77.5314 497.3,-76.5918 499.018,-83.3778"/>
</g>
<!-- Node6 -->
<g id="node12" class="node"><title>Node6</title>
<polygon fill="none" stroke="#bfbfbf" points="331.5,-0.5 331.5,-21.5 372.5,-21.5 372.5,-0.5 331.5,-0.5"/>
<text text-anchor="middle" x="352" y="-8.5" font-family="Helvetica,sans-Serif" font-size="10.00">string</text>
</g>
<!-- Node4&#45;&gt;Node6 -->
<g id="edge12" class="edge"><title>Node4&#45;&gt;Node6</title>
<path fill="none" stroke="midnightblue" d="M220.957,-124.319C169.558,-118.193 65.8857,-100.3 101,-58 128.648,-24.694 260.162,-14.8521 320.998,-12.0569"/>
<polygon fill="midnightblue" stroke="midnightblue" points="321.312,-15.5469 331.154,-11.6261 321.015,-8.55319 321.312,-15.5469"/>
</g>
<!-- Node7 -->
<g id="node14" class="node"><title>Node7</title>
<polygon fill="none" stroke="#bfbfbf" points="110,-58.5 110,-79.5 154,-79.5 154,-58.5 110,-58.5"/>
<text text-anchor="middle" x="132" y="-66.5" font-family="Helvetica,sans-Serif" font-size="10.00">vector</text>
</g>
<!-- Node4&#45;&gt;Node7 -->
<g id="edge14" class="edge"><title>Node4&#45;&gt;Node7</title>
<path fill="none" stroke="midnightblue" d="M226.993,-116.497C208.957,-107.479 182.73,-94.3649 162.401,-84.2006"/>
<polygon fill="midnightblue" stroke="midnightblue" points="163.752,-80.9629 153.242,-79.6212 160.621,-87.2239 163.752,-80.9629"/>
</g>
<!-- Node8 -->
<g id="node16" class="node"><title>Node8</title>
<polygon fill="none" stroke="#bfbfbf" points="171.5,-58.5 171.5,-79.5 206.5,-79.5 206.5,-58.5 171.5,-58.5"/>
<text text-anchor="middle" x="189" y="-66.5" font-family="Helvetica,sans-Serif" font-size="10.00">map</text>
</g>
<!-- Node4&#45;&gt;Node8 -->
<g id="edge16" class="edge"><title>Node4&#45;&gt;Node8</title>
<path fill="none" stroke="midnightblue" d="M237.178,-116.362C228.779,-108.104 216.946,-96.4725 207.11,-86.8029"/>
<polygon fill="midnightblue" stroke="midnightblue" points="209.338,-84.0851 199.753,-79.5707 204.431,-89.077 209.338,-84.0851"/>
</g>
<!-- Node9 -->
<g id="node18" class="node"><title>Node9</title>
<polygon fill="none" stroke="#bfbfbf" points="224,-58.5 224,-79.5 272,-79.5 272,-58.5 224,-58.5"/>
<text text-anchor="middle" x="248" y="-66.5" font-family="Helvetica,sans-Serif" font-size="10.00">stdlib.h</text>
</g>
<!-- Node4&#45;&gt;Node9 -->
<g id="edge18" class="edge"><title>Node4&#45;&gt;Node9</title>
<path fill="none" stroke="midnightblue" d="M248,-116.362C248,-108.922 248,-98.7427 248,-89.7276"/>
<polygon fill="midnightblue" stroke="midnightblue" points="251.5,-89.5706 248,-79.5707 244.5,-89.5707 251.5,-89.5706"/>
</g>
<!-- Node10 -->
<g id="node20" class="node"><title>Node10</title>
<polygon fill="none" stroke="#bfbfbf" points="289.5,-58.5 289.5,-79.5 338.5,-79.5 338.5,-58.5 289.5,-58.5"/>
<text text-anchor="middle" x="314" y="-66.5" font-family="Helvetica,sans-Serif" font-size="10.00">dirent.h</text>
</g>
<!-- Node4&#45;&gt;Node10 -->
<g id="edge20" class="edge"><title>Node4&#45;&gt;Node10</title>
<path fill="none" stroke="midnightblue" d="M260.105,-116.362C269.688,-107.941 283.264,-96.0105 294.393,-86.2308"/>
<polygon fill="midnightblue" stroke="midnightblue" points="296.77,-88.8009 301.971,-79.5707 292.149,-83.5427 296.77,-88.8009"/>
</g>
<!-- Node11 -->
<g id="node22" class="node"><title>Node11</title>
<polygon fill="none" stroke="#bfbfbf" points="356,-58.5 356,-79.5 424,-79.5 424,-58.5 356,-58.5"/>
<text text-anchor="middle" x="390" y="-66.5" font-family="Helvetica,sans-Serif" font-size="10.00">sys/types.h</text>
</g>
<!-- Node4&#45;&gt;Node11 -->
<g id="edge22" class="edge"><title>Node4&#45;&gt;Node11</title>
<path fill="none" stroke="midnightblue" d="M273.715,-116.497C296.293,-107.275 329.358,-93.7695 354.463,-83.5153"/>
<polygon fill="midnightblue" stroke="midnightblue" points="356.062,-86.6427 363.996,-79.6212 353.415,-80.1624 356.062,-86.6427"/>
</g>
<!-- Node12 -->
<g id="node24" class="node"><title>Node12</title>
<polygon fill="none" stroke="#bfbfbf" points="441.5,-58.5 441.5,-79.5 490.5,-79.5 490.5,-58.5 441.5,-58.5"/>
<text text-anchor="middle" x="466" y="-66.5" font-family="Helvetica,sans-Serif" font-size="10.00">string.h</text>
</g>
<!-- Node4&#45;&gt;Node12 -->
<g id="edge24" class="edge"><title>Node4&#45;&gt;Node12</title>
<path fill="none" stroke="midnightblue" d="M275.129,-120.763C309.496,-112.721 370.724,-97.9227 431.456,-80.3307"/>
<polygon fill="midnightblue" stroke="midnightblue" points="432.579,-83.6492 441.195,-77.484 430.615,-76.9303 432.579,-83.6492"/>
</g>
<!-- Node14 -->
<g id="node28" class="node"><title>Node14</title>
<a xlink:href="CharacterDevice_8h.html" target="_top" xlink:title="CharacterDevice.h">
<polygon fill="none" stroke="black" points="509,-116.5 509,-137.5 607,-137.5 607,-116.5 509,-116.5"/>
<text text-anchor="middle" x="558" y="-124.5" font-family="Helvetica,sans-Serif" font-size="10.00">CharacterDevice.h</text>
</a>
</g>
<!-- Node13&#45;&gt;Node14 -->
<g id="edge28" class="edge"><title>Node13&#45;&gt;Node14</title>
<path fill="none" stroke="midnightblue" d="M558,-174.362C558,-166.922 558,-156.743 558,-147.728"/>
<polygon fill="midnightblue" stroke="midnightblue" points="561.5,-147.571 558,-137.571 554.5,-147.571 561.5,-147.571"/>
</g>
<!-- Node16 -->
<g id="node34" class="node"><title>Node16</title>
<a xlink:href="NumericEncoder_8h.html" target="_top" xlink:title="../enc/NumericEncoder.h">
<polygon fill="none" stroke="black" points="649.5,-116.5 649.5,-137.5 774.5,-137.5 774.5,-116.5 649.5,-116.5"/>
<text text-anchor="middle" x="712" y="-124.5" font-family="Helvetica,sans-Serif" font-size="10.00">../enc/NumericEncoder.h</text>
</a>
</g>
<!-- Node13&#45;&gt;Node16 -->
<g id="edge36" class="edge"><title>Node13&#45;&gt;Node16</title>
<path fill="none" stroke="midnightblue" d="M585.888,-174.497C610.668,-165.164 647.095,-151.445 674.436,-141.147"/>
<polygon fill="midnightblue" stroke="midnightblue" points="675.935,-144.323 684.059,-137.523 673.468,-137.772 675.935,-144.323"/>
</g>
<!-- Node14&#45;&gt;Node5 -->
<g id="edge30" class="edge"><title>Node14&#45;&gt;Node5</title>
<path fill="none" stroke="midnightblue" d="M553.415,-116.362C550.102,-108.677 545.53,-98.0686 541.552,-88.8399"/>
<polygon fill="midnightblue" stroke="midnightblue" points="544.729,-87.3685 537.556,-79.5707 538.301,-90.1393 544.729,-87.3685"/>
</g>
<!-- Node15 -->
<g id="node31" class="node"><title>Node15</title>
<a xlink:href="AbstractDevice_8h.html" target="_top" xlink:title="AbstractDevice.h">
<polygon fill="none" stroke="black" points="576,-58.5 576,-79.5 668,-79.5 668,-58.5 576,-58.5"/>
<text text-anchor="middle" x="622" y="-66.5" font-family="Helvetica,sans-Serif" font-size="10.00">AbstractDevice.h</text>
</a>
</g>
<!-- Node14&#45;&gt;Node15 -->
<g id="edge32" class="edge"><title>Node14&#45;&gt;Node15</title>
<path fill="none" stroke="midnightblue" d="M569.739,-116.362C578.941,-108.023 591.94,-96.2418 602.672,-86.5162"/>
<polygon fill="midnightblue" stroke="midnightblue" points="605.276,-88.8793 610.336,-79.5707 600.576,-83.6924 605.276,-88.8793"/>
</g>
<!-- Node15&#45;&gt;Node6 -->
<g id="edge34" class="edge"><title>Node15&#45;&gt;Node6</title>
<path fill="none" stroke="midnightblue" d="M575.892,-59.0953C520.722,-47.244 429.897,-27.7334 382.672,-17.5887"/>
<polygon fill="midnightblue" stroke="midnightblue" points="383.251,-14.1334 372.739,-15.455 381.781,-20.9773 383.251,-14.1334"/>
</g>
<!-- Node17 -->
<g id="node36" class="node"><title>Node17</title>
<polygon fill="none" stroke="#bfbfbf" points="686,-58.5 686,-79.5 738,-79.5 738,-58.5 686,-58.5"/>
<text text-anchor="middle" x="712" y="-66.5" font-family="Helvetica,sans-Serif" font-size="10.00">sstream</text>
</g>
<!-- Node16&#45;&gt;Node17 -->
<g id="edge38" class="edge"><title>Node16&#45;&gt;Node17</title>
<path fill="none" stroke="midnightblue" d="M712,-116.362C712,-108.922 712,-98.7427 712,-89.7276"/>
<polygon fill="midnightblue" stroke="midnightblue" points="715.5,-89.5706 712,-79.5707 708.5,-89.5707 715.5,-89.5706"/>
</g>
<!-- Node18 -->
<g id="node38" class="node"><title>Node18</title>
<a xlink:href="AbstractEncoder_8h.html" target="_top" xlink:title="AbstractEncoder.h">
<polygon fill="none" stroke="black" points="756,-58.5 756,-79.5 854,-79.5 854,-58.5 756,-58.5"/>
<text text-anchor="middle" x="805" y="-66.5" font-family="Helvetica,sans-Serif" font-size="10.00">AbstractEncoder.h</text>
</a>
</g>
<!-- Node16&#45;&gt;Node18 -->
<g id="edge40" class="edge"><title>Node16&#45;&gt;Node18</title>
<path fill="none" stroke="midnightblue" d="M729.058,-116.362C743.085,-107.614 763.184,-95.0786 779.182,-85.1015"/>
<polygon fill="midnightblue" stroke="midnightblue" points="781.418,-87.8323 788.051,-79.5707 777.713,-81.8927 781.418,-87.8323"/>
</g>
</g>
</svg>
