<?xml version="1.0" encoding="UTF-8" standalone="no"?>
<!DOCTYPE svg PUBLIC "-//W3C//DTD SVG 1.1//EN"
 "http://www.w3.org/Graphics/SVG/1.1/DTD/svg11.dtd">
<!-- Generated by graphviz version 2.26.3 (20100126.1600)
 -->
<!-- Title: G Pages: 1 -->
<svg width="586pt" height="146pt"
 viewBox="0.00 0.00 586.00 146.00" xmlns="http://www.w3.org/2000/svg" xmlns:xlink="http://www.w3.org/1999/xlink">
<g id="graph1" class="graph" transform="scale(1 1) rotate(0) translate(4 142)">
<title>G</title>
<!-- Node1 -->
<g id="node1" class="node"><title>Node1</title>
<polygon fill="#bfbfbf" stroke="black" points="140,-116.5 140,-137.5 202,-137.5 202,-116.5 140,-116.5"/>
<text text-anchor="middle" x="171" y="-124.5" font-family="Helvetica,sans-Serif" font-size="10.00">src/main.h</text>
</g>
<!-- Node2 -->
<g id="node3" class="node"><title>Node2</title>
<polygon fill="none" stroke="#bfbfbf" points="0,-0.5 0,-21.5 54,-21.5 54,-0.5 0,-0.5"/>
<text text-anchor="middle" x="27" y="-8.5" font-family="Helvetica,sans-Serif" font-size="10.00">iostream</text>
</g>
<!-- Node1&#45;&gt;Node2 -->
<g id="edge2" class="edge"><title>Node1&#45;&gt;Node2</title>
<path fill="none" stroke="midnightblue" d="M157.711,-116.295C132.636,-96.0955 78.1644,-52.2158 48.0578,-27.9632"/>
<polygon fill="midnightblue" stroke="midnightblue" points="50.2402,-25.2269 40.2569,-21.6792 45.8488,-30.6782 50.2402,-25.2269"/>
</g>
<!-- Node3 -->
<g id="node5" class="node"><title>Node3</title>
<a xlink:href="shared_8h.html" target="_top" xlink:title="shared.h">
<polygon fill="none" stroke="black" points="221,-58.5 221,-79.5 275,-79.5 275,-58.5 221,-58.5"/>
<text text-anchor="middle" x="248" y="-66.5" font-family="Helvetica,sans-Serif" font-size="10.00">shared.h</text>
</a>
</g>
<!-- Node1&#45;&gt;Node3 -->
<g id="edge4" class="edge"><title>Node1&#45;&gt;Node3</title>
<path fill="none" stroke="midnightblue" d="M185.123,-116.362C196.52,-107.777 212.758,-95.5459 225.878,-85.6636"/>
<polygon fill="midnightblue" stroke="midnightblue" points="228.085,-88.3829 233.967,-79.5707 223.873,-82.7916 228.085,-88.3829"/>
</g>
<!-- Node3&#45;&gt;Node2 -->
<g id="edge6" class="edge"><title>Node3&#45;&gt;Node2</title>
<path fill="none" stroke="midnightblue" d="M220.931,-62.5522C186.628,-54.2881 125.47,-39.2462 63.9575,-22.183"/>
<polygon fill="midnightblue" stroke="midnightblue" points="64.6589,-18.745 54.0861,-19.4278 62.777,-25.4874 64.6589,-18.745"/>
</g>
<!-- Node4 -->
<g id="node8" class="node"><title>Node4</title>
<polygon fill="none" stroke="#bfbfbf" points="72,-0.5 72,-21.5 122,-21.5 122,-0.5 72,-0.5"/>
<text text-anchor="middle" x="97" y="-8.5" font-family="Helvetica,sans-Serif" font-size="10.00">fstream</text>
</g>
<!-- Node3&#45;&gt;Node4 -->
<g id="edge8" class="edge"><title>Node3&#45;&gt;Node4</title>
<path fill="none" stroke="midnightblue" d="M220.655,-58.4966C195.676,-48.9022 158.629,-34.6719 131.599,-24.2896"/>
<polygon fill="midnightblue" stroke="midnightblue" points="132.725,-20.9728 122.135,-20.6543 130.215,-27.5073 132.725,-20.9728"/>
</g>
<!-- Node5 -->
<g id="node10" class="node"><title>Node5</title>
<polygon fill="none" stroke="#bfbfbf" points="139.5,-0.5 139.5,-21.5 180.5,-21.5 180.5,-0.5 139.5,-0.5"/>
<text text-anchor="middle" x="160" y="-8.5" font-family="Helvetica,sans-Serif" font-size="10.00">string</text>
</g>
<!-- Node3&#45;&gt;Node5 -->
<g id="edge10" class="edge"><title>Node3&#45;&gt;Node5</title>
<path fill="none" stroke="midnightblue" d="M231.859,-58.3619C218.586,-49.6138 199.568,-37.0786 184.43,-27.1015"/>
<polygon fill="midnightblue" stroke="midnightblue" points="186.314,-24.1515 176.038,-21.5707 182.462,-29.9962 186.314,-24.1515"/>
</g>
<!-- Node6 -->
<g id="node12" class="node"><title>Node6</title>
<polygon fill="none" stroke="#bfbfbf" points="198,-0.5 198,-21.5 242,-21.5 242,-0.5 198,-0.5"/>
<text text-anchor="middle" x="220" y="-8.5" font-family="Helvetica,sans-Serif" font-size="10.00">vector</text>
</g>
<!-- Node3&#45;&gt;Node6 -->
<g id="edge12" class="edge"><title>Node3&#45;&gt;Node6</title>
<path fill="none" stroke="midnightblue" d="M242.864,-58.3619C239.154,-50.6766 234.033,-40.0686 229.578,-30.8399"/>
<polygon fill="midnightblue" stroke="midnightblue" points="232.603,-29.0545 225.103,-21.5707 226.299,-32.0978 232.603,-29.0545"/>
</g>
<!-- Node7 -->
<g id="node14" class="node"><title>Node7</title>
<polygon fill="none" stroke="#bfbfbf" points="259.5,-0.5 259.5,-21.5 294.5,-21.5 294.5,-0.5 259.5,-0.5"/>
<text text-anchor="middle" x="277" y="-8.5" font-family="Helvetica,sans-Serif" font-size="10.00">map</text>
</g>
<!-- Node3&#45;&gt;Node7 -->
<g id="edge14" class="edge"><title>Node3&#45;&gt;Node7</title>
<path fill="none" stroke="midnightblue" d="M253.319,-58.3619C257.203,-50.5949 262.579,-39.8426 267.227,-30.5458"/>
<polygon fill="midnightblue" stroke="midnightblue" points="270.373,-32.0802 271.715,-21.5707 264.112,-28.9497 270.373,-32.0802"/>
</g>
<!-- Node8 -->
<g id="node16" class="node"><title>Node8</title>
<polygon fill="none" stroke="#bfbfbf" points="312,-0.5 312,-21.5 360,-21.5 360,-0.5 312,-0.5"/>
<text text-anchor="middle" x="336" y="-8.5" font-family="Helvetica,sans-Serif" font-size="10.00">stdlib.h</text>
</g>
<!-- Node3&#45;&gt;Node8 -->
<g id="edge16" class="edge"><title>Node3&#45;&gt;Node8</title>
<path fill="none" stroke="midnightblue" d="M264.141,-58.3619C277.414,-49.6138 296.432,-37.0786 311.57,-27.1015"/>
<polygon fill="midnightblue" stroke="midnightblue" points="313.538,-29.9962 319.962,-21.5707 309.686,-24.1515 313.538,-29.9962"/>
</g>
<!-- Node9 -->
<g id="node18" class="node"><title>Node9</title>
<polygon fill="none" stroke="#bfbfbf" points="377.5,-0.5 377.5,-21.5 426.5,-21.5 426.5,-0.5 377.5,-0.5"/>
<text text-anchor="middle" x="402" y="-8.5" font-family="Helvetica,sans-Serif" font-size="10.00">dirent.h</text>
</g>
<!-- Node3&#45;&gt;Node9 -->
<g id="edge18" class="edge"><title>Node3&#45;&gt;Node9</title>
<path fill="none" stroke="midnightblue" d="M275.178,-58.7643C301.053,-49.0188 340.084,-34.3189 368.007,-23.8025"/>
<polygon fill="midnightblue" stroke="midnightblue" points="369.256,-27.0722 377.381,-20.2722 366.789,-20.5214 369.256,-27.0722"/>
</g>
<!-- Node10 -->
<g id="node20" class="node"><title>Node10</title>
<polygon fill="none" stroke="#bfbfbf" points="444,-0.5 444,-21.5 512,-21.5 512,-0.5 444,-0.5"/>
<text text-anchor="middle" x="478" y="-8.5" font-family="Helvetica,sans-Serif" font-size="10.00">sys/types.h</text>
</g>
<!-- Node3&#45;&gt;Node10 -->
<g id="edge20" class="edge"><title>Node3&#45;&gt;Node10</title>
<path fill="none" stroke="midnightblue" d="M275.262,-62.1862C309.832,-53.5377 371.536,-38.0731 433.75,-22.3105"/>
<polygon fill="midnightblue" stroke="midnightblue" points="434.903,-25.6292 443.736,-19.7791 433.182,-18.8438 434.903,-25.6292"/>
</g>
<!-- Node11 -->
<g id="node22" class="node"><title>Node11</title>
<polygon fill="none" stroke="#bfbfbf" points="529.5,-0.5 529.5,-21.5 578.5,-21.5 578.5,-0.5 529.5,-0.5"/>
<text text-anchor="middle" x="554" y="-8.5" font-family="Helvetica,sans-Serif" font-size="10.00">string.h</text>
</g>
<!-- Node3&#45;&gt;Node11 -->
<g id="edge22" class="edge"><title>Node3&#45;&gt;Node11</title>
<path fill="none" stroke="midnightblue" d="M275.019,-65.7279C322.72,-59.6571 425.05,-45.3167 519.547,-22.1174"/>
<polygon fill="midnightblue" stroke="midnightblue" points="520.397,-25.5126 529.253,-19.6958 518.703,-18.7208 520.397,-25.5126"/>
</g>
</g>
</svg>
