<?xml version="1.0" encoding="UTF-8" standalone="no"?>
<!DOCTYPE svg PUBLIC "-//W3C//DTD SVG 1.1//EN"
 "http://www.w3.org/Graphics/SVG/1.1/DTD/svg11.dtd">
<!-- Generated by graphviz version 2.26.3 (20100126.1600)
 -->
<!-- Title: src/enc/NumericEncoder.h Pages: 1 -->
<svg width="325pt" height="146pt"
 viewBox="0.00 0.00 325.00 146.00" xmlns="http://www.w3.org/2000/svg" xmlns:xlink="http://www.w3.org/1999/xlink">
<g id="graph1" class="graph" transform="scale(1 1) rotate(0) translate(4 142)">
<title>src/enc/NumericEncoder.h</title>
<!-- Node1 -->
<g id="node1" class="node"><title>Node1</title>
<polygon fill="#bfbfbf" stroke="black" points="110.5,-116.5 110.5,-137.5 243.5,-137.5 243.5,-116.5 110.5,-116.5"/>
<text text-anchor="middle" x="177" y="-124.5" font-family="Helvetica,sans-Serif" font-size="10.00">src/enc/NumericEncoder.h</text>
</g>
<!-- Node2 -->
<g id="node3" class="node"><title>Node2</title>
<a xlink:href="XDevice_8h.html" target="_top" xlink:title="src/dev/XDevice.h">
<polygon fill="none" stroke="black" points="59,-58.5 59,-79.5 157,-79.5 157,-58.5 59,-58.5"/>
<text text-anchor="middle" x="108" y="-66.5" font-family="Helvetica,sans-Serif" font-size="10.00">src/dev/XDevice.h</text>
</a>
</g>
<!-- Node1&#45;&gt;Node2 -->
<g id="edge2" class="edge"><title>Node1&#45;&gt;Node2</title>
<path fill="none" stroke="midnightblue" d="M156.408,-109.691C144.76,-99.8996 130.571,-87.973 120.575,-79.5707"/>
<polygon fill="midnightblue" stroke="midnightblue" points="154.437,-112.607 164.344,-116.362 158.942,-107.248 154.437,-112.607"/>
</g>
<!-- Node5 -->
<g id="node9" class="node"><title>Node5</title>
<a xlink:href="NumericEncoder_8cpp.html" target="_top" xlink:title="src/enc/NumericEncoder.cpp">
<polygon fill="none" stroke="black" points="174.5,-58.5 174.5,-79.5 317.5,-79.5 317.5,-58.5 174.5,-58.5"/>
<text text-anchor="middle" x="246" y="-66.5" font-family="Helvetica,sans-Serif" font-size="10.00">src/enc/NumericEncoder.cpp</text>
</a>
</g>
<!-- Node1&#45;&gt;Node5 -->
<g id="edge8" class="edge"><title>Node1&#45;&gt;Node5</title>
<path fill="none" stroke="midnightblue" d="M197.592,-109.691C209.24,-99.8996 223.429,-87.973 233.425,-79.5707"/>
<polygon fill="midnightblue" stroke="midnightblue" points="195.058,-107.248 189.656,-116.362 199.563,-112.607 195.058,-107.248"/>
</g>
<!-- Node3 -->
<g id="node5" class="node"><title>Node3</title>
<a xlink:href="XDevice_8cpp.html" target="_top" xlink:title="src/dev/XDevice.cpp">
<polygon fill="none" stroke="black" points="0,-0.5 0,-21.5 108,-21.5 108,-0.5 0,-0.5"/>
<text text-anchor="middle" x="54" y="-8.5" font-family="Helvetica,sans-Serif" font-size="10.00">src/dev/XDevice.cpp</text>
</a>
</g>
<!-- Node2&#45;&gt;Node3 -->
<g id="edge4" class="edge"><title>Node2&#45;&gt;Node3</title>
<path fill="none" stroke="midnightblue" d="M91.083,-50.8299C82.1245,-41.2078 71.4366,-29.7282 63.8416,-21.5707"/>
<polygon fill="midnightblue" stroke="midnightblue" points="88.7197,-53.4279 98.0956,-58.3619 93.843,-48.658 88.7197,-53.4279"/>
</g>
<!-- Node4 -->
<g id="node7" class="node"><title>Node4</title>
<a xlink:href="main_8cpp.html" target="_top" xlink:title="src/main.cpp">
<polygon fill="none" stroke="black" points="125.5,-0.5 125.5,-21.5 198.5,-21.5 198.5,-0.5 125.5,-0.5"/>
<text text-anchor="middle" x="162" y="-8.5" font-family="Helvetica,sans-Serif" font-size="10.00">src/main.cpp</text>
</a>
</g>
<!-- Node2&#45;&gt;Node4 -->
<g id="edge6" class="edge"><title>Node2&#45;&gt;Node4</title>
<path fill="none" stroke="midnightblue" d="M124.917,-50.8299C133.875,-41.2078 144.563,-29.7282 152.158,-21.5707"/>
<polygon fill="midnightblue" stroke="midnightblue" points="122.157,-48.658 117.904,-58.3619 127.28,-53.4279 122.157,-48.658"/>
</g>
</g>
</svg>
