<?xml version="1.0" encoding="UTF-8" standalone="no"?>
<!DOCTYPE svg PUBLIC "-//W3C//DTD SVG 1.1//EN"
 "http://www.w3.org/Graphics/SVG/1.1/DTD/svg11.dtd">
<!-- Generated by graphviz version 2.26.3 (20100126.1600)
 -->
<!-- Title: src/shared.cpp Pages: 1 -->
<svg width="586pt" height="146pt"
 viewBox="0.00 0.00 586.00 146.00" xmlns="http://www.w3.org/2000/svg" xmlns:xlink="http://www.w3.org/1999/xlink">
<g id="graph1" class="graph" transform="scale(1 1) rotate(0) translate(4 142)">
<title>src/shared.cpp</title>
<!-- Node1 -->
<g id="node1" class="node"><title>Node1</title>
<polygon fill="#bfbfbf" stroke="black" points="236.5,-116.5 236.5,-137.5 317.5,-137.5 317.5,-116.5 236.5,-116.5"/>
<text text-anchor="middle" x="277" y="-124.5" font-family="Helvetica,sans-Serif" font-size="10.00">src/shared.cpp</text>
</g>
<!-- Node2 -->
<g id="node3" class="node"><title>Node2</title>
<a xlink:href="shared_8h.html" target="_top" xlink:title="shared.h">
<polygon fill="none" stroke="black" points="250,-58.5 250,-79.5 304,-79.5 304,-58.5 250,-58.5"/>
<text text-anchor="middle" x="277" y="-66.5" font-family="Helvetica,sans-Serif" font-size="10.00">shared.h</text>
</a>
</g>
<!-- Node1&#45;&gt;Node2 -->
<g id="edge2" class="edge"><title>Node1&#45;&gt;Node2</title>
<path fill="none" stroke="midnightblue" d="M277,-116.362C277,-108.922 277,-98.7427 277,-89.7276"/>
<polygon fill="midnightblue" stroke="midnightblue" points="280.5,-89.5706 277,-79.5707 273.5,-89.5707 280.5,-89.5706"/>
</g>
<!-- Node3 -->
<g id="node5" class="node"><title>Node3</title>
<polygon fill="none" stroke="#bfbfbf" points="0,-0.5 0,-21.5 54,-21.5 54,-0.5 0,-0.5"/>
<text text-anchor="middle" x="27" y="-8.5" font-family="Helvetica,sans-Serif" font-size="10.00">iostream</text>
</g>
<!-- Node2&#45;&gt;Node3 -->
<g id="edge4" class="edge"><title>Node2&#45;&gt;Node3</title>
<path fill="none" stroke="midnightblue" d="M249.808,-63.7569C210.753,-56.0695 136.351,-40.8408 63.8157,-22.0723"/>
<polygon fill="midnightblue" stroke="midnightblue" points="64.6203,-18.6651 54.0602,-19.5233 62.8506,-25.4377 64.6203,-18.6651"/>
</g>
<!-- Node4 -->
<g id="node7" class="node"><title>Node4</title>
<polygon fill="none" stroke="#bfbfbf" points="72,-0.5 72,-21.5 122,-21.5 122,-0.5 72,-0.5"/>
<text text-anchor="middle" x="97" y="-8.5" font-family="Helvetica,sans-Serif" font-size="10.00">fstream</text>
</g>
<!-- Node2&#45;&gt;Node4 -->
<g id="edge6" class="edge"><title>Node2&#45;&gt;Node4</title>
<path fill="none" stroke="midnightblue" d="M249.819,-60.2629C222.385,-51.442 178.551,-37.3396 131.922,-22.295"/>
<polygon fill="midnightblue" stroke="midnightblue" points="132.841,-18.9139 122.25,-19.1735 130.691,-25.5756 132.841,-18.9139"/>
</g>
<!-- Node5 -->
<g id="node9" class="node"><title>Node5</title>
<polygon fill="none" stroke="#bfbfbf" points="139.5,-0.5 139.5,-21.5 180.5,-21.5 180.5,-0.5 139.5,-0.5"/>
<text text-anchor="middle" x="160" y="-8.5" font-family="Helvetica,sans-Serif" font-size="10.00">string</text>
</g>
<!-- Node2&#45;&gt;Node5 -->
<g id="edge8" class="edge"><title>Node2&#45;&gt;Node5</title>
<path fill="none" stroke="midnightblue" d="M255.812,-58.4966C237.31,-49.3245 210.261,-35.9157 189.618,-25.6823"/>
<polygon fill="midnightblue" stroke="midnightblue" points="191.152,-22.5362 180.637,-21.2305 188.042,-28.8079 191.152,-22.5362"/>
</g>
<!-- Node6 -->
<g id="node11" class="node"><title>Node6</title>
<polygon fill="none" stroke="#bfbfbf" points="198,-0.5 198,-21.5 242,-21.5 242,-0.5 198,-0.5"/>
<text text-anchor="middle" x="220" y="-8.5" font-family="Helvetica,sans-Serif" font-size="10.00">vector</text>
</g>
<!-- Node2&#45;&gt;Node6 -->
<g id="edge10" class="edge"><title>Node2&#45;&gt;Node6</title>
<path fill="none" stroke="midnightblue" d="M266.545,-58.3619C258.43,-50.1043 246.999,-38.4725 237.496,-28.8029"/>
<polygon fill="midnightblue" stroke="midnightblue" points="239.894,-26.2497 230.388,-21.5707 234.901,-31.1562 239.894,-26.2497"/>
</g>
<!-- Node7 -->
<g id="node13" class="node"><title>Node7</title>
<polygon fill="none" stroke="#bfbfbf" points="259.5,-0.5 259.5,-21.5 294.5,-21.5 294.5,-0.5 259.5,-0.5"/>
<text text-anchor="middle" x="277" y="-8.5" font-family="Helvetica,sans-Serif" font-size="10.00">map</text>
</g>
<!-- Node2&#45;&gt;Node7 -->
<g id="edge12" class="edge"><title>Node2&#45;&gt;Node7</title>
<path fill="none" stroke="midnightblue" d="M277,-58.3619C277,-50.9219 277,-40.7427 277,-31.7276"/>
<polygon fill="midnightblue" stroke="midnightblue" points="280.5,-31.5706 277,-21.5707 273.5,-31.5707 280.5,-31.5706"/>
</g>
<!-- Node8 -->
<g id="node15" class="node"><title>Node8</title>
<polygon fill="none" stroke="#bfbfbf" points="312,-0.5 312,-21.5 360,-21.5 360,-0.5 312,-0.5"/>
<text text-anchor="middle" x="336" y="-8.5" font-family="Helvetica,sans-Serif" font-size="10.00">stdlib.h</text>
</g>
<!-- Node2&#45;&gt;Node8 -->
<g id="edge14" class="edge"><title>Node2&#45;&gt;Node8</title>
<path fill="none" stroke="midnightblue" d="M287.822,-58.3619C296.221,-50.1043 308.054,-38.4725 317.89,-28.8029"/>
<polygon fill="midnightblue" stroke="midnightblue" points="320.569,-31.077 325.247,-21.5707 315.662,-26.0851 320.569,-31.077"/>
</g>
<!-- Node9 -->
<g id="node17" class="node"><title>Node9</title>
<polygon fill="none" stroke="#bfbfbf" points="377.5,-0.5 377.5,-21.5 426.5,-21.5 426.5,-0.5 377.5,-0.5"/>
<text text-anchor="middle" x="402" y="-8.5" font-family="Helvetica,sans-Serif" font-size="10.00">dirent.h</text>
</g>
<!-- Node2&#45;&gt;Node9 -->
<g id="edge16" class="edge"><title>Node2&#45;&gt;Node9</title>
<path fill="none" stroke="midnightblue" d="M299.637,-58.4966C319.248,-49.397 347.846,-36.1273 369.833,-25.9253"/>
<polygon fill="midnightblue" stroke="midnightblue" points="371.512,-29.0051 379.109,-21.6212 368.565,-22.6554 371.512,-29.0051"/>
</g>
<!-- Node10 -->
<g id="node19" class="node"><title>Node10</title>
<polygon fill="none" stroke="#bfbfbf" points="444,-0.5 444,-21.5 512,-21.5 512,-0.5 444,-0.5"/>
<text text-anchor="middle" x="478" y="-8.5" font-family="Helvetica,sans-Serif" font-size="10.00">sys/types.h</text>
</g>
<!-- Node2&#45;&gt;Node10 -->
<g id="edge18" class="edge"><title>Node2&#45;&gt;Node10</title>
<path fill="none" stroke="midnightblue" d="M304.108,-61.1779C337.497,-51.5431 394.651,-35.051 434.278,-23.6164"/>
<polygon fill="midnightblue" stroke="midnightblue" points="435.312,-26.9609 443.949,-20.8256 433.371,-20.2353 435.312,-26.9609"/>
</g>
<!-- Node11 -->
<g id="node21" class="node"><title>Node11</title>
<polygon fill="none" stroke="#bfbfbf" points="529.5,-0.5 529.5,-21.5 578.5,-21.5 578.5,-0.5 529.5,-0.5"/>
<text text-anchor="middle" x="554" y="-8.5" font-family="Helvetica,sans-Serif" font-size="10.00">string.h</text>
</g>
<!-- Node2&#45;&gt;Node11 -->
<g id="edge20" class="edge"><title>Node2&#45;&gt;Node11</title>
<path fill="none" stroke="midnightblue" d="M304.342,-64.9372C348.014,-58.1903 436.313,-43.4956 519.397,-22.2022"/>
<polygon fill="midnightblue" stroke="midnightblue" points="520.442,-25.547 529.239,-19.642 518.68,-18.7725 520.442,-25.547"/>
</g>
</g>
</svg>
