<?xml version="1.0" encoding="UTF-8" standalone="no"?>
<!DOCTYPE svg PUBLIC "-//W3C//DTD SVG 1.1//EN"
 "http://www.w3.org/Graphics/SVG/1.1/DTD/svg11.dtd">
<!-- Generated by graphviz version 2.26.3 (20100126.1600)
 -->
<!-- Title: G Pages: 1 -->
<svg width="290pt" height="88pt"
 viewBox="0.00 0.00 290.00 88.00" xmlns="http://www.w3.org/2000/svg" xmlns:xlink="http://www.w3.org/1999/xlink">
<g id="graph1" class="graph" transform="scale(1 1) rotate(0) translate(4 84)">
<title>G</title>
<!-- Node1 -->
<g id="node1" class="node"><title>Node1</title>
<polygon fill="#bfbfbf" stroke="black" points="0,-20.5 0,-41.5 68,-41.5 68,-20.5 0,-20.5"/>
<text text-anchor="middle" x="34" y="-28.5" font-family="Helvetica,sans-Serif" font-size="10.00">list_devices</text>
</g>
<!-- Node2 -->
<g id="node3" class="node"><title>Node2</title>
<a xlink:href="shared_8h.html#a4e8967bc1121a8e53f47ecd950a575c2" target="_top" xlink:title="Getting filenames associated with a special filetype.">
<polygon fill="none" stroke="black" points="104,-20.5 104,-41.5 172,-41.5 172,-20.5 104,-20.5"/>
<text text-anchor="middle" x="138" y="-28.5" font-family="Helvetica,sans-Serif" font-size="10.00">list_devices</text>
</a>
</g>
<!-- Node1&#45;&gt;Node2 -->
<g id="edge2" class="edge"><title>Node1&#45;&gt;Node2</title>
<path fill="none" stroke="midnightblue" d="M78.2896,-31C86.8499,-31 95.6953,-31 103.87,-31"/>
<polygon fill="midnightblue" stroke="midnightblue" points="78.0535,-27.5001 68.0535,-31 78.0535,-34.5001 78.0535,-27.5001"/>
</g>
<!-- Node3 -->
<g id="node5" class="node"><title>Node3</title>
<a xlink:href="main_8h.html#a3c04138a5bfe5d72780bb7e82a18e627" target="_top" xlink:title="Main function / Program entry point. (For testing purposes)">
<polygon fill="none" stroke="black" points="226,-58.5 226,-79.5 264,-79.5 264,-58.5 226,-58.5"/>
<text text-anchor="middle" x="245" y="-66.5" font-family="Helvetica,sans-Serif" font-size="10.00">main</text>
</a>
</g>
<!-- Node1&#45;&gt;Node3 -->
<g id="edge10" class="edge"><title>Node1&#45;&gt;Node3</title>
<path fill="none" stroke="midnightblue" d="M56.7754,-47.1402C69.9085,-55.4486 87.121,-64.714 104,-69 146.47,-79.7843 198.484,-75.4874 225.932,-71.9269"/>
<polygon fill="midnightblue" stroke="midnightblue" points="58.6652,-44.194 48.3893,-41.6142 54.8135,-50.0391 58.6652,-44.194"/>
</g>
<!-- Node4 -->
<g id="node8" class="node"><title>Node4</title>
<a xlink:href="shared_8h.html#a0999e468d95494b1d169f5f12cb08939" target="_top" xlink:title="Map all devices of a directory, sorted by their filetype.">
<polygon fill="none" stroke="black" points="208,-0.5 208,-21.5 282,-21.5 282,-0.5 208,-0.5"/>
<text text-anchor="middle" x="245" y="-8.5" font-family="Helvetica,sans-Serif" font-size="10.00">map_devices</text>
</a>
</g>
<!-- Node1&#45;&gt;Node4 -->
<g id="edge12" class="edge"><title>Node1&#45;&gt;Node4</title>
<path fill="none" stroke="midnightblue" d="M73.7819,-17.567C83.5506,-14.8452 94.0598,-12.3922 104,-11 139.03,-6.09381 179.438,-6.72624 207.992,-8.20787"/>
<polygon fill="midnightblue" stroke="midnightblue" points="72.5301,-14.2869 63.9248,-20.4675 74.5062,-21.0022 72.5301,-14.2869"/>
</g>
<!-- Node2&#45;&gt;Node2 -->
<g id="edge6" class="edge"><title>Node2&#45;&gt;Node2</title>
<path fill="none" stroke="midnightblue" d="M118.834,-51.4266C120.312,-56.3489 126.701,-60 138,-60 156.078,-60 161.586,-50.6531 154.525,-41.7079"/>
<polygon fill="midnightblue" stroke="midnightblue" points="122.23,-52.2758 121.475,-41.7079 115.475,-50.4398 122.23,-52.2758"/>
</g>
<!-- Node2&#45;&gt;Node3 -->
<g id="edge4" class="edge"><title>Node2&#45;&gt;Node3</title>
<path fill="none" stroke="midnightblue" d="M177.268,-44.9456C193.813,-50.8214 212.316,-57.3928 225.797,-62.1803"/>
<polygon fill="midnightblue" stroke="midnightblue" points="178.4,-41.6336 167.805,-41.5851 176.058,-48.23 178.4,-41.6336"/>
</g>
<!-- Node2&#45;&gt;Node4 -->
<g id="edge8" class="edge"><title>Node2&#45;&gt;Node4</title>
<path fill="none" stroke="midnightblue" d="M182.013,-22.7733C190.594,-21.1694 199.511,-19.5027 207.843,-17.9453"/>
<polygon fill="midnightblue" stroke="midnightblue" points="181.336,-19.3391 172.15,-24.6169 182.623,-26.2199 181.336,-19.3391"/>
</g>
</g>
</svg>
