<?xml version="1.0" encoding="UTF-8" standalone="no"?>
<!DOCTYPE svg PUBLIC "-//W3C//DTD SVG 1.1//EN"
 "http://www.w3.org/Graphics/SVG/1.1/DTD/svg11.dtd">
<!-- Generated by graphviz version 2.26.3 (20100126.1600)
 -->
<!-- Title: list_devices Pages: 1 -->
<svg width="180pt" height="48pt"
 viewBox="0.00 0.00 180.00 48.00" xmlns="http://www.w3.org/2000/svg" xmlns:xlink="http://www.w3.org/1999/xlink">
<g id="graph1" class="graph" transform="scale(1 1) rotate(0) translate(4 44)">
<title>list_devices</title>
<!-- Node1 -->
<g id="node1" class="node"><title>Node1</title>
<polygon fill="#bfbfbf" stroke="black" points="0,-0.5 0,-21.5 68,-21.5 68,-0.5 0,-0.5"/>
<text text-anchor="middle" x="34" y="-8.5" font-family="Helvetica,sans-Serif" font-size="10.00">list_devices</text>
</g>
<!-- Node2 -->
<g id="node3" class="node"><title>Node2</title>
<a xlink:href="shared_8cpp.html#ae72951d147069c720ee092240ad36915" target="_top" xlink:title="Getting filenames associated with a special filetype.">
<polygon fill="none" stroke="black" points="104,-0.5 104,-21.5 172,-21.5 172,-0.5 104,-0.5"/>
<text text-anchor="middle" x="138" y="-8.5" font-family="Helvetica,sans-Serif" font-size="10.00">list_devices</text>
</a>
</g>
<!-- Node1&#45;&gt;Node2 -->
<g id="edge2" class="edge"><title>Node1&#45;&gt;Node2</title>
<path fill="none" stroke="midnightblue" d="M68.0535,-11C76.224,-11 85.0682,-11 93.6303,-11"/>
<polygon fill="midnightblue" stroke="midnightblue" points="93.87,-14.5001 103.87,-11 93.87,-7.5001 93.87,-14.5001"/>
</g>
<!-- Node2&#45;&gt;Node2 -->
<g id="edge4" class="edge"><title>Node2&#45;&gt;Node2</title>
<path fill="none" stroke="midnightblue" d="M121.475,-21.7079C114.414,-30.6531 119.922,-40 138,-40 149.299,-40 155.688,-36.3489 157.166,-31.4266"/>
<polygon fill="midnightblue" stroke="midnightblue" points="160.525,-30.4398 154.525,-21.7079 153.77,-32.2758 160.525,-30.4398"/>
</g>
</g>
</svg>
