<?xml version="1.0" encoding="UTF-8" standalone="no"?>
<!DOCTYPE svg PUBLIC "-//W3C//DTD SVG 1.1//EN"
 "http://www.w3.org/Graphics/SVG/1.1/DTD/svg11.dtd">
<!-- Generated by graphviz version 2.26.3 (20100126.1600)
 -->
<!-- Title: G Pages: 1 -->
<svg width="186pt" height="48pt"
 viewBox="0.00 0.00 186.00 48.00" xmlns="http://www.w3.org/2000/svg" xmlns:xlink="http://www.w3.org/1999/xlink">
<g id="graph1" class="graph" transform="scale(1 1) rotate(0) translate(4 44)">
<title>G</title>
<!-- Node1 -->
<g id="node1" class="node"><title>Node1</title>
<polygon fill="#bfbfbf" stroke="black" points="0,-0.5 0,-21.5 74,-21.5 74,-0.5 0,-0.5"/>
<text text-anchor="middle" x="37" y="-8.5" font-family="Helvetica,sans-Serif" font-size="10.00">map_devices</text>
</g>
<!-- Node2 -->
<g id="node3" class="node"><title>Node2</title>
<a xlink:href="shared_8cpp.html#ae72951d147069c720ee092240ad36915" target="_top" xlink:title="Getting filenames associated with a special filetype.">
<polygon fill="none" stroke="black" points="110,-0.5 110,-21.5 178,-21.5 178,-0.5 110,-0.5"/>
<text text-anchor="middle" x="144" y="-8.5" font-family="Helvetica,sans-Serif" font-size="10.00">list_devices</text>
</a>
</g>
<!-- Node1&#45;&gt;Node2 -->
<g id="edge2" class="edge"><title>Node1&#45;&gt;Node2</title>
<path fill="none" stroke="midnightblue" d="M74.1231,-11C82.3622,-11 91.1748,-11 99.6695,-11"/>
<polygon fill="midnightblue" stroke="midnightblue" points="99.8136,-14.5001 109.814,-11 99.8135,-7.5001 99.8136,-14.5001"/>
</g>
<!-- Node2&#45;&gt;Node2 -->
<g id="edge4" class="edge"><title>Node2&#45;&gt;Node2</title>
<path fill="none" stroke="midnightblue" d="M127.158,-21.7079C119.96,-30.6531 125.574,-40 144,-40 155.516,-40 162.028,-36.3489 163.535,-31.4266"/>
<polygon fill="midnightblue" stroke="midnightblue" points="166.885,-30.4105 160.842,-21.7079 160.139,-32.2793 166.885,-30.4105"/>
</g>
</g>
</svg>
