<?xml version="1.0" encoding="UTF-8" standalone="no"?>
<!DOCTYPE svg PUBLIC "-//W3C//DTD SVG 1.1//EN"
 "http://www.w3.org/Graphics/SVG/1.1/DTD/svg11.dtd">
<!-- Generated by graphviz version 2.26.3 (20100126.1600)
 -->
<!-- Title: G Pages: 1 -->
<svg width="186pt" height="70pt"
 viewBox="0.00 0.00 186.00 70.00" xmlns="http://www.w3.org/2000/svg" xmlns:xlink="http://www.w3.org/1999/xlink">
<g id="graph1" class="graph" transform="scale(1 1) rotate(0) translate(4 66)">
<title>G</title>
<!-- Node1 -->
<g id="node1" class="node"><title>Node1</title>
<polygon fill="#bfbfbf" stroke="black" points="0,-20.5 0,-41.5 68,-41.5 68,-20.5 0,-20.5"/>
<text text-anchor="middle" x="34" y="-28.5" font-family="Helvetica,sans-Serif" font-size="10.00">list_devices</text>
</g>
<!-- Node1&#45;&gt;Node1 -->
<g id="edge2" class="edge"><title>Node1&#45;&gt;Node1</title>
<path fill="none" stroke="midnightblue" d="M14.4653,-51.4266C15.9723,-56.3489 22.4839,-60 34,-60 52.4258,-60 58.0399,-50.6531 50.8423,-41.7079"/>
<polygon fill="midnightblue" stroke="midnightblue" points="17.8609,-52.2793 17.1577,-41.7079 11.1149,-50.4105 17.8609,-52.2793"/>
</g>
<!-- Node2 -->
<g id="node4" class="node"><title>Node2</title>
<a xlink:href="main_8h.html#a3c04138a5bfe5d72780bb7e82a18e627" target="_top" xlink:title="Main function / Program entry point. (For testing purposes)">
<polygon fill="none" stroke="black" points="122,-40.5 122,-61.5 160,-61.5 160,-40.5 122,-40.5"/>
<text text-anchor="middle" x="141" y="-48.5" font-family="Helvetica,sans-Serif" font-size="10.00">main</text>
</a>
</g>
<!-- Node1&#45;&gt;Node2 -->
<g id="edge4" class="edge"><title>Node1&#45;&gt;Node2</title>
<path fill="none" stroke="midnightblue" d="M78.4104,-39.301C93.5519,-42.1312 109.694,-45.1484 121.792,-47.4098"/>
<polygon fill="midnightblue" stroke="midnightblue" points="78.6225,-35.7801 68.1497,-37.3831 77.3363,-42.6609 78.6225,-35.7801"/>
</g>
<!-- Node3 -->
<g id="node6" class="node"><title>Node3</title>
<a xlink:href="shared_8h.html#a0999e468d95494b1d169f5f12cb08939" target="_top" xlink:title="Map all devices of a directory, sorted by their filetype.">
<polygon fill="none" stroke="black" points="104,-0.5 104,-21.5 178,-21.5 178,-0.5 104,-0.5"/>
<text text-anchor="middle" x="141" y="-8.5" font-family="Helvetica,sans-Serif" font-size="10.00">map_devices</text>
</a>
</g>
<!-- Node1&#45;&gt;Node3 -->
<g id="edge6" class="edge"><title>Node1&#45;&gt;Node3</title>
<path fill="none" stroke="midnightblue" d="M78.013,-22.7733C86.5937,-21.1694 95.5108,-19.5027 103.843,-17.9453"/>
<polygon fill="midnightblue" stroke="midnightblue" points="77.3363,-19.3391 68.1497,-24.6169 78.6225,-26.2199 77.3363,-19.3391"/>
</g>
</g>
</svg>
