<?xml version="1.0" encoding="UTF-8" standalone="no"?>
<!DOCTYPE svg PUBLIC "-//W3C//DTD SVG 1.1//EN"
 "http://www.w3.org/Graphics/SVG/1.1/DTD/svg11.dtd">
<!-- Generated by graphviz version 2.26.3 (20100126.1600)
 -->
<!-- Title: src/shared.h Pages: 1 -->
<svg width="173pt" height="146pt"
 viewBox="0.00 0.00 173.00 146.00" xmlns="http://www.w3.org/2000/svg" xmlns:xlink="http://www.w3.org/1999/xlink">
<g id="graph1" class="graph" transform="scale(1 1) rotate(0) translate(4 142)">
<title>src/shared.h</title>
<!-- Node1 -->
<g id="node1" class="node"><title>Node1</title>
<polygon fill="#bfbfbf" stroke="black" points="44.5,-116.5 44.5,-137.5 115.5,-137.5 115.5,-116.5 44.5,-116.5"/>
<text text-anchor="middle" x="80" y="-124.5" font-family="Helvetica,sans-Serif" font-size="10.00">src/shared.h</text>
</g>
<!-- Node2 -->
<g id="node3" class="node"><title>Node2</title>
<a xlink:href="main_8h.html" target="_top" xlink:title="src/main.h">
<polygon fill="none" stroke="black" points="5,-58.5 5,-79.5 67,-79.5 67,-58.5 5,-58.5"/>
<text text-anchor="middle" x="36" y="-66.5" font-family="Helvetica,sans-Serif" font-size="10.00">src/main.h</text>
</a>
</g>
<!-- Node1&#45;&gt;Node2 -->
<g id="edge2" class="edge"><title>Node1&#45;&gt;Node2</title>
<path fill="none" stroke="midnightblue" d="M65.7762,-108.25C58.5689,-98.75 50.0839,-87.5651 44.0191,-79.5707"/>
<polygon fill="midnightblue" stroke="midnightblue" points="63.0974,-110.51 71.9297,-116.362 68.6742,-106.28 63.0974,-110.51"/>
</g>
<!-- Node4 -->
<g id="node7" class="node"><title>Node4</title>
<a xlink:href="shared_8cpp.html" target="_top" xlink:title="src/shared.cpp">
<polygon fill="none" stroke="black" points="84.5,-58.5 84.5,-79.5 165.5,-79.5 165.5,-58.5 84.5,-58.5"/>
<text text-anchor="middle" x="125" y="-66.5" font-family="Helvetica,sans-Serif" font-size="10.00">src/shared.cpp</text>
</a>
</g>
<!-- Node1&#45;&gt;Node4 -->
<g id="edge6" class="edge"><title>Node1&#45;&gt;Node4</title>
<path fill="none" stroke="midnightblue" d="M94.5471,-108.25C101.918,-98.75 110.596,-87.5651 116.799,-79.5707"/>
<polygon fill="midnightblue" stroke="midnightblue" points="91.6184,-106.316 88.2537,-116.362 97.149,-110.607 91.6184,-106.316"/>
</g>
<!-- Node3 -->
<g id="node5" class="node"><title>Node3</title>
<a xlink:href="main_8cpp.html" target="_top" xlink:title="src/main.cpp">
<polygon fill="none" stroke="black" points="-0.5,-0.5 -0.5,-21.5 72.5,-21.5 72.5,-0.5 -0.5,-0.5"/>
<text text-anchor="middle" x="36" y="-8.5" font-family="Helvetica,sans-Serif" font-size="10.00">src/main.cpp</text>
</a>
</g>
<!-- Node2&#45;&gt;Node3 -->
<g id="edge4" class="edge"><title>Node2&#45;&gt;Node3</title>
<path fill="none" stroke="midnightblue" d="M36,-48.1906C36,-39.1684 36,-28.9941 36,-21.5707"/>
<polygon fill="midnightblue" stroke="midnightblue" points="32.5001,-48.3619 36,-58.3619 39.5001,-48.3619 32.5001,-48.3619"/>
</g>
</g>
</svg>
