<?xml version="1.0" encoding="UTF-8" standalone="no"?>
<!DOCTYPE svg PUBLIC "-//W3C//DTD SVG 1.1//EN"
 "http://www.w3.org/Graphics/SVG/1.1/DTD/svg11.dtd">
<!-- Generated by graphviz version 2.26.3 (20100126.1600)
 -->
<!-- Title: G Pages: 1 -->
<svg width="146pt" height="146pt"
 viewBox="0.00 0.00 146.00 146.00" xmlns="http://www.w3.org/2000/svg" xmlns:xlink="http://www.w3.org/1999/xlink">
<g id="graph1" class="graph" transform="scale(1 1) rotate(0) translate(4 142)">
<title>G</title>
<!-- Node1 -->
<g id="node1" class="node"><title>Node1</title>
<polygon fill="#bfbfbf" stroke="black" points="0,-116.5 0,-137.5 138,-137.5 138,-116.5 0,-116.5"/>
<text text-anchor="middle" x="69" y="-124.5" font-family="Helvetica,sans-Serif" font-size="10.00">src/dev/AbstractDevice.cpp</text>
</g>
<!-- Node2 -->
<g id="node3" class="node"><title>Node2</title>
<a xlink:href="AbstractDevice_8h.html" target="_top" xlink:title="AbstractDevice.h">
<polygon fill="none" stroke="black" points="23,-58.5 23,-79.5 115,-79.5 115,-58.5 23,-58.5"/>
<text text-anchor="middle" x="69" y="-66.5" font-family="Helvetica,sans-Serif" font-size="10.00">AbstractDevice.h</text>
</a>
</g>
<!-- Node1&#45;&gt;Node2 -->
<g id="edge2" class="edge"><title>Node1&#45;&gt;Node2</title>
<path fill="none" stroke="midnightblue" d="M69,-116.362C69,-108.922 69,-98.7427 69,-89.7276"/>
<polygon fill="midnightblue" stroke="midnightblue" points="72.5001,-89.5706 69,-79.5707 65.5001,-89.5707 72.5001,-89.5706"/>
</g>
<!-- Node3 -->
<g id="node5" class="node"><title>Node3</title>
<polygon fill="none" stroke="#bfbfbf" points="48.5,-0.5 48.5,-21.5 89.5,-21.5 89.5,-0.5 48.5,-0.5"/>
<text text-anchor="middle" x="69" y="-8.5" font-family="Helvetica,sans-Serif" font-size="10.00">string</text>
</g>
<!-- Node2&#45;&gt;Node3 -->
<g id="edge4" class="edge"><title>Node2&#45;&gt;Node3</title>
<path fill="none" stroke="midnightblue" d="M69,-58.3619C69,-50.9219 69,-40.7427 69,-31.7276"/>
<polygon fill="midnightblue" stroke="midnightblue" points="72.5001,-31.5706 69,-21.5707 65.5001,-31.5707 72.5001,-31.5706"/>
</g>
</g>
</svg>
