<?xml version="1.0" encoding="UTF-8" standalone="no"?>
<!DOCTYPE svg PUBLIC "-//W3C//DTD SVG 1.1//EN"
 "http://www.w3.org/Graphics/SVG/1.1/DTD/svg11.dtd">
<!-- Generated by graphviz version 2.26.3 (20100126.1600)
 -->
<!-- Title: G Pages: 1 -->
<svg width="390pt" height="204pt"
 viewBox="0.00 0.00 390.00 204.00" xmlns="http://www.w3.org/2000/svg" xmlns:xlink="http://www.w3.org/1999/xlink">
<g id="graph1" class="graph" transform="scale(1 1) rotate(0) translate(4 200)">
<title>G</title>
<!-- Node1 -->
<g id="node1" class="node"><title>Node1</title>
<polygon fill="#bfbfbf" stroke="black" points="82,-174.5 82,-195.5 210,-195.5 210,-174.5 82,-174.5"/>
<text text-anchor="middle" x="146" y="-182.5" font-family="Helvetica,sans-Serif" font-size="10.00">src/dev/AbstractDevice.h</text>
</g>
<!-- Node2 -->
<g id="node3" class="node"><title>Node2</title>
<a xlink:href="AbstractDevice_8cpp.html" target="_top" xlink:title="src/dev/AbstractDevice.cpp">
<polygon fill="none" stroke="black" points="0,-116.5 0,-137.5 138,-137.5 138,-116.5 0,-116.5"/>
<text text-anchor="middle" x="69" y="-124.5" font-family="Helvetica,sans-Serif" font-size="10.00">src/dev/AbstractDevice.cpp</text>
</a>
</g>
<!-- Node1&#45;&gt;Node2 -->
<g id="edge2" class="edge"><title>Node1&#45;&gt;Node2</title>
<path fill="none" stroke="midnightblue" d="M123.774,-168.259C110.639,-158.364 94.4048,-146.136 83.0335,-137.571"/>
<polygon fill="midnightblue" stroke="midnightblue" points="121.784,-171.141 131.877,-174.362 125.995,-165.55 121.784,-171.141"/>
</g>
<!-- Node3 -->
<g id="node5" class="node"><title>Node3</title>
<a xlink:href="CharacterDevice_8h.html" target="_top" xlink:title="src/dev/CharacterDevice.h">
<polygon fill="none" stroke="black" points="156,-116.5 156,-137.5 290,-137.5 290,-116.5 156,-116.5"/>
<text text-anchor="middle" x="223" y="-124.5" font-family="Helvetica,sans-Serif" font-size="10.00">src/dev/CharacterDevice.h</text>
</a>
</g>
<!-- Node1&#45;&gt;Node3 -->
<g id="edge4" class="edge"><title>Node1&#45;&gt;Node3</title>
<path fill="none" stroke="midnightblue" d="M168.226,-168.259C181.361,-158.364 197.595,-146.136 208.967,-137.571"/>
<polygon fill="midnightblue" stroke="midnightblue" points="166.005,-165.55 160.123,-174.362 170.216,-171.141 166.005,-165.55"/>
</g>
<!-- Node4 -->
<g id="node7" class="node"><title>Node4</title>
<a xlink:href="CharacterDevice_8cpp.html" target="_top" xlink:title="src/dev/CharacterDevice.cpp">
<polygon fill="none" stroke="black" points="81,-58.5 81,-79.5 225,-79.5 225,-58.5 81,-58.5"/>
<text text-anchor="middle" x="153" y="-66.5" font-family="Helvetica,sans-Serif" font-size="10.00">src/dev/CharacterDevice.cpp</text>
</a>
</g>
<!-- Node3&#45;&gt;Node4 -->
<g id="edge6" class="edge"><title>Node3&#45;&gt;Node4</title>
<path fill="none" stroke="midnightblue" d="M202.453,-109.975C190.573,-100.132 175.997,-88.0545 165.758,-79.5707"/>
<polygon fill="midnightblue" stroke="midnightblue" points="200.228,-112.677 210.161,-116.362 204.694,-107.287 200.228,-112.677"/>
</g>
<!-- Node5 -->
<g id="node9" class="node"><title>Node5</title>
<a xlink:href="XDevice_8h.html" target="_top" xlink:title="src/dev/XDevice.h">
<polygon fill="none" stroke="black" points="243,-58.5 243,-79.5 341,-79.5 341,-58.5 243,-58.5"/>
<text text-anchor="middle" x="292" y="-66.5" font-family="Helvetica,sans-Serif" font-size="10.00">src/dev/XDevice.h</text>
</a>
</g>
<!-- Node3&#45;&gt;Node5 -->
<g id="edge8" class="edge"><title>Node3&#45;&gt;Node5</title>
<path fill="none" stroke="midnightblue" d="M243.592,-109.691C255.24,-99.8996 269.429,-87.973 279.425,-79.5707"/>
<polygon fill="midnightblue" stroke="midnightblue" points="241.058,-107.248 235.656,-116.362 245.563,-112.607 241.058,-107.248"/>
</g>
<!-- Node6 -->
<g id="node11" class="node"><title>Node6</title>
<a xlink:href="XDevice_8cpp.html" target="_top" xlink:title="src/dev/XDevice.cpp">
<polygon fill="none" stroke="black" points="184,-0.5 184,-21.5 292,-21.5 292,-0.5 184,-0.5"/>
<text text-anchor="middle" x="238" y="-8.5" font-family="Helvetica,sans-Serif" font-size="10.00">src/dev/XDevice.cpp</text>
</a>
</g>
<!-- Node5&#45;&gt;Node6 -->
<g id="edge10" class="edge"><title>Node5&#45;&gt;Node6</title>
<path fill="none" stroke="midnightblue" d="M275.083,-50.8299C266.125,-41.2078 255.437,-29.7282 247.842,-21.5707"/>
<polygon fill="midnightblue" stroke="midnightblue" points="272.72,-53.4279 282.096,-58.3619 277.843,-48.658 272.72,-53.4279"/>
</g>
<!-- Node7 -->
<g id="node13" class="node"><title>Node7</title>
<a xlink:href="main_8cpp.html" target="_top" xlink:title="src/main.cpp">
<polygon fill="none" stroke="black" points="309.5,-0.5 309.5,-21.5 382.5,-21.5 382.5,-0.5 309.5,-0.5"/>
<text text-anchor="middle" x="346" y="-8.5" font-family="Helvetica,sans-Serif" font-size="10.00">src/main.cpp</text>
</a>
</g>
<!-- Node5&#45;&gt;Node7 -->
<g id="edge12" class="edge"><title>Node5&#45;&gt;Node7</title>
<path fill="none" stroke="midnightblue" d="M308.917,-50.8299C317.875,-41.2078 328.563,-29.7282 336.158,-21.5707"/>
<polygon fill="midnightblue" stroke="midnightblue" points="306.157,-48.658 301.904,-58.3619 311.28,-53.4279 306.157,-48.658"/>
</g>
</g>
</svg>
