<?xml version="1.0" encoding="UTF-8" standalone="no"?>
<!DOCTYPE svg PUBLIC "-//W3C//DTD SVG 1.1//EN"
 "http://www.w3.org/Graphics/SVG/1.1/DTD/svg11.dtd">
<!-- Generated by graphviz version 2.26.3 (20100126.1600)
 -->
<!-- Title: G Pages: 1 -->
<svg width="171pt" height="204pt"
 viewBox="0.00 0.00 171.00 204.00" xmlns="http://www.w3.org/2000/svg" xmlns:xlink="http://www.w3.org/1999/xlink">
<g id="graph1" class="graph" transform="scale(1 1) rotate(0) translate(4 200)">
<title>G</title>
<!-- Node1 -->
<g id="node1" class="node"><title>Node1</title>
<polygon fill="#bfbfbf" stroke="black" points="0,-174.5 0,-195.5 144,-195.5 144,-174.5 0,-174.5"/>
<text text-anchor="middle" x="72" y="-182.5" font-family="Helvetica,sans-Serif" font-size="10.00">src/dev/CharacterDevice.cpp</text>
</g>
<!-- Node2 -->
<g id="node3" class="node"><title>Node2</title>
<a xlink:href="CharacterDevice_8h.html" target="_top" xlink:title="CharacterDevice.h">
<polygon fill="none" stroke="black" points="23,-116.5 23,-137.5 121,-137.5 121,-116.5 23,-116.5"/>
<text text-anchor="middle" x="72" y="-124.5" font-family="Helvetica,sans-Serif" font-size="10.00">CharacterDevice.h</text>
</a>
</g>
<!-- Node1&#45;&gt;Node2 -->
<g id="edge2" class="edge"><title>Node1&#45;&gt;Node2</title>
<path fill="none" stroke="midnightblue" d="M72,-174.362C72,-166.922 72,-156.743 72,-147.728"/>
<polygon fill="midnightblue" stroke="midnightblue" points="75.5001,-147.571 72,-137.571 68.5001,-147.571 75.5001,-147.571"/>
</g>
<!-- Node3 -->
<g id="node5" class="node"><title>Node3</title>
<polygon fill="none" stroke="#bfbfbf" points="3,-58.5 3,-79.5 53,-79.5 53,-58.5 3,-58.5"/>
<text text-anchor="middle" x="28" y="-66.5" font-family="Helvetica,sans-Serif" font-size="10.00">fstream</text>
</g>
<!-- Node2&#45;&gt;Node3 -->
<g id="edge4" class="edge"><title>Node2&#45;&gt;Node3</title>
<path fill="none" stroke="midnightblue" d="M63.9297,-116.362C57.8514,-108.35 49.3631,-97.1605 42.1631,-87.6696"/>
<polygon fill="midnightblue" stroke="midnightblue" points="44.8514,-85.4222 36.0191,-79.5707 39.2746,-89.653 44.8514,-85.4222"/>
</g>
<!-- Node4 -->
<g id="node7" class="node"><title>Node4</title>
<a xlink:href="AbstractDevice_8h.html" target="_top" xlink:title="AbstractDevice.h">
<polygon fill="none" stroke="black" points="71,-58.5 71,-79.5 163,-79.5 163,-58.5 71,-58.5"/>
<text text-anchor="middle" x="117" y="-66.5" font-family="Helvetica,sans-Serif" font-size="10.00">AbstractDevice.h</text>
</a>
</g>
<!-- Node2&#45;&gt;Node4 -->
<g id="edge6" class="edge"><title>Node2&#45;&gt;Node4</title>
<path fill="none" stroke="midnightblue" d="M80.2537,-116.362C86.4701,-108.35 95.1513,-97.1605 102.515,-87.6696"/>
<polygon fill="midnightblue" stroke="midnightblue" points="105.434,-89.617 108.799,-79.5707 99.9033,-85.326 105.434,-89.617"/>
</g>
<!-- Node5 -->
<g id="node9" class="node"><title>Node5</title>
<polygon fill="none" stroke="#bfbfbf" points="96.5,-0.5 96.5,-21.5 137.5,-21.5 137.5,-0.5 96.5,-0.5"/>
<text text-anchor="middle" x="117" y="-8.5" font-family="Helvetica,sans-Serif" font-size="10.00">string</text>
</g>
<!-- Node4&#45;&gt;Node5 -->
<g id="edge8" class="edge"><title>Node4&#45;&gt;Node5</title>
<path fill="none" stroke="midnightblue" d="M117,-58.3619C117,-50.9219 117,-40.7427 117,-31.7276"/>
<polygon fill="midnightblue" stroke="midnightblue" points="120.5,-31.5706 117,-21.5707 113.5,-31.5707 120.5,-31.5706"/>
</g>
</g>
</svg>
