<?xml version="1.0" encoding="UTF-8" standalone="no"?>
<!DOCTYPE svg PUBLIC "-//W3C//DTD SVG 1.1//EN"
 "http://www.w3.org/Graphics/SVG/1.1/DTD/svg11.dtd">
<!-- Generated by graphviz version 2.26.3 (20100126.1600)
 -->
<!-- Title: G Pages: 1 -->
<svg width="348pt" height="30pt"
 viewBox="0.00 0.00 348.00 30.00" xmlns="http://www.w3.org/2000/svg" xmlns:xlink="http://www.w3.org/1999/xlink">
<g id="graph1" class="graph" transform="scale(1 1) rotate(0) translate(4 26)">
<title>G</title>
<!-- Node1 -->
<g id="node1" class="node"><title>Node1</title>
<polygon fill="#bfbfbf" stroke="black" points="0.5,-0.5 0.5,-21.5 127.5,-21.5 127.5,-0.5 0.5,-0.5"/>
<text text-anchor="middle" x="64" y="-8.5" font-family="Helvetica,sans-Serif" font-size="10.00">NumericEncoder::decode</text>
</g>
<!-- Node2 -->
<g id="node3" class="node"><title>Node2</title>
<a xlink:href="classXDevice.html#a864929eab7587d8dea5f273c325d00e3" target="_top" xlink:title="XDevice::set_value">
<polygon fill="none" stroke="black" points="164,-0.5 164,-21.5 266,-21.5 266,-0.5 164,-0.5"/>
<text text-anchor="middle" x="215" y="-8.5" font-family="Helvetica,sans-Serif" font-size="10.00">XDevice::set_value</text>
</a>
</g>
<!-- Node1&#45;&gt;Node2 -->
<g id="edge2" class="edge"><title>Node1&#45;&gt;Node2</title>
<path fill="none" stroke="midnightblue" d="M137.871,-11C146.657,-11 155.472,-11 163.84,-11"/>
<polygon fill="midnightblue" stroke="midnightblue" points="137.6,-7.5001 127.6,-11 137.6,-14.5001 137.6,-7.5001"/>
</g>
<!-- Node3 -->
<g id="node5" class="node"><title>Node3</title>
<a xlink:href="main_8h.html#a3c04138a5bfe5d72780bb7e82a18e627" target="_top" xlink:title="Main function / Program entry point. (For testing purposes)">
<polygon fill="none" stroke="black" points="302,-0.5 302,-21.5 340,-21.5 340,-0.5 302,-0.5"/>
<text text-anchor="middle" x="321" y="-8.5" font-family="Helvetica,sans-Serif" font-size="10.00">main</text>
</a>
</g>
<!-- Node2&#45;&gt;Node3 -->
<g id="edge4" class="edge"><title>Node2&#45;&gt;Node3</title>
<path fill="none" stroke="midnightblue" d="M276.238,-11C285.473,-11 294.366,-11 301.758,-11"/>
<polygon fill="midnightblue" stroke="midnightblue" points="276.137,-7.5001 266.137,-11 276.137,-14.5001 276.137,-7.5001"/>
</g>
</g>
</svg>
