<?xml version="1.0" encoding="UTF-8" standalone="no"?>
<!DOCTYPE svg PUBLIC "-//W3C//DTD SVG 1.1//EN"
 "http://www.w3.org/Graphics/SVG/1.1/DTD/svg11.dtd">
<!-- Generated by graphviz version 2.26.3 (20100126.1600)
 -->
<!-- Title: G Pages: 1 -->
<svg width="352pt" height="70pt"
 viewBox="0.00 0.00 352.00 70.00" xmlns="http://www.w3.org/2000/svg" xmlns:xlink="http://www.w3.org/1999/xlink">
<g id="graph1" class="graph" transform="scale(1 1) rotate(0) translate(4 66)">
<title>G</title>
<!-- Node1 -->
<g id="node1" class="node"><title>Node1</title>
<polygon fill="#bfbfbf" stroke="black" points="0,-20.5 0,-41.5 168,-41.5 168,-20.5 0,-20.5"/>
<text text-anchor="middle" x="84" y="-28.5" font-family="Helvetica,sans-Serif" font-size="10.00">NumericEncoder::NumericEncoder</text>
</g>
<!-- Node2 -->
<g id="node3" class="node"><title>Node2</title>
<a xlink:href="classNumericEncoder.html#a81b4d01eeb3c24debb06f473eb0e71b3" target="_top" xlink:title="NumericEncoder::get_factor">
<polygon fill="none" stroke="black" points="204.5,-40.5 204.5,-61.5 343.5,-61.5 343.5,-40.5 204.5,-40.5"/>
<text text-anchor="middle" x="274" y="-48.5" font-family="Helvetica,sans-Serif" font-size="10.00">NumericEncoder::get_factor</text>
</a>
</g>
<!-- Node1&#45;&gt;Node2 -->
<g id="edge2" class="edge"><title>Node1&#45;&gt;Node2</title>
<path fill="none" stroke="midnightblue" d="M168.167,-39.8596C176.87,-40.7758 185.697,-41.705 194.35,-42.6158"/>
<polygon fill="midnightblue" stroke="midnightblue" points="194.097,-46.1084 204.409,-43.6746 194.83,-39.1469 194.097,-46.1084"/>
</g>
<!-- Node3 -->
<g id="node5" class="node"><title>Node3</title>
<a xlink:href="classNumericEncoder.html#ae19d475a0d15cca23998640ee035b238" target="_top" xlink:title="NumericEncoder::get_offset">
<polygon fill="none" stroke="black" points="204.5,-0.5 204.5,-21.5 343.5,-21.5 343.5,-0.5 204.5,-0.5"/>
<text text-anchor="middle" x="274" y="-8.5" font-family="Helvetica,sans-Serif" font-size="10.00">NumericEncoder::get_offset</text>
</a>
</g>
<!-- Node1&#45;&gt;Node3 -->
<g id="edge4" class="edge"><title>Node1&#45;&gt;Node3</title>
<path fill="none" stroke="midnightblue" d="M168.167,-22.1404C176.87,-21.2242 185.697,-20.295 194.35,-19.3842"/>
<polygon fill="midnightblue" stroke="midnightblue" points="194.83,-22.8531 204.409,-18.3254 194.097,-15.8916 194.83,-22.8531"/>
</g>
</g>
</svg>
