<?xml version="1.0" encoding="UTF-8" standalone="no"?>
<!DOCTYPE svg PUBLIC "-//W3C//DTD SVG 1.1//EN"
 "http://www.w3.org/Graphics/SVG/1.1/DTD/svg11.dtd">
<!-- Generated by graphviz version 2.26.3 (20100126.1600)
 -->
<!-- Title: G Pages: 1 -->
<svg width="262pt" height="714pt"
 viewBox="0.00 0.00 262.00 714.00" xmlns="http://www.w3.org/2000/svg" xmlns:xlink="http://www.w3.org/1999/xlink">
<g id="graph1" class="graph" transform="scale(1 1) rotate(0) translate(4 710)">
<title>G</title>
<!-- Node1 -->
<g id="node1" class="node"><title>Node1</title>
<polygon fill="#bfbfbf" stroke="black" points="-0.5,-0.5 -0.5,-141.5 110.5,-141.5 110.5,-0.5 -0.5,-0.5"/>
<text text-anchor="middle" x="55" y="-128.5" font-family="Helvetica,sans-Serif" font-size="10.00">CharacterDevice</text>
<polyline fill="none" stroke="black" points="-0.5,-120.5 110.5,-120.5 "/>
<text text-anchor="start" x="7.5" y="-107.5" font-family="Helvetica,sans-Serif" font-size="10.00">&#45; _location</text>
<polyline fill="none" stroke="black" points="-0.5,-99.5 110.5,-99.5 "/>
<text text-anchor="start" x="7.5" y="-86.5" font-family="Helvetica,sans-Serif" font-size="10.00">+ CharacterDevice()</text>
<text text-anchor="start" x="7.5" y="-73.5" font-family="Helvetica,sans-Serif" font-size="10.00">+ get_location()</text>
<text text-anchor="start" x="7.5" y="-60.5" font-family="Helvetica,sans-Serif" font-size="10.00">+ receive()</text>
<text text-anchor="start" x="7.5" y="-47.5" font-family="Helvetica,sans-Serif" font-size="10.00">+ send()</text>
<text text-anchor="start" x="7.5" y="-34.5" font-family="Helvetica,sans-Serif" font-size="10.00">+ set_location()</text>
<text text-anchor="start" x="7.5" y="-21.5" font-family="Helvetica,sans-Serif" font-size="10.00">+ ~CharacterDevice()</text>
<text text-anchor="start" x="7.5" y="-8.5" font-family="Helvetica,sans-Serif" font-size="10.00"># CharacterDevice()</text>
</g>
<!-- Node2 -->
<g id="node2" class="node"><title>Node2</title>
<a xlink:href="classAbstractDevice.html" target="_top" xlink:title="{AbstractDevice\&lt; std::string \&gt;\n|# _identifier\l|+ AbstractDevice()\l+ get_identifier()\l+ receive()\l+ send()\l+ set_identifier()\l+ ~AbstractDevice()\l}">
<polygon fill="none" stroke="black" points="52,-181 52,-309 198,-309 198,-181 52,-181"/>
<text text-anchor="middle" x="125" y="-296" font-family="Helvetica,sans-Serif" font-size="10.00">AbstractDevice&lt; std::string &gt;</text>
<polyline fill="none" stroke="black" points="52,-288 198,-288 "/>
<text text-anchor="start" x="60" y="-275" font-family="Helvetica,sans-Serif" font-size="10.00"># _identifier</text>
<polyline fill="none" stroke="black" points="52,-267 198,-267 "/>
<text text-anchor="start" x="60" y="-254" font-family="Helvetica,sans-Serif" font-size="10.00">+ AbstractDevice()</text>
<text text-anchor="start" x="60" y="-241" font-family="Helvetica,sans-Serif" font-size="10.00">+ get_identifier()</text>
<text text-anchor="start" x="60" y="-228" font-family="Helvetica,sans-Serif" font-size="10.00">+ receive()</text>
<text text-anchor="start" x="60" y="-215" font-family="Helvetica,sans-Serif" font-size="10.00">+ send()</text>
<text text-anchor="start" x="60" y="-202" font-family="Helvetica,sans-Serif" font-size="10.00">+ set_identifier()</text>
<text text-anchor="start" x="60" y="-189" font-family="Helvetica,sans-Serif" font-size="10.00">+ ~AbstractDevice()</text>
</a>
</g>
<!-- Node2&#45;&gt;Node1 -->
<g id="edge2" class="edge"><title>Node2&#45;&gt;Node1</title>
<path fill="none" stroke="midnightblue" d="M95.3844,-171.384C91.437,-161.572 87.3961,-151.527 83.4689,-141.766"/>
<polygon fill="none" stroke="midnightblue" points="92.154,-172.732 99.1335,-180.703 98.6482,-170.119 92.154,-172.732"/>
</g>
<!-- Node3 -->
<g id="node4" class="node"><title>Node3</title>
<a xlink:title="STL class.">
<polygon fill="none" stroke="#bfbfbf" points="52,-540.5 52,-603.5 112,-603.5 112,-540.5 52,-540.5"/>
<text text-anchor="middle" x="82" y="-590.5" font-family="Helvetica,sans-Serif" font-size="10.00">std::string</text>
<polyline fill="none" stroke="#bfbfbf" points="52,-582.5 112,-582.5 "/>
<text text-anchor="middle" x="82" y="-569.5" font-family="Helvetica,sans-Serif" font-size="10.00"> </text>
<polyline fill="none" stroke="#bfbfbf" points="52,-561.5 112,-561.5 "/>
<text text-anchor="middle" x="82" y="-548.5" font-family="Helvetica,sans-Serif" font-size="10.00"> </text>
</a>
</g>
<!-- Node3&#45;&gt;Node1 -->
<g id="edge12" class="edge"><title>Node3&#45;&gt;Node1</title>
<path fill="none" stroke="#404040" d="M75.4911,-540.325C65.8149,-491.251 48.215,-393.765 43,-310 39.4098,-252.334 39.8339,-237.691 43,-180 43.4698,-171.44 44.1456,-162.519 44.9404,-153.628"/>
<polygon fill="none" stroke="#404040" points="44.9519,-153.506 41.5389,-147.154 46.0899,-141.56 49.5029,-147.913 44.9519,-153.506"/>
<text text-anchor="middle" x="67.5" y="-332.5" font-family="Helvetica,sans-Serif" font-size="10.00"> _location</text>
</g>
<!-- Node3&#45;&gt;Node2 -->
<g id="edge4" class="edge"><title>Node3&#45;&gt;Node2</title>
<path fill="none" stroke="#404040" d="M80.939,-540.143C80.0996,-498.445 80.475,-423.229 91,-360 93.1331,-347.185 96.2463,-333.785 99.7352,-320.847"/>
<polygon fill="none" stroke="#404040" points="99.7827,-320.677 97.5541,-313.819 103.027,-309.124 105.256,-315.982 99.7827,-320.677"/>
<text text-anchor="middle" x="114" y="-422.5" font-family="Helvetica,sans-Serif" font-size="10.00"> _identifier</text>
</g>
<!-- Node5 -->
<g id="node8" class="node"><title>Node5</title>
<a xlink:href="classAbstractDevice.html" target="_top" xlink:title="(semi)Polymorph Class representing connected devices. This class represents devices that are conneted...">
<polygon fill="none" stroke="black" points="146,-361 146,-489 254,-489 254,-361 146,-361"/>
<text text-anchor="middle" x="200" y="-476" font-family="Helvetica,sans-Serif" font-size="10.00">AbstractDevice&lt; T &gt;</text>
<polyline fill="none" stroke="black" points="146,-468 254,-468 "/>
<text text-anchor="start" x="154" y="-455" font-family="Helvetica,sans-Serif" font-size="10.00"># _identifier</text>
<polyline fill="none" stroke="black" points="146,-447 254,-447 "/>
<text text-anchor="start" x="154" y="-434" font-family="Helvetica,sans-Serif" font-size="10.00">+ AbstractDevice()</text>
<text text-anchor="start" x="154" y="-421" font-family="Helvetica,sans-Serif" font-size="10.00">+ get_identifier()</text>
<text text-anchor="start" x="154" y="-408" font-family="Helvetica,sans-Serif" font-size="10.00">+ receive()</text>
<text text-anchor="start" x="154" y="-395" font-family="Helvetica,sans-Serif" font-size="10.00">+ send()</text>
<text text-anchor="start" x="154" y="-382" font-family="Helvetica,sans-Serif" font-size="10.00">+ set_identifier()</text>
<text text-anchor="start" x="154" y="-369" font-family="Helvetica,sans-Serif" font-size="10.00">+ ~AbstractDevice()</text>
</a>
</g>
<!-- Node3&#45;&gt;Node5 -->
<g id="edge10" class="edge"><title>Node3&#45;&gt;Node5</title>
<path fill="none" stroke="#404040" d="M107.314,-540.465C117.202,-528.147 128.989,-513.463 140.786,-498.766"/>
<polygon fill="none" stroke="#404040" points="141.009,-498.489 141.646,-491.306 148.521,-489.131 147.884,-496.314 141.009,-498.489"/>
<text text-anchor="middle" x="153" y="-512.5" font-family="Helvetica,sans-Serif" font-size="10.00"> _identifier</text>
</g>
<!-- Node4 -->
<g id="node6" class="node"><title>Node4</title>
<a xlink:title="STL class.">
<polygon fill="none" stroke="#bfbfbf" points="19.5,-642.5 19.5,-705.5 144.5,-705.5 144.5,-642.5 19.5,-642.5"/>
<text text-anchor="middle" x="82" y="-692.5" font-family="Helvetica,sans-Serif" font-size="10.00">std::basic_string&lt; char &gt;</text>
<polyline fill="none" stroke="#bfbfbf" points="19.5,-684.5 144.5,-684.5 "/>
<text text-anchor="middle" x="82" y="-671.5" font-family="Helvetica,sans-Serif" font-size="10.00"> </text>
<polyline fill="none" stroke="#bfbfbf" points="19.5,-663.5 144.5,-663.5 "/>
<text text-anchor="middle" x="82" y="-650.5" font-family="Helvetica,sans-Serif" font-size="10.00"> </text>
</a>
</g>
<!-- Node4&#45;&gt;Node3 -->
<g id="edge6" class="edge"><title>Node4&#45;&gt;Node3</title>
<path fill="none" stroke="midnightblue" d="M82,-632.194C82,-622.674 82,-612.712 82,-603.695"/>
<polygon fill="none" stroke="midnightblue" points="78.5001,-632.286 82,-642.286 85.5001,-632.286 78.5001,-632.286"/>
</g>
<!-- Node5&#45;&gt;Node2 -->
<g id="edge8" class="edge"><title>Node5&#45;&gt;Node2</title>
<path fill="none" stroke="orange" d="M169.263,-351.231C163.454,-337.291 157.422,-322.813 151.749,-309.197"/>
<polygon fill="orange" stroke="orange" points="166.164,-352.894 173.241,-360.778 172.625,-350.201 166.164,-352.894"/>
<text text-anchor="middle" x="196.5" y="-332.5" font-family="Helvetica,sans-Serif" font-size="10.00"> &lt; std::string &gt;</text>
</g>
</g>
</svg>
