<?xml version="1.0" encoding="UTF-8" standalone="no"?>
<!DOCTYPE svg PUBLIC "-//W3C//DTD SVG 1.1//EN"
 "http://www.w3.org/Graphics/SVG/1.1/DTD/svg11.dtd">
<!-- Generated by graphviz version 2.26.3 (20100126.1600)
 -->
<!-- Title: G Pages: 1 -->
<svg width="364pt" height="770pt"
 viewBox="0.00 0.00 364.00 770.00" xmlns="http://www.w3.org/2000/svg" xmlns:xlink="http://www.w3.org/1999/xlink">
<g id="graph1" class="graph" transform="scale(1 1) rotate(0) translate(4 766)">
<title>G</title>
<!-- Node1 -->
<g id="node1" class="node"><title>Node1</title>
<polygon fill="#bfbfbf" stroke="black" points="147.5,-0.5 147.5,-167.5 222.5,-167.5 222.5,-0.5 147.5,-0.5"/>
<text text-anchor="middle" x="185" y="-154.5" font-family="Helvetica,sans-Serif" font-size="10.00">XDevice</text>
<polyline fill="none" stroke="black" points="147.5,-146.5 222.5,-146.5 "/>
<text text-anchor="start" x="155.5" y="-133.5" font-family="Helvetica,sans-Serif" font-size="10.00">&#45; _unit</text>
<polyline fill="none" stroke="black" points="147.5,-125.5 222.5,-125.5 "/>
<text text-anchor="start" x="155.5" y="-112.5" font-family="Helvetica,sans-Serif" font-size="10.00">+ get_unit()</text>
<text text-anchor="start" x="155.5" y="-99.5" font-family="Helvetica,sans-Serif" font-size="10.00">+ get_value()</text>
<text text-anchor="start" x="155.5" y="-86.5" font-family="Helvetica,sans-Serif" font-size="10.00">+ operator=()</text>
<text text-anchor="start" x="155.5" y="-73.5" font-family="Helvetica,sans-Serif" font-size="10.00">+ set_unit()</text>
<text text-anchor="start" x="155.5" y="-60.5" font-family="Helvetica,sans-Serif" font-size="10.00">+ set_value()</text>
<text text-anchor="start" x="155.5" y="-47.5" font-family="Helvetica,sans-Serif" font-size="10.00">+ XDevice()</text>
<text text-anchor="start" x="155.5" y="-34.5" font-family="Helvetica,sans-Serif" font-size="10.00">+ XDevice()</text>
<text text-anchor="start" x="155.5" y="-21.5" font-family="Helvetica,sans-Serif" font-size="10.00">+ XDevice()</text>
<text text-anchor="start" x="155.5" y="-8.5" font-family="Helvetica,sans-Serif" font-size="10.00">+ ~XDevice()</text>
</g>
<!-- Node2 -->
<g id="node2" class="node"><title>Node2</title>
<a xlink:href="classCharacterDevice.html" target="_top" xlink:title="Class CharacterDevice is a specialization of template class AbstractDevice. This class reads files of...">
<polygon fill="none" stroke="black" points="51.5,-239.5 51.5,-380.5 162.5,-380.5 162.5,-239.5 51.5,-239.5"/>
<text text-anchor="middle" x="107" y="-367.5" font-family="Helvetica,sans-Serif" font-size="10.00">CharacterDevice</text>
<polyline fill="none" stroke="black" points="51.5,-359.5 162.5,-359.5 "/>
<text text-anchor="start" x="59.5" y="-346.5" font-family="Helvetica,sans-Serif" font-size="10.00">&#45; _location</text>
<polyline fill="none" stroke="black" points="51.5,-338.5 162.5,-338.5 "/>
<text text-anchor="start" x="59.5" y="-325.5" font-family="Helvetica,sans-Serif" font-size="10.00">+ CharacterDevice()</text>
<text text-anchor="start" x="59.5" y="-312.5" font-family="Helvetica,sans-Serif" font-size="10.00">+ get_location()</text>
<text text-anchor="start" x="59.5" y="-299.5" font-family="Helvetica,sans-Serif" font-size="10.00">+ receive()</text>
<text text-anchor="start" x="59.5" y="-286.5" font-family="Helvetica,sans-Serif" font-size="10.00">+ send()</text>
<text text-anchor="start" x="59.5" y="-273.5" font-family="Helvetica,sans-Serif" font-size="10.00">+ set_location()</text>
<text text-anchor="start" x="59.5" y="-260.5" font-family="Helvetica,sans-Serif" font-size="10.00">+ ~CharacterDevice()</text>
<text text-anchor="start" x="59.5" y="-247.5" font-family="Helvetica,sans-Serif" font-size="10.00"># CharacterDevice()</text>
</a>
</g>
<!-- Node2&#45;&gt;Node1 -->
<g id="edge2" class="edge"><title>Node2&#45;&gt;Node1</title>
<path fill="none" stroke="midnightblue" d="M134.634,-229.933C141.619,-209.693 149.138,-187.907 156.181,-167.502"/>
<polygon fill="none" stroke="midnightblue" points="131.313,-228.827 131.359,-239.422 137.93,-231.111 131.313,-228.827"/>
</g>
<!-- Node3 -->
<g id="node4" class="node"><title>Node3</title>
<a xlink:href="classAbstractDevice.html" target="_top" xlink:title="{AbstractDevice\&lt; std::string \&gt;\n|# _identifier\l|+ AbstractDevice()\l+ get_identifier()\l+ receive()\l+ send()\l+ set_identifier()\l+ ~AbstractDevice()\l}">
<polygon fill="none" stroke="black" points="0,-453 0,-581 146,-581 146,-453 0,-453"/>
<text text-anchor="middle" x="73" y="-568" font-family="Helvetica,sans-Serif" font-size="10.00">AbstractDevice&lt; std::string &gt;</text>
<polyline fill="none" stroke="black" points="0,-560 146,-560 "/>
<text text-anchor="start" x="8" y="-547" font-family="Helvetica,sans-Serif" font-size="10.00"># _identifier</text>
<polyline fill="none" stroke="black" points="0,-539 146,-539 "/>
<text text-anchor="start" x="8" y="-526" font-family="Helvetica,sans-Serif" font-size="10.00">+ AbstractDevice()</text>
<text text-anchor="start" x="8" y="-513" font-family="Helvetica,sans-Serif" font-size="10.00">+ get_identifier()</text>
<text text-anchor="start" x="8" y="-500" font-family="Helvetica,sans-Serif" font-size="10.00">+ receive()</text>
<text text-anchor="start" x="8" y="-487" font-family="Helvetica,sans-Serif" font-size="10.00">+ send()</text>
<text text-anchor="start" x="8" y="-474" font-family="Helvetica,sans-Serif" font-size="10.00">+ set_identifier()</text>
<text text-anchor="start" x="8" y="-461" font-family="Helvetica,sans-Serif" font-size="10.00">+ ~AbstractDevice()</text>
</a>
</g>
<!-- Node3&#45;&gt;Node2 -->
<g id="edge4" class="edge"><title>Node3&#45;&gt;Node2</title>
<path fill="none" stroke="midnightblue" d="M85.1855,-442.812C88.5124,-422.557 92.1074,-400.67 95.4006,-380.62"/>
<polygon fill="none" stroke="midnightblue" points="81.6921,-442.486 83.525,-452.922 88.5996,-443.621 81.6921,-442.486"/>
</g>
<!-- Node4 -->
<g id="node6" class="node"><title>Node4</title>
<a xlink:href="classAbstractDevice.html" target="_top" xlink:title="(semi)Polymorph Class representing connected devices. This class represents devices that are conneted...">
<polygon fill="none" stroke="black" points="19,-633 19,-761 127,-761 127,-633 19,-633"/>
<text text-anchor="middle" x="73" y="-748" font-family="Helvetica,sans-Serif" font-size="10.00">AbstractDevice&lt; T &gt;</text>
<polyline fill="none" stroke="black" points="19,-740 127,-740 "/>
<text text-anchor="start" x="27" y="-727" font-family="Helvetica,sans-Serif" font-size="10.00"># _identifier</text>
<polyline fill="none" stroke="black" points="19,-719 127,-719 "/>
<text text-anchor="start" x="27" y="-706" font-family="Helvetica,sans-Serif" font-size="10.00">+ AbstractDevice()</text>
<text text-anchor="start" x="27" y="-693" font-family="Helvetica,sans-Serif" font-size="10.00">+ get_identifier()</text>
<text text-anchor="start" x="27" y="-680" font-family="Helvetica,sans-Serif" font-size="10.00">+ receive()</text>
<text text-anchor="start" x="27" y="-667" font-family="Helvetica,sans-Serif" font-size="10.00">+ send()</text>
<text text-anchor="start" x="27" y="-654" font-family="Helvetica,sans-Serif" font-size="10.00">+ set_identifier()</text>
<text text-anchor="start" x="27" y="-641" font-family="Helvetica,sans-Serif" font-size="10.00">+ ~AbstractDevice()</text>
</a>
</g>
<!-- Node4&#45;&gt;Node3 -->
<g id="edge6" class="edge"><title>Node4&#45;&gt;Node3</title>
<path fill="none" stroke="orange" d="M73,-622.426C73,-608.734 73,-594.552 73,-581.197"/>
<polygon fill="orange" stroke="orange" points="69.5001,-622.778 73,-632.778 76.5001,-622.778 69.5001,-622.778"/>
<text text-anchor="middle" x="105.5" y="-604.5" font-family="Helvetica,sans-Serif" font-size="10.00"> &lt; std::string &gt;</text>
</g>
<!-- Node5 -->
<g id="node8" class="node"><title>Node5</title>
<a xlink:href="classNumericEncoder.html" target="_top" xlink:title="{NumericEncoder\n|&#45; _factor\l&#45; _offset\l|+ decode()\l+ encode()\l+ get_factor()\l+ get_offset()\l+ NumericEncoder()\l+ NumericEncoder()\l+ NumericEncoder()\l+ operator=()\l+ set_factor()\l+ set_offset()\l+ ~NumericEncoder()\l}">
<polygon fill="none" stroke="black" points="183,-207 183,-413 293,-413 293,-207 183,-207"/>
<text text-anchor="middle" x="238" y="-400" font-family="Helvetica,sans-Serif" font-size="10.00">NumericEncoder</text>
<polyline fill="none" stroke="black" points="183,-392 293,-392 "/>
<text text-anchor="start" x="191" y="-379" font-family="Helvetica,sans-Serif" font-size="10.00">&#45; _factor</text>
<text text-anchor="start" x="191" y="-366" font-family="Helvetica,sans-Serif" font-size="10.00">&#45; _offset</text>
<polyline fill="none" stroke="black" points="183,-358 293,-358 "/>
<text text-anchor="start" x="191" y="-345" font-family="Helvetica,sans-Serif" font-size="10.00">+ decode()</text>
<text text-anchor="start" x="191" y="-332" font-family="Helvetica,sans-Serif" font-size="10.00">+ encode()</text>
<text text-anchor="start" x="191" y="-319" font-family="Helvetica,sans-Serif" font-size="10.00">+ get_factor()</text>
<text text-anchor="start" x="191" y="-306" font-family="Helvetica,sans-Serif" font-size="10.00">+ get_offset()</text>
<text text-anchor="start" x="191" y="-293" font-family="Helvetica,sans-Serif" font-size="10.00">+ NumericEncoder()</text>
<text text-anchor="start" x="191" y="-280" font-family="Helvetica,sans-Serif" font-size="10.00">+ NumericEncoder()</text>
<text text-anchor="start" x="191" y="-267" font-family="Helvetica,sans-Serif" font-size="10.00">+ NumericEncoder()</text>
<text text-anchor="start" x="191" y="-254" font-family="Helvetica,sans-Serif" font-size="10.00">+ operator=()</text>
<text text-anchor="start" x="191" y="-241" font-family="Helvetica,sans-Serif" font-size="10.00">+ set_factor()</text>
<text text-anchor="start" x="191" y="-228" font-family="Helvetica,sans-Serif" font-size="10.00">+ set_offset()</text>
<text text-anchor="start" x="191" y="-215" font-family="Helvetica,sans-Serif" font-size="10.00">+ ~NumericEncoder()</text>
</a>
</g>
<!-- Node5&#45;&gt;Node1 -->
<g id="edge8" class="edge"><title>Node5&#45;&gt;Node1</title>
<path fill="none" stroke="midnightblue" d="M211.507,-197.031C209.186,-187.131 206.864,-177.23 204.613,-167.634"/>
<polygon fill="none" stroke="midnightblue" points="208.136,-197.984 213.826,-206.92 214.951,-196.385 208.136,-197.984"/>
</g>
<!-- Node6 -->
<g id="node10" class="node"><title>Node6</title>
<a xlink:href="classAbstractEncoder.html" target="_top" xlink:title="{AbstractEncoder\&lt; std::string, double \&gt;\n||+ decode()\l+ encode()\l}">
<polygon fill="none" stroke="black" points="163.5,-479 163.5,-555 348.5,-555 348.5,-479 163.5,-479"/>
<text text-anchor="middle" x="256" y="-542" font-family="Helvetica,sans-Serif" font-size="10.00">AbstractEncoder&lt; std::string, double &gt;</text>
<polyline fill="none" stroke="black" points="163.5,-534 348.5,-534 "/>
<text text-anchor="middle" x="256" y="-521" font-family="Helvetica,sans-Serif" font-size="10.00"> </text>
<polyline fill="none" stroke="black" points="163.5,-513 348.5,-513 "/>
<text text-anchor="start" x="171.5" y="-500" font-family="Helvetica,sans-Serif" font-size="10.00">+ decode()</text>
<text text-anchor="start" x="171.5" y="-487" font-family="Helvetica,sans-Serif" font-size="10.00">+ encode()</text>
</a>
</g>
<!-- Node6&#45;&gt;Node5 -->
<g id="edge10" class="edge"><title>Node6&#45;&gt;Node5</title>
<path fill="none" stroke="#8b1a1a" d="M251.789,-468.571C250.344,-451.951 248.666,-432.658 246.989,-413.371"/>
<polygon fill="none" stroke="#8b1a1a" points="248.303,-468.891 252.657,-478.55 255.277,-468.284 248.303,-468.891"/>
</g>
<!-- Node7 -->
<g id="node12" class="node"><title>Node7</title>
<a xlink:href="classAbstractEncoder.html" target="_top" xlink:title="{AbstractEncoder\&lt; T1, T2 \&gt;\n||+ decode()\l+ encode()\l}">
<polygon fill="none" stroke="black" points="188,-659 188,-735 324,-735 324,-659 188,-659"/>
<text text-anchor="middle" x="256" y="-722" font-family="Helvetica,sans-Serif" font-size="10.00">AbstractEncoder&lt; T1, T2 &gt;</text>
<polyline fill="none" stroke="black" points="188,-714 324,-714 "/>
<text text-anchor="middle" x="256" y="-701" font-family="Helvetica,sans-Serif" font-size="10.00"> </text>
<polyline fill="none" stroke="black" points="188,-693 324,-693 "/>
<text text-anchor="start" x="196" y="-680" font-family="Helvetica,sans-Serif" font-size="10.00">+ decode()</text>
<text text-anchor="start" x="196" y="-667" font-family="Helvetica,sans-Serif" font-size="10.00">+ encode()</text>
</a>
</g>
<!-- Node7&#45;&gt;Node6 -->
<g id="edge12" class="edge"><title>Node7&#45;&gt;Node6</title>
<path fill="none" stroke="orange" d="M256,-648.787C256,-619.422 256,-582.43 256,-555.118"/>
<polygon fill="orange" stroke="orange" points="252.5,-648.827 256,-658.827 259.5,-648.827 252.5,-648.827"/>
<text text-anchor="middle" x="306" y="-604.5" font-family="Helvetica,sans-Serif" font-size="10.00"> &lt; std::string, double &gt;</text>
</g>
</g>
</svg>
