<?xml version="1.0" encoding="UTF-8" standalone="no"?>
<!DOCTYPE svg PUBLIC "-//W3C//DTD SVG 1.1//EN"
 "http://www.w3.org/Graphics/SVG/1.1/DTD/svg11.dtd">
<!-- Generated by graphviz version 2.26.3 (20100126.1600)
 -->
<!-- Title: G Pages: 1 -->
<svg width="862pt" height="262pt"
 viewBox="0.00 0.00 862.00 262.00" xmlns="http://www.w3.org/2000/svg" xmlns:xlink="http://www.w3.org/1999/xlink">
<g id="graph1" class="graph" transform="scale(1 1) rotate(0) translate(4 258)">
<title>G</title>
<!-- Node1 -->
<g id="node1" class="node"><title>Node1</title>
<polygon fill="#bfbfbf" stroke="black" points="446.5,-232.5 446.5,-253.5 519.5,-253.5 519.5,-232.5 446.5,-232.5"/>
<text text-anchor="middle" x="483" y="-240.5" font-family="Helvetica,sans-Serif" font-size="10.00">src/main.cpp</text>
</g>
<!-- Node2 -->
<g id="node3" class="node"><title>Node2</title>
<a xlink:href="main_8h.html" target="_top" xlink:title="main.h">
<polygon fill="none" stroke="black" points="385,-174.5 385,-195.5 431,-195.5 431,-174.5 385,-174.5"/>
<text text-anchor="middle" x="408" y="-182.5" font-family="Helvetica,sans-Serif" font-size="10.00">main.h</text>
</a>
</g>
<!-- Node1&#45;&gt;Node2 -->
<g id="edge2" class="edge"><title>Node1&#45;&gt;Node2</title>
<path fill="none" stroke="midnightblue" d="M469.244,-232.362C458.249,-223.859 442.627,-211.779 429.914,-201.947"/>
<polygon fill="midnightblue" stroke="midnightblue" points="431.721,-198.919 421.669,-195.571 427.438,-204.457 431.721,-198.919"/>
</g>
<!-- Node13 -->
<g id="node25" class="node"><title>Node13</title>
<a xlink:href="XDevice_8h.html" target="_top" xlink:title="dev/XDevice.h">
<polygon fill="none" stroke="black" points="517.5,-174.5 517.5,-195.5 598.5,-195.5 598.5,-174.5 517.5,-174.5"/>
<text text-anchor="middle" x="558" y="-182.5" font-family="Helvetica,sans-Serif" font-size="10.00">dev/XDevice.h</text>
</a>
</g>
<!-- Node1&#45;&gt;Node13 -->
<g id="edge24" class="edge"><title>Node1&#45;&gt;Node13</title>
<path fill="none" stroke="midnightblue" d="M496.756,-232.362C507.751,-223.859 523.373,-211.779 536.086,-201.947"/>
<polygon fill="midnightblue" stroke="midnightblue" points="538.562,-204.457 544.331,-195.571 534.279,-198.919 538.562,-204.457"/>
</g>
<!-- Node3 -->
<g id="node5" class="node"><title>Node3</title>
<a xlink:href="shared_8h.html" target="_top" xlink:title="shared.h">
<polygon fill="none" stroke="black" points="254,-116.5 254,-137.5 308,-137.5 308,-116.5 254,-116.5"/>
<text text-anchor="middle" x="281" y="-124.5" font-family="Helvetica,sans-Serif" font-size="10.00">shared.h</text>
</a>
</g>
<!-- Node2&#45;&gt;Node3 -->
<g id="edge4" class="edge"><title>Node2&#45;&gt;Node3</title>
<path fill="none" stroke="midnightblue" d="M385.001,-174.497C364.987,-165.356 335.759,-152.008 313.381,-141.788"/>
<polygon fill="midnightblue" stroke="midnightblue" points="314.807,-138.592 304.257,-137.621 311.899,-144.959 314.807,-138.592"/>
</g>
<!-- Node4 -->
<g id="node7" class="node"><title>Node4</title>
<polygon fill="none" stroke="#bfbfbf" points="0,-58.5 0,-79.5 54,-79.5 54,-58.5 0,-58.5"/>
<text text-anchor="middle" x="27" y="-66.5" font-family="Helvetica,sans-Serif" font-size="10.00">iostream</text>
</g>
<!-- Node3&#45;&gt;Node4 -->
<g id="edge6" class="edge"><title>Node3&#45;&gt;Node4</title>
<path fill="none" stroke="midnightblue" d="M253.674,-121.381C213.055,-112.935 134.4,-96.2244 68,-80 66.7516,-79.695 65.4831,-79.3804 64.2029,-79.0592"/>
<polygon fill="midnightblue" stroke="midnightblue" points="64.8602,-75.6143 54.3032,-76.5084 63.1136,-82.3929 64.8602,-75.6143"/>
</g>
<!-- Node5 -->
<g id="node9" class="node"><title>Node5</title>
<polygon fill="none" stroke="#bfbfbf" points="508,-58.5 508,-79.5 558,-79.5 558,-58.5 508,-58.5"/>
<text text-anchor="middle" x="533" y="-66.5" font-family="Helvetica,sans-Serif" font-size="10.00">fstream</text>
</g>
<!-- Node3&#45;&gt;Node5 -->
<g id="edge8" class="edge"><title>Node3&#45;&gt;Node5</title>
<path fill="none" stroke="midnightblue" d="M308.058,-122.075C347.696,-114.664 424.024,-99.6566 497.901,-80.1133"/>
<polygon fill="midnightblue" stroke="midnightblue" points="499.079,-83.4212 507.833,-77.4537 497.268,-76.6594 499.079,-83.4212"/>
</g>
<!-- Node6 -->
<g id="node11" class="node"><title>Node6</title>
<polygon fill="none" stroke="#bfbfbf" points="331.5,-0.5 331.5,-21.5 372.5,-21.5 372.5,-0.5 331.5,-0.5"/>
<text text-anchor="middle" x="352" y="-8.5" font-family="Helvetica,sans-Serif" font-size="10.00">string</text>
</g>
<!-- Node3&#45;&gt;Node6 -->
<g id="edge10" class="edge"><title>Node3&#45;&gt;Node6</title>
<path fill="none" stroke="midnightblue" d="M253.695,-125.981C193.502,-122.777 58.0332,-109.759 101,-58 128.648,-24.694 260.162,-14.8521 320.998,-12.0569"/>
<polygon fill="midnightblue" stroke="midnightblue" points="321.312,-15.5469 331.154,-11.6261 321.015,-8.55319 321.312,-15.5469"/>
</g>
<!-- Node7 -->
<g id="node13" class="node"><title>Node7</title>
<polygon fill="none" stroke="#bfbfbf" points="110,-58.5 110,-79.5 154,-79.5 154,-58.5 110,-58.5"/>
<text text-anchor="middle" x="132" y="-66.5" font-family="Helvetica,sans-Serif" font-size="10.00">vector</text>
</g>
<!-- Node3&#45;&gt;Node7 -->
<g id="edge12" class="edge"><title>Node3&#45;&gt;Node7</title>
<path fill="none" stroke="midnightblue" d="M254.017,-116.497C228.623,-106.611 190.586,-91.8052 163.744,-81.3566"/>
<polygon fill="midnightblue" stroke="midnightblue" points="164.994,-78.0874 154.405,-77.7214 162.454,-84.6106 164.994,-78.0874"/>
</g>
<!-- Node8 -->
<g id="node15" class="node"><title>Node8</title>
<polygon fill="none" stroke="#bfbfbf" points="171.5,-58.5 171.5,-79.5 206.5,-79.5 206.5,-58.5 171.5,-58.5"/>
<text text-anchor="middle" x="189" y="-66.5" font-family="Helvetica,sans-Serif" font-size="10.00">map</text>
</g>
<!-- Node3&#45;&gt;Node8 -->
<g id="edge14" class="edge"><title>Node3&#45;&gt;Node8</title>
<path fill="none" stroke="midnightblue" d="M264.126,-116.362C250.249,-107.614 230.366,-95.0786 214.54,-85.1015"/>
<polygon fill="midnightblue" stroke="midnightblue" points="216.093,-81.943 205.767,-79.5707 212.36,-87.8645 216.093,-81.943"/>
</g>
<!-- Node9 -->
<g id="node17" class="node"><title>Node9</title>
<polygon fill="none" stroke="#bfbfbf" points="224,-58.5 224,-79.5 272,-79.5 272,-58.5 224,-58.5"/>
<text text-anchor="middle" x="248" y="-66.5" font-family="Helvetica,sans-Serif" font-size="10.00">stdlib.h</text>
</g>
<!-- Node3&#45;&gt;Node9 -->
<g id="edge16" class="edge"><title>Node3&#45;&gt;Node9</title>
<path fill="none" stroke="midnightblue" d="M274.947,-116.362C270.528,-108.595 264.41,-97.8426 259.121,-88.5458"/>
<polygon fill="midnightblue" stroke="midnightblue" points="262.002,-86.5315 254.014,-79.5707 255.918,-89.9932 262.002,-86.5315"/>
</g>
<!-- Node10 -->
<g id="node19" class="node"><title>Node10</title>
<polygon fill="none" stroke="#bfbfbf" points="289.5,-58.5 289.5,-79.5 338.5,-79.5 338.5,-58.5 289.5,-58.5"/>
<text text-anchor="middle" x="314" y="-66.5" font-family="Helvetica,sans-Serif" font-size="10.00">dirent.h</text>
</g>
<!-- Node3&#45;&gt;Node10 -->
<g id="edge18" class="edge"><title>Node3&#45;&gt;Node10</title>
<path fill="none" stroke="midnightblue" d="M287.053,-116.362C291.472,-108.595 297.59,-97.8426 302.879,-88.5458"/>
<polygon fill="midnightblue" stroke="midnightblue" points="306.082,-89.9932 307.986,-79.5707 299.998,-86.5315 306.082,-89.9932"/>
</g>
<!-- Node11 -->
<g id="node21" class="node"><title>Node11</title>
<polygon fill="none" stroke="#bfbfbf" points="356,-58.5 356,-79.5 424,-79.5 424,-58.5 356,-58.5"/>
<text text-anchor="middle" x="390" y="-66.5" font-family="Helvetica,sans-Serif" font-size="10.00">sys/types.h</text>
</g>
<!-- Node3&#45;&gt;Node11 -->
<g id="edge20" class="edge"><title>Node3&#45;&gt;Node11</title>
<path fill="none" stroke="midnightblue" d="M300.739,-116.497C317.61,-107.519 342.109,-94.4835 361.174,-84.3387"/>
<polygon fill="midnightblue" stroke="midnightblue" points="362.856,-87.4086 370.039,-79.6212 359.567,-81.2289 362.856,-87.4086"/>
</g>
<!-- Node12 -->
<g id="node23" class="node"><title>Node12</title>
<polygon fill="none" stroke="#bfbfbf" points="441.5,-58.5 441.5,-79.5 490.5,-79.5 490.5,-58.5 441.5,-58.5"/>
<text text-anchor="middle" x="466" y="-66.5" font-family="Helvetica,sans-Serif" font-size="10.00">string.h</text>
</g>
<!-- Node3&#45;&gt;Node12 -->
<g id="edge22" class="edge"><title>Node3&#45;&gt;Node12</title>
<path fill="none" stroke="midnightblue" d="M308.239,-118.773C336.797,-110.106 383.209,-95.8998 431.479,-80.4519"/>
<polygon fill="midnightblue" stroke="midnightblue" points="432.701,-83.7356 441.153,-77.347 430.562,-77.0705 432.701,-83.7356"/>
</g>
<!-- Node14 -->
<g id="node27" class="node"><title>Node14</title>
<a xlink:href="CharacterDevice_8h.html" target="_top" xlink:title="CharacterDevice.h">
<polygon fill="none" stroke="black" points="509,-116.5 509,-137.5 607,-137.5 607,-116.5 509,-116.5"/>
<text text-anchor="middle" x="558" y="-124.5" font-family="Helvetica,sans-Serif" font-size="10.00">CharacterDevice.h</text>
</a>
</g>
<!-- Node13&#45;&gt;Node14 -->
<g id="edge26" class="edge"><title>Node13&#45;&gt;Node14</title>
<path fill="none" stroke="midnightblue" d="M558,-174.362C558,-166.922 558,-156.743 558,-147.728"/>
<polygon fill="midnightblue" stroke="midnightblue" points="561.5,-147.571 558,-137.571 554.5,-147.571 561.5,-147.571"/>
</g>
<!-- Node16 -->
<g id="node33" class="node"><title>Node16</title>
<a xlink:href="NumericEncoder_8h.html" target="_top" xlink:title="../enc/NumericEncoder.h">
<polygon fill="none" stroke="black" points="649.5,-116.5 649.5,-137.5 774.5,-137.5 774.5,-116.5 649.5,-116.5"/>
<text text-anchor="middle" x="712" y="-124.5" font-family="Helvetica,sans-Serif" font-size="10.00">../enc/NumericEncoder.h</text>
</a>
</g>
<!-- Node13&#45;&gt;Node16 -->
<g id="edge34" class="edge"><title>Node13&#45;&gt;Node16</title>
<path fill="none" stroke="midnightblue" d="M585.888,-174.497C610.668,-165.164 647.095,-151.445 674.436,-141.147"/>
<polygon fill="midnightblue" stroke="midnightblue" points="675.935,-144.323 684.059,-137.523 673.468,-137.772 675.935,-144.323"/>
</g>
<!-- Node14&#45;&gt;Node5 -->
<g id="edge28" class="edge"><title>Node14&#45;&gt;Node5</title>
<path fill="none" stroke="midnightblue" d="M553.415,-116.362C550.102,-108.677 545.53,-98.0686 541.552,-88.8399"/>
<polygon fill="midnightblue" stroke="midnightblue" points="544.729,-87.3685 537.556,-79.5707 538.301,-90.1393 544.729,-87.3685"/>
</g>
<!-- Node15 -->
<g id="node30" class="node"><title>Node15</title>
<a xlink:href="AbstractDevice_8h.html" target="_top" xlink:title="AbstractDevice.h">
<polygon fill="none" stroke="black" points="576,-58.5 576,-79.5 668,-79.5 668,-58.5 576,-58.5"/>
<text text-anchor="middle" x="622" y="-66.5" font-family="Helvetica,sans-Serif" font-size="10.00">AbstractDevice.h</text>
</a>
</g>
<!-- Node14&#45;&gt;Node15 -->
<g id="edge30" class="edge"><title>Node14&#45;&gt;Node15</title>
<path fill="none" stroke="midnightblue" d="M569.739,-116.362C578.941,-108.023 591.94,-96.2418 602.672,-86.5162"/>
<polygon fill="midnightblue" stroke="midnightblue" points="605.276,-88.8793 610.336,-79.5707 600.576,-83.6924 605.276,-88.8793"/>
</g>
<!-- Node15&#45;&gt;Node6 -->
<g id="edge32" class="edge"><title>Node15&#45;&gt;Node6</title>
<path fill="none" stroke="midnightblue" d="M575.892,-59.0953C520.722,-47.244 429.897,-27.7334 382.672,-17.5887"/>
<polygon fill="midnightblue" stroke="midnightblue" points="383.251,-14.1334 372.739,-15.455 381.781,-20.9773 383.251,-14.1334"/>
</g>
<!-- Node17 -->
<g id="node35" class="node"><title>Node17</title>
<polygon fill="none" stroke="#bfbfbf" points="686,-58.5 686,-79.5 738,-79.5 738,-58.5 686,-58.5"/>
<text text-anchor="middle" x="712" y="-66.5" font-family="Helvetica,sans-Serif" font-size="10.00">sstream</text>
</g>
<!-- Node16&#45;&gt;Node17 -->
<g id="edge36" class="edge"><title>Node16&#45;&gt;Node17</title>
<path fill="none" stroke="midnightblue" d="M712,-116.362C712,-108.922 712,-98.7427 712,-89.7276"/>
<polygon fill="midnightblue" stroke="midnightblue" points="715.5,-89.5706 712,-79.5707 708.5,-89.5707 715.5,-89.5706"/>
</g>
<!-- Node18 -->
<g id="node37" class="node"><title>Node18</title>
<a xlink:href="AbstractEncoder_8h.html" target="_top" xlink:title="AbstractEncoder.h">
<polygon fill="none" stroke="black" points="756,-58.5 756,-79.5 854,-79.5 854,-58.5 756,-58.5"/>
<text text-anchor="middle" x="805" y="-66.5" font-family="Helvetica,sans-Serif" font-size="10.00">AbstractEncoder.h</text>
</a>
</g>
<!-- Node16&#45;&gt;Node18 -->
<g id="edge38" class="edge"><title>Node16&#45;&gt;Node18</title>
<path fill="none" stroke="midnightblue" d="M729.058,-116.362C743.085,-107.614 763.184,-95.0786 779.182,-85.1015"/>
<polygon fill="midnightblue" stroke="midnightblue" points="781.418,-87.8323 788.051,-79.5707 777.713,-81.8927 781.418,-87.8323"/>
</g>
</g>
</svg>
