<?xml version="1.0" encoding="UTF-8" standalone="no"?>
<!DOCTYPE svg PUBLIC "-//W3C//DTD SVG 1.1//EN"
 "http://www.w3.org/Graphics/SVG/1.1/DTD/svg11.dtd">
<!-- Generated by graphviz version 2.26.3 (20100126.1600)
 -->
<!-- Title: G Pages: 1 -->
<svg width="348pt" height="150pt"
 viewBox="0.00 0.00 348.00 150.00" xmlns="http://www.w3.org/2000/svg" xmlns:xlink="http://www.w3.org/1999/xlink">
<g id="graph1" class="graph" transform="scale(1 1) rotate(0) translate(4 146)">
<title>G</title>
<!-- Node1 -->
<g id="node1" class="node"><title>Node1</title>
<polygon fill="#bfbfbf" stroke="black" points="0,-60.5 0,-81.5 38,-81.5 38,-60.5 0,-60.5"/>
<text text-anchor="middle" x="19" y="-68.5" font-family="Helvetica,sans-Serif" font-size="10.00">main</text>
</g>
<!-- Node2 -->
<g id="node3" class="node"><title>Node2</title>
<a xlink:href="classXDevice.html#aaea5d2257cf085429c5055313c83ab4b" target="_top" xlink:title="XDevice::get_value">
<polygon fill="none" stroke="black" points="74,-80.5 74,-101.5 176,-101.5 176,-80.5 74,-80.5"/>
<text text-anchor="middle" x="125" y="-88.5" font-family="Helvetica,sans-Serif" font-size="10.00">XDevice::get_value</text>
</a>
</g>
<!-- Node1&#45;&gt;Node2 -->
<g id="edge2" class="edge"><title>Node1&#45;&gt;Node2</title>
<path fill="none" stroke="midnightblue" d="M38.442,-74.6683C45.8159,-76.0596 54.6621,-77.7287 63.8428,-79.4609"/>
<polygon fill="midnightblue" stroke="midnightblue" points="63.4068,-82.9403 73.8823,-81.3552 64.7047,-76.0617 63.4068,-82.9403"/>
</g>
<!-- Node3 -->
<g id="node5" class="node"><title>Node3</title>
<a xlink:href="classCharacterDevice.html#a27c4e98366eb05426a173b7ebca068a9" target="_top" xlink:title="Function to read a string from a device.">
<polygon fill="none" stroke="black" points="212,-120.5 212,-141.5 340,-141.5 340,-120.5 212,-120.5"/>
<text text-anchor="middle" x="276" y="-128.5" font-family="Helvetica,sans-Serif" font-size="10.00">CharacterDevice::receive</text>
</a>
</g>
<!-- Node1&#45;&gt;Node3 -->
<g id="edge8" class="edge"><title>Node1&#45;&gt;Node3</title>
<path fill="none" stroke="midnightblue" d="M29.7407,-81.5425C40.1283,-91.027 56.7864,-104.447 74,-111 114.362,-126.365 162.371,-131.602 201.456,-132.888"/>
<polygon fill="midnightblue" stroke="midnightblue" points="201.625,-136.393 211.709,-133.142 201.799,-129.395 201.625,-136.393"/>
</g>
<!-- Node5 -->
<g id="node10" class="node"><title>Node5</title>
<a xlink:href="classCharacterDevice.html#abadc9e200ce49cfe6dd6082fa00b97ff" target="_top" xlink:title="Function to write a string to a device.">
<polygon fill="none" stroke="black" points="217.5,-40.5 217.5,-61.5 334.5,-61.5 334.5,-40.5 217.5,-40.5"/>
<text text-anchor="middle" x="276" y="-48.5" font-family="Helvetica,sans-Serif" font-size="10.00">CharacterDevice::send</text>
</a>
</g>
<!-- Node1&#45;&gt;Node5 -->
<g id="edge10" class="edge"><title>Node1&#45;&gt;Node5</title>
<path fill="none" stroke="midnightblue" d="M38.3168,-69.4967C73.7213,-66.7415 150.583,-60.7601 207.363,-56.3414"/>
<polygon fill="midnightblue" stroke="midnightblue" points="207.662,-59.8288 217.36,-55.5634 207.118,-52.8499 207.662,-59.8288"/>
</g>
<!-- Node6 -->
<g id="node12" class="node"><title>Node6</title>
<a xlink:href="classXDevice.html#a864929eab7587d8dea5f273c325d00e3" target="_top" xlink:title="XDevice::set_value">
<polygon fill="none" stroke="black" points="74,-2.5 74,-23.5 176,-23.5 176,-2.5 74,-2.5"/>
<text text-anchor="middle" x="125" y="-10.5" font-family="Helvetica,sans-Serif" font-size="10.00">XDevice::set_value</text>
</a>
</g>
<!-- Node1&#45;&gt;Node6 -->
<g id="edge12" class="edge"><title>Node1&#45;&gt;Node6</title>
<path fill="none" stroke="midnightblue" d="M36.1226,-60.216C46.8679,-53.5767 61.0871,-45.0224 74,-38 80.1694,-34.6449 86.8533,-31.2217 93.2879,-28.0279"/>
<polygon fill="midnightblue" stroke="midnightblue" points="95.0028,-31.0854 102.448,-23.5476 91.9272,-24.7973 95.0028,-31.0854"/>
</g>
<!-- Node2&#45;&gt;Node3 -->
<g id="edge4" class="edge"><title>Node2&#45;&gt;Node3</title>
<path fill="none" stroke="midnightblue" d="M164.673,-101.51C183.585,-106.519 206.402,-112.563 226.442,-117.872"/>
<polygon fill="midnightblue" stroke="midnightblue" points="225.767,-121.314 236.33,-120.491 227.559,-114.547 225.767,-121.314"/>
</g>
<!-- Node4 -->
<g id="node7" class="node"><title>Node4</title>
<a xlink:href="classNumericEncoder.html#abd18954c0c3b0cd97da414f70ca7bb56" target="_top" xlink:title="NumericEncoder::encode">
<polygon fill="none" stroke="black" points="212.5,-80.5 212.5,-101.5 339.5,-101.5 339.5,-80.5 212.5,-80.5"/>
<text text-anchor="middle" x="276" y="-88.5" font-family="Helvetica,sans-Serif" font-size="10.00">NumericEncoder::encode</text>
</a>
</g>
<!-- Node2&#45;&gt;Node4 -->
<g id="edge6" class="edge"><title>Node2&#45;&gt;Node4</title>
<path fill="none" stroke="midnightblue" d="M176.122,-91C184.485,-91 193.296,-91 202.078,-91"/>
<polygon fill="midnightblue" stroke="midnightblue" points="202.345,-94.5001 212.345,-91 202.345,-87.5001 202.345,-94.5001"/>
</g>
<!-- Node6&#45;&gt;Node5 -->
<g id="edge14" class="edge"><title>Node6&#45;&gt;Node5</title>
<path fill="none" stroke="midnightblue" d="M167.062,-23.5851C184.815,-28.0528 205.659,-33.2983 224.335,-37.9982"/>
<polygon fill="midnightblue" stroke="midnightblue" points="223.612,-41.4253 234.164,-40.4716 225.32,-34.6369 223.612,-41.4253"/>
</g>
<!-- Node7 -->
<g id="node15" class="node"><title>Node7</title>
<a xlink:href="classNumericEncoder.html#ae7c86aa7fd8f10b4cb9ab4d0f1cd5da3" target="_top" xlink:title="NumericEncoder::decode">
<polygon fill="none" stroke="black" points="212.5,-0.5 212.5,-21.5 339.5,-21.5 339.5,-0.5 212.5,-0.5"/>
<text text-anchor="middle" x="276" y="-8.5" font-family="Helvetica,sans-Serif" font-size="10.00">NumericEncoder::decode</text>
</a>
</g>
<!-- Node6&#45;&gt;Node7 -->
<g id="edge16" class="edge"><title>Node6&#45;&gt;Node7</title>
<path fill="none" stroke="midnightblue" d="M176.122,-12.3229C184.485,-12.2121 193.296,-12.0954 202.078,-11.9791"/>
<polygon fill="midnightblue" stroke="midnightblue" points="202.393,-15.4753 212.345,-11.8431 202.3,-8.47595 202.393,-15.4753"/>
</g>
</g>
</svg>
