<?xml version="1.0" encoding="UTF-8" standalone="no"?>
<svg
   xmlns:dc="http://purl.org/dc/elements/1.1/"
   xmlns:cc="http://creativecommons.org/ns#"
   xmlns:rdf="http://www.w3.org/1999/02/22-rdf-syntax-ns#"
   xmlns:svg="http://www.w3.org/2000/svg"
   xmlns="http://www.w3.org/2000/svg"
   xmlns:sodipodi="http://sodipodi.sourceforge.net/DTD/sodipodi-0.dtd"
   xmlns:inkscape="http://www.inkscape.org/namespaces/inkscape"
   height="284"
   version="1.1"
   width="626"
   id="svg2"
   inkscape:version="0.48.3.1 r9886"
   sodipodi:docname="mod1.svg">
  <metadata
     id="metadata198">
    <rdf:RDF>
      <cc:Work
         rdf:about="">
        <dc:format>image/svg+xml</dc:format>
        <dc:type
           rdf:resource="http://purl.org/dc/dcmitype/StillImage" />
      </cc:Work>
    </rdf:RDF>
  </metadata>
  <defs
     id="defs196" />
  <sodipodi:namedview
     pagecolor="#ffffff"
     bordercolor="#666666"
     borderopacity="1"
     objecttolerance="10"
     gridtolerance="10"
     guidetolerance="10"
     inkscape:pageopacity="0"
     inkscape:pageshadow="2"
     inkscape:window-width="640"
     inkscape:window-height="480"
     id="namedview194"
     showgrid="false"
     fit-margin-top="0"
     fit-margin-left="0"
     fit-margin-right="0"
     fit-margin-bottom="0"
     inkscape:zoom="0.47647059"
     inkscape:cx="299.5"
     inkscape:cy="142.5"
     inkscape:window-x="59"
     inkscape:window-y="24"
     inkscape:window-maximized="0"
     inkscape:current-layer="svg2" />
  <rect
     height="67"
     width="71"
     x="288.5"
     y="0.5"
     id="rect4"
     style="fill:#ffffff;stroke:#ffffff;stroke-width:1" />
  <rect
     height="67"
     width="71"
     x="288.5"
     y="0.5"
     id="rect6"
     style="fill:none;stroke:#000000;stroke-width:1" />
  <text
     font-size="12"
     x="293.5"
     y="13.5"
     id="text8"
     style="font-size:12px;font-family:Dialog">Controller</text>
  <rect
     height="1"
     width="71"
     x="288.5"
     y="23.5"
     id="rect10"
     style="fill:#000000;stroke:#000000;stroke-width:1" />
  <rect
     height="1"
     width="71"
     x="288.5"
     y="44.5"
     id="rect12"
     style="fill:#000000;stroke:#000000;stroke-width:1" />
  <rect
     height="67"
     width="104"
     x="0.5"
     y="104.5"
     id="rect14"
     style="fill:#ffffff;stroke:#ffffff;stroke-width:1" />
  <rect
     height="67"
     width="104"
     x="0.5"
     y="104.5"
     id="rect16"
     style="fill:none;stroke:#000000;stroke-width:1" />
  <text
     font-size="12"
     font-style="italic"
     x="5.5"
     y="117.5"
     id="text18"
     style="font-size:12px;font-style:italic;font-family:Dialog">AbstractDevice</text>
  <rect
     height="1"
     width="104"
     x="0.5"
     y="127.5"
     id="rect20"
     style="fill:#000000;stroke:#000000;stroke-width:1" />
  <rect
     height="1"
     width="104"
     x="0.5"
     y="148.5"
     id="rect22"
     style="fill:#000000;stroke:#000000;stroke-width:1" />
  <rect
     height="67"
     width="99"
     x="272.5"
     y="104.5"
     id="rect24"
     style="fill:#ffffff;stroke:#ffffff;stroke-width:1" />
  <rect
     height="67"
     width="99"
     x="272.5"
     y="104.5"
     id="rect26"
     style="fill:none;stroke:#000000;stroke-width:1" />
  <text
     font-size="12"
     font-style="italic"
     x="277.5"
     y="117.5"
     id="text28"
     style="font-size:12px;font-style:italic;font-family:Dialog">AbstractDriver</text>
  <rect
     height="1"
     width="99"
     x="272.5"
     y="127.5"
     id="rect30"
     style="fill:#000000;stroke:#000000;stroke-width:1" />
  <rect
     height="1"
     width="99"
     x="272.5"
     y="148.5"
     id="rect32"
     style="fill:#000000;stroke:#000000;stroke-width:1" />
  <rect
     height="102"
     width="129"
     x="496.5"
     y="72.5"
     id="rect34"
     style="fill:#ffffff;stroke:#ffffff;stroke-width:1" />
  <rect
     height="102"
     width="129"
     x="496.5"
     y="72.5"
     id="rect36"
     style="fill:none;stroke:#000000;stroke-width:1" />
  <text
     font-size="12"
     font-style="italic"
     x="504.5"
     y="121.5"
     id="text38"
     style="font-size:12px;font-style:italic;font-family:Dialog">AbstractConverter</text>
  <text
     font-size="12"
     x="500.5"
     y="86.5"
     id="text40"
     style="font-size:12px;font-family:Dialog">&lt;&lt;typename T1&gt;&gt;</text>
  <text
     font-size="12"
     x="500.5"
     y="103.5"
     id="text42"
     style="font-size:12px;font-family:Dialog">&lt;&lt;typename T2&gt;&gt;</text>
  <rect
     height="1"
     width="129"
     x="496.5"
     y="131.5"
     id="rect44"
     style="fill:#000000;stroke:#000000;stroke-width:1" />
  <rect
     height="1"
     width="129"
     x="496.5"
     y="152.5"
     id="rect46"
     style="fill:#000000;stroke:#000000;stroke-width:1" />
  <polyline
     points="377,81 377,119"
     id="polyline48"
     style="fill:none;stroke:#000000;stroke-width:1"
     transform="translate(-40.5,-14.5)" />
  <polygon
     points="377,101 372,91 377,81 382,91 "
     id="polygon50"
     style="fill:#000000;stroke:#000000;stroke-width:1"
     transform="translate(-40.5,-14.5)" />
  <polygon
     points="377,101 372,91 377,81 382,91 "
     id="polygon52"
     style="fill:none;stroke:#000000;stroke-width:1"
     transform="translate(-40.5,-14.5)" />
  <polyline
     points="329,47 89,47 89,119"
     id="polyline54"
     style="fill:none;stroke:#000000;stroke-width:1"
     transform="translate(-40.5,-14.5)" />
  <polygon
     points="309,47 319,42 329,47 319,52 "
     id="polygon56"
     style="fill:#000000;stroke:#000000;stroke-width:1"
     transform="translate(-40.5,-14.5)" />
  <polygon
     points="309,47 319,42 329,47 319,52 "
     id="polygon58"
     style="fill:none;stroke:#000000;stroke-width:1"
     transform="translate(-40.5,-14.5)" />
  <polyline
     points="399,47 617,47 617,87"
     id="polyline60"
     style="fill:none;stroke:#000000;stroke-width:1"
     transform="translate(-40.5,-14.5)" />
  <polygon
     points="419,47 409,52 399,47 409,42 "
     id="polygon62"
     style="fill:#000000;stroke:#000000;stroke-width:1"
     transform="translate(-40.5,-14.5)" />
  <polygon
     points="419,47 409,52 399,47 409,42 "
     id="polygon64"
     style="fill:none;stroke:#000000;stroke-width:1"
     transform="translate(-40.5,-14.5)" />
  <polyline
     points="144,153 313,153"
     id="polyline66"
     style="fill:none;stroke:#000000;stroke-width:1"
     transform="translate(-40.5,-14.5)" />
  <line
     x1="260.5"
     x2="272.5"
     y1="145.5"
     y2="138.5"
     id="line68"
     style="fill:#000000;stroke:#000000;stroke-width:1" />
  <line
     x1="260.5"
     x2="272.5"
     y1="131.5"
     y2="138.5"
     id="line70"
     style="fill:#000000;stroke:#000000;stroke-width:1" />
  <line
     x1="272.5"
     x2="267.5"
     y1="138.5"
     y2="138.5"
     id="line72"
     style="fill:#000000;stroke:#000000;stroke-width:1" />
  <line
     x1="262.5"
     x2="257.5"
     y1="138.5"
     y2="138.5"
     id="line74"
     style="fill:#000000;stroke:#000000;stroke-width:1" />
  <line
     x1="252.5"
     x2="247.5"
     y1="138.5"
     y2="138.5"
     id="line76"
     style="fill:#000000;stroke:#000000;stroke-width:1" />
  <line
     x1="242.5"
     x2="237.5"
     y1="138.5"
     y2="138.5"
     id="line78"
     style="fill:#000000;stroke:#000000;stroke-width:1" />
  <line
     x1="232.5"
     x2="227.5"
     y1="138.5"
     y2="138.5"
     id="line80"
     style="fill:#000000;stroke:#000000;stroke-width:1" />
  <line
     x1="222.5"
     x2="217.5"
     y1="138.5"
     y2="138.5"
     id="line82"
     style="fill:#000000;stroke:#000000;stroke-width:1" />
  <line
     x1="212.5"
     x2="207.5"
     y1="138.5"
     y2="138.5"
     id="line84"
     style="fill:#000000;stroke:#000000;stroke-width:1" />
  <line
     x1="202.5"
     x2="197.5"
     y1="138.5"
     y2="138.5"
     id="line86"
     style="fill:#000000;stroke:#000000;stroke-width:1" />
  <line
     x1="192.5"
     x2="187.5"
     y1="138.5"
     y2="138.5"
     id="line88"
     style="fill:#000000;stroke:#000000;stroke-width:1" />
  <line
     x1="182.5"
     x2="177.5"
     y1="138.5"
     y2="138.5"
     id="line90"
     style="fill:#000000;stroke:#000000;stroke-width:1" />
  <line
     x1="172.5"
     x2="167.5"
     y1="138.5"
     y2="138.5"
     id="line92"
     style="fill:#000000;stroke:#000000;stroke-width:1" />
  <line
     x1="162.5"
     x2="157.5"
     y1="138.5"
     y2="138.5"
     id="line94"
     style="fill:#000000;stroke:#000000;stroke-width:1" />
  <line
     x1="152.5"
     x2="147.5"
     y1="138.5"
     y2="138.5"
     id="line96"
     style="fill:#000000;stroke:#000000;stroke-width:1" />
  <line
     x1="142.5"
     x2="137.5"
     y1="138.5"
     y2="138.5"
     id="line98"
     style="fill:#000000;stroke:#000000;stroke-width:1" />
  <line
     x1="132.5"
     x2="127.5"
     y1="138.5"
     y2="138.5"
     id="line100"
     style="fill:#000000;stroke:#000000;stroke-width:1" />
  <line
     x1="122.5"
     x2="117.5"
     y1="138.5"
     y2="138.5"
     id="line102"
     style="fill:#000000;stroke:#000000;stroke-width:1" />
  <line
     x1="112.5"
     x2="107.5"
     y1="138.5"
     y2="138.5"
     id="line104"
     style="fill:#000000;stroke:#000000;stroke-width:1" />
  <line
     x1="115.5"
     x2="103.5"
     y1="131.5"
     y2="138.5"
     id="line106"
     style="fill:#000000;stroke:#000000;stroke-width:1" />
  <line
     x1="115.5"
     x2="103.5"
     y1="145.5"
     y2="138.5"
     id="line108"
     style="fill:#000000;stroke:#000000;stroke-width:1" />
  <polyline
     points="345,119 345,81"
     id="polyline110"
     style="fill:none;stroke:#000000;stroke-width:1"
     transform="translate(-40.5,-14.5)" />
  <line
     x1="311.5"
     x2="304.5"
     y1="78.5"
     y2="66.5"
     id="line112"
     style="fill:#000000;stroke:#000000;stroke-width:1" />
  <line
     x1="297.5"
     x2="304.5"
     y1="78.5"
     y2="66.5"
     id="line114"
     style="fill:#000000;stroke:#000000;stroke-width:1" />
  <line
     x1="370.5"
     x2="375.5"
     y1="141.5"
     y2="141.5"
     id="line116"
     style="fill:#000000;stroke:#000000;stroke-width:1" />
  <line
     x1="380.5"
     x2="385.5"
     y1="141.5"
     y2="141.5"
     id="line118"
     style="fill:#000000;stroke:#000000;stroke-width:1" />
  <line
     x1="390.5"
     x2="395.5"
     y1="141.5"
     y2="141.5"
     id="line120"
     style="fill:#000000;stroke:#000000;stroke-width:1" />
  <line
     x1="400.5"
     x2="405.5"
     y1="141.5"
     y2="141.5"
     id="line122"
     style="fill:#000000;stroke:#000000;stroke-width:1" />
  <line
     x1="410.5"
     x2="415.5"
     y1="141.5"
     y2="141.5"
     id="line124"
     style="fill:#000000;stroke:#000000;stroke-width:1" />
  <line
     x1="420.5"
     x2="425.5"
     y1="141.5"
     y2="141.5"
     id="line126"
     style="fill:#000000;stroke:#000000;stroke-width:1" />
  <line
     x1="430.5"
     x2="435.5"
     y1="141.5"
     y2="141.5"
     id="line128"
     style="fill:#000000;stroke:#000000;stroke-width:1" />
  <line
     x1="440.5"
     x2="445.5"
     y1="141.5"
     y2="141.5"
     id="line130"
     style="fill:#000000;stroke:#000000;stroke-width:1" />
  <line
     x1="450.5"
     x2="455.5"
     y1="141.5"
     y2="141.5"
     id="line132"
     style="fill:#000000;stroke:#000000;stroke-width:1" />
  <line
     x1="460.5"
     x2="465.5"
     y1="141.5"
     y2="141.5"
     id="line134"
     style="fill:#000000;stroke:#000000;stroke-width:1" />
  <line
     x1="470.5"
     x2="475.5"
     y1="141.5"
     y2="141.5"
     id="line136"
     style="fill:#000000;stroke:#000000;stroke-width:1" />
  <line
     x1="480.5"
     x2="485.5"
     y1="141.5"
     y2="141.5"
     id="line138"
     style="fill:#000000;stroke:#000000;stroke-width:1" />
  <line
     x1="490.5"
     x2="495.5"
     y1="141.5"
     y2="141.5"
     id="line140"
     style="fill:#000000;stroke:#000000;stroke-width:1" />
  <line
     x1="484.5"
     x2="496.5"
     y1="148.5"
     y2="141.5"
     id="line142"
     style="fill:#000000;stroke:#000000;stroke-width:1" />
  <line
     x1="484.5"
     x2="496.5"
     y1="134.5"
     y2="141.5"
     id="line144"
     style="fill:#000000;stroke:#000000;stroke-width:1" />
  <rect
     height="66"
     width="66"
     x="8.5"
     y="216.5"
     id="rect146"
     style="fill:#ffffff;stroke:#ffffff;stroke-width:1" />
  <rect
     height="66"
     width="66"
     x="8.5"
     y="216.5"
     id="rect148"
     style="fill:none;stroke:#000000;stroke-width:1" />
  <text
     font-size="12"
     x="17.5"
     y="229.5"
     id="text150"
     style="font-size:12px;font-family:Dialog">XDevice</text>
  <rect
     height="1"
     width="66"
     x="8.5"
     y="239.5"
     id="rect152"
     style="fill:#000000;stroke:#000000;stroke-width:1" />
  <rect
     height="1"
     width="66"
     x="8.5"
     y="260.5"
     id="rect154"
     style="fill:#000000;stroke:#000000;stroke-width:1" />
  <rect
     height="67"
     width="66"
     x="288.5"
     y="216.5"
     id="rect156"
     style="fill:#ffffff;stroke:#ffffff;stroke-width:1" />
  <rect
     height="67"
     width="66"
     x="288.5"
     y="216.5"
     id="rect158"
     style="fill:none;stroke:#000000;stroke-width:1" />
  <text
     font-size="12"
     x="299.5"
     y="229.5"
     id="text160"
     style="font-size:12px;font-family:Dialog">XDriver</text>
  <rect
     height="1"
     width="66"
     x="288.5"
     y="239.5"
     id="rect162"
     style="fill:#000000;stroke:#000000;stroke-width:1" />
  <rect
     height="1"
     width="66"
     x="288.5"
     y="260.5"
     id="rect164"
     style="fill:#000000;stroke:#000000;stroke-width:1" />
  <rect
     height="67"
     width="78"
     x="536.5"
     y="216.5"
     id="rect166"
     style="fill:#ffffff;stroke:#ffffff;stroke-width:1" />
  <rect
     height="67"
     width="78"
     x="536.5"
     y="216.5"
     id="rect168"
     style="fill:none;stroke:#000000;stroke-width:1" />
  <text
     font-size="12"
     x="541.5"
     y="229.5"
     id="text170"
     style="font-size:12px;font-family:Dialog">XConverter</text>
  <rect
     height="1"
     width="78"
     x="536.5"
     y="239.5"
     id="rect172"
     style="fill:#000000;stroke:#000000;stroke-width:1" />
  <rect
     height="1"
     width="78"
     x="536.5"
     y="260.5"
     id="rect174"
     style="fill:#000000;stroke:#000000;stroke-width:1" />
  <polyline
     points="89,231 89,185"
     id="polyline176"
     style="fill:none;stroke:#000000;stroke-width:1"
     transform="translate(-40.5,-14.5)" />
  <polygon
     points="89,185 96,197 82,197 "
     id="polygon178"
     style="fill:#ffffff;stroke:#ffffff;stroke-width:1"
     transform="translate(-40.5,-14.5)" />
  <polygon
     points="89,185 96,197 82,197 "
     id="polygon180"
     style="fill:none;stroke:#000000;stroke-width:1"
     transform="translate(-40.5,-14.5)" />
  <polyline
     points="362,231 362,185"
     id="polyline182"
     style="fill:none;stroke:#000000;stroke-width:1"
     transform="translate(-40.5,-14.5)" />
  <polygon
     points="362,185 369,197 355,197 "
     id="polygon184"
     style="fill:#ffffff;stroke:#ffffff;stroke-width:1"
     transform="translate(-40.5,-14.5)" />
  <polygon
     points="362,185 369,197 355,197 "
     id="polygon186"
     style="fill:none;stroke:#000000;stroke-width:1"
     transform="translate(-40.5,-14.5)" />
  <polyline
     points="617,231 617,188"
     id="polyline188"
     style="fill:none;stroke:#000000;stroke-width:1"
     transform="translate(-40.5,-14.5)" />
  <polygon
     points="617,188 624,200 610,200 "
     id="polygon190"
     style="fill:#ffffff;stroke:#ffffff;stroke-width:1"
     transform="translate(-40.5,-14.5)" />
  <polygon
     points="617,188 624,200 610,200 "
     id="polygon192"
     style="fill:none;stroke:#000000;stroke-width:1"
     transform="translate(-40.5,-14.5)" />
</svg>
