<?xml version="1.0" encoding="UTF-8" standalone="no"?>
<!DOCTYPE svg PUBLIC "-//W3C//DTD SVG 1.1//EN"
 "http://www.w3.org/Graphics/SVG/1.1/DTD/svg11.dtd">
<!-- Generated by graphviz version 2.26.3 (20100126.1600)
 -->
<!-- Title: G Pages: 1 -->
<svg width="176pt" height="88pt"
 viewBox="0.00 0.00 176.00 88.00" xmlns="http://www.w3.org/2000/svg" xmlns:xlink="http://www.w3.org/1999/xlink">
<g id="graph1" class="graph" transform="scale(1 1) rotate(0) translate(4 84)">
<title>G</title>
<!-- Node1 -->
<g id="node1" class="node"><title>Node1</title>
<polygon fill="#bfbfbf" stroke="black" points="5.5,-58.5 5.5,-79.5 138.5,-79.5 138.5,-58.5 5.5,-58.5"/>
<text text-anchor="middle" x="72" y="-66.5" font-family="Helvetica,sans-Serif" font-size="10.00">src/enc/NumericEncoder.h</text>
</g>
<!-- Node2 -->
<g id="node3" class="node"><title>Node2</title>
<polygon fill="none" stroke="#bfbfbf" points="0,-0.5 0,-21.5 52,-21.5 52,-0.5 0,-0.5"/>
<text text-anchor="middle" x="26" y="-8.5" font-family="Helvetica,sans-Serif" font-size="10.00">sstream</text>
</g>
<!-- Node1&#45;&gt;Node2 -->
<g id="edge2" class="edge"><title>Node1&#45;&gt;Node2</title>
<path fill="none" stroke="midnightblue" d="M63.5629,-58.3619C57.2083,-50.3496 48.3342,-39.1605 40.8069,-29.6696"/>
<polygon fill="midnightblue" stroke="midnightblue" points="43.3399,-27.2308 34.3836,-21.5707 37.8554,-31.5805 43.3399,-27.2308"/>
</g>
<!-- Node3 -->
<g id="node5" class="node"><title>Node3</title>
<a xlink:href="AbstractEncoder_8h.html" target="_top" xlink:title="AbstractEncoder.h">
<polygon fill="none" stroke="black" points="70,-0.5 70,-21.5 168,-21.5 168,-0.5 70,-0.5"/>
<text text-anchor="middle" x="119" y="-8.5" font-family="Helvetica,sans-Serif" font-size="10.00">AbstractEncoder.h</text>
</a>
</g>
<!-- Node1&#45;&gt;Node3 -->
<g id="edge4" class="edge"><title>Node1&#45;&gt;Node3</title>
<path fill="none" stroke="midnightblue" d="M80.6205,-58.3619C87.1795,-50.2678 96.3656,-38.9318 104.106,-29.3796"/>
<polygon fill="midnightblue" stroke="midnightblue" points="106.858,-31.5436 110.434,-21.5707 101.419,-27.1364 106.858,-31.5436"/>
</g>
</g>
</svg>
