<?xml version="1.0" encoding="UTF-8" standalone="no"?>
<!DOCTYPE svg PUBLIC "-//W3C//DTD SVG 1.1//EN"
 "http://www.w3.org/Graphics/SVG/1.1/DTD/svg11.dtd">
<!-- Generated by graphviz version 2.26.3 (20100126.1600)
 -->
<!-- Title: G Pages: 1 -->
<svg width="373pt" height="204pt"
 viewBox="0.00 0.00 373.00 204.00" xmlns="http://www.w3.org/2000/svg" xmlns:xlink="http://www.w3.org/1999/xlink">
<g id="graph1" class="graph" transform="scale(1 1) rotate(0) translate(4 200)">
<title>G</title>
<!-- Node1 -->
<g id="node1" class="node"><title>Node1</title>
<polygon fill="#bfbfbf" stroke="black" points="119,-174.5 119,-195.5 217,-195.5 217,-174.5 119,-174.5"/>
<text text-anchor="middle" x="168" y="-182.5" font-family="Helvetica,sans-Serif" font-size="10.00">src/dev/XDevice.h</text>
</g>
<!-- Node2 -->
<g id="node3" class="node"><title>Node2</title>
<a xlink:href="CharacterDevice_8h.html" target="_top" xlink:title="CharacterDevice.h">
<polygon fill="none" stroke="black" points="55,-116.5 55,-137.5 153,-137.5 153,-116.5 55,-116.5"/>
<text text-anchor="middle" x="104" y="-124.5" font-family="Helvetica,sans-Serif" font-size="10.00">CharacterDevice.h</text>
</a>
</g>
<!-- Node1&#45;&gt;Node2 -->
<g id="edge2" class="edge"><title>Node1&#45;&gt;Node2</title>
<path fill="none" stroke="midnightblue" d="M156.261,-174.362C147.059,-166.023 134.06,-154.242 123.328,-144.516"/>
<polygon fill="midnightblue" stroke="midnightblue" points="125.424,-141.692 115.664,-137.571 120.724,-146.879 125.424,-141.692"/>
</g>
<!-- Node6 -->
<g id="node11" class="node"><title>Node6</title>
<a xlink:href="NumericEncoder_8h.html" target="_top" xlink:title="../enc/NumericEncoder.h">
<polygon fill="none" stroke="black" points="170.5,-116.5 170.5,-137.5 295.5,-137.5 295.5,-116.5 170.5,-116.5"/>
<text text-anchor="middle" x="233" y="-124.5" font-family="Helvetica,sans-Serif" font-size="10.00">../enc/NumericEncoder.h</text>
</a>
</g>
<!-- Node1&#45;&gt;Node6 -->
<g id="edge10" class="edge"><title>Node1&#45;&gt;Node6</title>
<path fill="none" stroke="midnightblue" d="M179.922,-174.362C189.359,-165.941 202.73,-154.011 213.69,-144.231"/>
<polygon fill="midnightblue" stroke="midnightblue" points="216.022,-146.84 221.154,-137.571 211.362,-141.617 216.022,-146.84"/>
</g>
<!-- Node3 -->
<g id="node5" class="node"><title>Node3</title>
<polygon fill="none" stroke="#bfbfbf" points="0,-58.5 0,-79.5 50,-79.5 50,-58.5 0,-58.5"/>
<text text-anchor="middle" x="25" y="-66.5" font-family="Helvetica,sans-Serif" font-size="10.00">fstream</text>
</g>
<!-- Node2&#45;&gt;Node3 -->
<g id="edge4" class="edge"><title>Node2&#45;&gt;Node3</title>
<path fill="none" stroke="midnightblue" d="M89.5102,-116.362C77.8173,-107.777 61.1573,-95.5459 47.6969,-85.6636"/>
<polygon fill="midnightblue" stroke="midnightblue" points="49.5301,-82.6675 39.398,-79.5707 45.3874,-88.31 49.5301,-82.6675"/>
</g>
<!-- Node4 -->
<g id="node7" class="node"><title>Node4</title>
<a xlink:href="AbstractDevice_8h.html" target="_top" xlink:title="AbstractDevice.h">
<polygon fill="none" stroke="black" points="68,-58.5 68,-79.5 160,-79.5 160,-58.5 68,-58.5"/>
<text text-anchor="middle" x="114" y="-66.5" font-family="Helvetica,sans-Serif" font-size="10.00">AbstractDevice.h</text>
</a>
</g>
<!-- Node2&#45;&gt;Node4 -->
<g id="edge6" class="edge"><title>Node2&#45;&gt;Node4</title>
<path fill="none" stroke="midnightblue" d="M105.834,-116.362C107.131,-108.84 108.911,-98.5187 110.477,-89.4308"/>
<polygon fill="midnightblue" stroke="midnightblue" points="113.927,-90.02 112.177,-79.5707 107.029,-88.8306 113.927,-90.02"/>
</g>
<!-- Node5 -->
<g id="node9" class="node"><title>Node5</title>
<polygon fill="none" stroke="#bfbfbf" points="93.5,-0.5 93.5,-21.5 134.5,-21.5 134.5,-0.5 93.5,-0.5"/>
<text text-anchor="middle" x="114" y="-8.5" font-family="Helvetica,sans-Serif" font-size="10.00">string</text>
</g>
<!-- Node4&#45;&gt;Node5 -->
<g id="edge8" class="edge"><title>Node4&#45;&gt;Node5</title>
<path fill="none" stroke="midnightblue" d="M114,-58.3619C114,-50.9219 114,-40.7427 114,-31.7276"/>
<polygon fill="midnightblue" stroke="midnightblue" points="117.5,-31.5706 114,-21.5707 110.5,-31.5707 117.5,-31.5706"/>
</g>
<!-- Node7 -->
<g id="node13" class="node"><title>Node7</title>
<polygon fill="none" stroke="#bfbfbf" points="197,-58.5 197,-79.5 249,-79.5 249,-58.5 197,-58.5"/>
<text text-anchor="middle" x="223" y="-66.5" font-family="Helvetica,sans-Serif" font-size="10.00">sstream</text>
</g>
<!-- Node6&#45;&gt;Node7 -->
<g id="edge12" class="edge"><title>Node6&#45;&gt;Node7</title>
<path fill="none" stroke="midnightblue" d="M231.166,-116.362C229.869,-108.84 228.089,-98.5187 226.523,-89.4308"/>
<polygon fill="midnightblue" stroke="midnightblue" points="229.971,-88.8306 224.823,-79.5707 223.073,-90.02 229.971,-88.8306"/>
</g>
<!-- Node8 -->
<g id="node15" class="node"><title>Node8</title>
<a xlink:href="AbstractEncoder_8h.html" target="_top" xlink:title="AbstractEncoder.h">
<polygon fill="none" stroke="black" points="267,-58.5 267,-79.5 365,-79.5 365,-58.5 267,-58.5"/>
<text text-anchor="middle" x="316" y="-66.5" font-family="Helvetica,sans-Serif" font-size="10.00">AbstractEncoder.h</text>
</a>
</g>
<!-- Node6&#45;&gt;Node8 -->
<g id="edge14" class="edge"><title>Node6&#45;&gt;Node8</title>
<path fill="none" stroke="midnightblue" d="M248.223,-116.362C260.625,-107.696 278.346,-95.3126 292.557,-85.3819"/>
<polygon fill="midnightblue" stroke="midnightblue" points="294.681,-88.1676 300.873,-79.5707 290.671,-82.4297 294.681,-88.1676"/>
</g>
</g>
</svg>
